<svg width="1280" height="1753" viewBox="0 0 1280 1753" fill="none" xmlns="http://www.w3.org/2000/svg">
<g clip-path="url(#clip0_156_205)">
<rect width="1280" height="1753" fill="white"/>
<g clip-path="url(#clip1_156_205)">
<path d="M245.888 247.561C273.953 272.753 307.773 302.794 335.839 327.986C341.798 331.598 362.974 343.344 388.505 337.322C394.942 335.792 406.149 332.994 414.886 323.214C429.342 307.074 429.918 279.933 417.231 262.377C408.742 250.644 396.678 246.446 392.854 245.174C386.858 243.175 373.346 238.493 359.719 245.227C357.804 246.169 340.468 255.073 340.579 271.247C340.678 284.334 352.136 297.235 361.596 296.402C365.053 296.076 369.386 293.839 371.099 290.152C373.583 284.76 368.498 280.535 370.974 274.918C372.679 271.008 377.201 268.384 381.225 268.283C388.489 268.044 393.557 275.805 395.354 280.73C398.726 289.985 394.31 299.855 389.127 305.502C382.607 312.629 374.124 313.897 369.627 314.596C365.509 315.214 352.595 316.463 341.217 308.011C334.198 302.804 331.096 296.315 329.267 292.443C321.537 275.916 325.199 259.494 327.023 253.096C327.889 249.529 326.223 245.852 323.106 244.286C319.488 242.47 315.02 244.018 313.671 246.528C312.322 249.038 314.938 251.003 314.329 254.896C313.533 259.914 308.103 264.854 304.719 263.991C299.822 262.758 300.917 249.874 296.236 249.058C293.49 248.575 292.042 252.812 288.188 253.331C283.444 253.972 278.809 248.478 275.68 243.869C264.847 245.759 258.142 246 245.888 247.561Z" fill="#486B43" fill-opacity="0.1" stroke="#486B43" stroke-opacity="0.1" stroke-width="0.290722" stroke-miterlimit="10"/>
<path d="M245.814 247.345C270.321 217.193 297.696 181.097 322.203 150.946C327.664 146.296 347.154 130.825 373.564 132.425C380.223 132.834 391.819 133.691 401.938 141.964C418.68 155.637 423.093 182.756 412.897 202.523C406.065 215.771 394.595 222.091 390.944 224.013C385.206 227.061 372.372 234.103 357.796 229.727C355.762 229.129 337.174 223.22 334.98 206.964C333.224 193.848 342.864 178.888 352.458 178.095C355.962 177.812 360.62 179.3 362.837 182.711C366.09 187.696 361.605 192.78 364.865 197.989C367.133 201.621 372.004 203.437 376.058 202.889C383.341 201.888 387.327 193.219 388.428 187.965C390.494 178.067 384.688 168.968 378.69 164.194C371.151 158.155 362.477 158.378 357.894 158.476C353.691 158.583 340.611 159.547 330.421 170.05C323.952 176.706 321.734 184.035 320.67 187.721C314.19 210.22 326.645 228.209 319.45 233.235C316.958 234.98 312.718 234.663 310.25 233.096C306.297 230.621 307.834 225.687 303.818 222.677C300.239 219.986 294.022 220.076 292.029 222.721C289.071 226.632 295.851 235.427 293.799 236.978C292.38 238.036 289.268 233.919 285.156 234.067C280.307 234.265 276.466 240.556 273.975 245.726C264.773 245.543 254.753 247.022 245.814 247.345Z" fill="#486B43" fill-opacity="0.1" stroke="#486B43" stroke-opacity="0.1" stroke-width="0.290722" stroke-miterlimit="10"/>
<path d="M218.871 243.854C192.555 219.648 160.774 188.593 134.459 164.387C128.839 160.896 108.941 149.49 84.6529 154.919C78.5527 156.272 67.9145 158.806 59.4947 167.976C45.6072 183.091 44.7344 208.814 56.5355 225.579C64.4187 236.801 75.8218 240.915 79.4266 242.172C85.104 244.14 97.8368 248.737 110.814 242.524C112.607 241.654 129.166 233.432 129.249 218.084C129.303 205.691 118.578 193.329 109.623 194.011C106.363 194.267 102.202 196.334 100.53 199.819C98.1084 204.909 102.89 208.956 100.45 214.249C98.7602 217.935 94.4718 220.363 90.6486 220.431C83.7851 220.571 79.068 213.167 77.4271 208.486C74.3354 199.657 78.6372 190.361 83.6042 185.076C89.8616 178.396 97.9128 177.288 102.195 176.694C106.12 176.154 118.333 175.126 129.015 183.283C135.606 188.317 138.463 194.468 140.151 198.186C147.279 213.944 143.621 229.465 141.846 235.48C140.977 238.856 142.503 242.332 145.443 243.873C148.857 245.648 153.099 244.228 154.414 241.848C155.729 239.468 153.251 237.581 153.891 233.942C154.71 229.202 159.914 224.583 163.085 225.425C167.696 226.635 166.518 238.832 170.964 239.666C173.569 240.141 174.984 236.148 178.643 235.704C183.149 235.15 187.486 240.393 190.374 244.821C200.986 244.278 209.929 244.066 218.871 243.854Z" fill="#486B43" fill-opacity="0.1" stroke="#486B43" stroke-opacity="0.1" stroke-width="0.290722" stroke-miterlimit="10"/>
<path d="M218.917 243.315C194.836 271.174 166.521 306.269 142.462 334.106C137.151 338.339 118.247 352.461 93.2868 350.178C87.0022 349.608 76.0428 348.458 66.6763 340.322C51.2148 326.896 47.8199 301.083 58.0605 282.645C64.9173 270.308 75.9494 264.659 79.4557 262.918C84.972 260.183 97.3442 253.9 111.018 258.457C112.92 259.096 130.376 265.22 131.956 280.666C133.239 293.138 123.658 307.01 114.581 307.506C111.25 307.68 106.886 306.115 104.888 302.838C101.947 298.045 106.363 293.326 103.421 288.309C101.378 284.809 96.8116 282.954 92.9443 283.355C86.0144 284.107 81.987 292.202 80.7917 297.129C78.556 306.422 83.7875 315.228 89.322 319.918C96.2906 325.852 104.475 325.898 108.835 325.942C112.815 325.966 125.246 325.408 135.195 315.783C141.508 309.689 143.817 302.789 144.949 299.316C151.739 278.213 140.472 260.783 147.415 256.251C149.826 254.673 153.829 255.077 156.136 256.652C159.787 259.116 158.188 263.731 161.93 266.73C165.223 269.374 171.149 269.5 173.111 267.029C176.031 263.413 169.861 254.88 171.87 253.483C173.232 252.514 176.081 256.502 179.972 256.481C184.578 256.457 187.385 248.825 189.855 244.003C197.28 244.456 212.209 243.35 218.917 243.315Z" fill="#486B43" fill-opacity="0.1" stroke="#486B43" stroke-opacity="0.1" stroke-width="0.290722" stroke-miterlimit="10"/>
<path d="M233.93 260.08C207.972 287.621 175.386 318.377 149.428 345.918C145.663 351.805 133.334 372.701 138.683 398.398C140.039 404.861 142.538 416.116 152.053 425.082C167.803 439.865 194.915 441.036 212.787 428.734C224.753 420.494 229.278 408.516 230.651 404.729C232.803 398.767 237.84 385.361 231.499 371.604C230.608 369.689 222.173 352.159 206.011 351.935C192.916 351.758 179.706 362.953 180.333 372.418C180.56 375.878 182.675 380.277 186.336 382.047C191.635 384.653 196.011 379.64 201.557 382.26C205.42 384.045 207.899 388.61 207.921 392.659C207.982 399.907 200.068 404.824 195.113 406.524C185.754 409.703 176.001 405.065 170.5 399.758C163.544 393.094 162.501 384.584 161.949 380.084C161.454 375.94 160.534 363.039 169.313 351.825C174.722 344.917 181.268 341.929 185.194 340.221C201.932 332.838 218.241 336.838 224.571 338.803C228.116 339.771 231.822 338.161 233.487 335.08C235.404 331.498 233.957 326.985 231.494 325.597C229.009 324.188 226.991 326.766 223.142 326.077C218.167 325.16 213.375 319.649 214.315 316.281C215.653 311.422 228.518 312.771 229.46 308.105C230.018 305.377 225.805 303.828 225.386 299.972C224.87 295.202 230.183 292.147 234.894 289.135C235.391 280.502 235.381 270.097 233.93 260.08Z" fill="#486B43" fill-opacity="0.1" stroke="#486B43" stroke-opacity="0.1" stroke-width="0.290722" stroke-miterlimit="10"/>
<path d="M234.146 259.999C263.642 285.14 297.685 315.173 327.136 340.315C331.638 345.859 346.594 365.706 344.291 392.059C343.706 398.703 342.546 410.269 333.993 420.222C319.884 436.685 292.67 440.529 273.165 429.91C260.108 422.794 254.108 411.218 252.262 407.503C249.363 401.722 242.667 388.716 247.445 374.246C248.117 372.23 254.507 353.763 270.78 351.923C283.954 350.442 298.626 360.408 299.169 370.01C299.352 373.517 297.76 378.139 294.274 380.301C289.232 383.436 284.225 378.85 278.938 382.017C275.251 384.208 273.286 389.045 273.757 393.123C274.581 400.433 283.132 404.6 288.363 405.799C298.194 408.086 307.472 402.448 312.379 396.588C318.599 389.18 318.624 380.497 318.652 375.932C318.668 371.702 318.033 358.634 307.843 348.216C301.382 341.624 294.098 339.246 290.413 338.103C268.122 331.164 249.773 343.237 244.966 335.936C243.293 333.379 243.713 329.179 245.354 326.726C247.955 322.828 252.819 324.465 255.955 320.503C258.747 317.001 258.831 310.755 256.212 308.702C252.376 305.685 243.419 312.228 241.919 310.179C240.91 308.761 245.104 305.701 245.057 301.585C245.008 296.731 238.79 292.748 233.715 290.179C235.383 281.772 232.479 268.406 234.146 259.999Z" fill="#486B43" fill-opacity="0.1" stroke="#486B43" stroke-opacity="0.1" stroke-width="0.290722" stroke-miterlimit="10"/>
<path d="M229.652 232.263C254.249 206.181 287.152 168.79 311.727 142.731C315.301 137.142 326.972 117.321 321.914 93.0229C320.637 86.893 318.27 76.2374 309.241 67.7687C294.322 53.7614 268.622 52.651 251.691 64.3151C240.359 72.1077 236.06 83.4733 234.77 87.0777C232.721 92.7457 227.973 105.425 233.977 118.478C234.821 120.305 242.822 136.911 258.133 137.121C270.535 137.3 283.047 126.668 282.481 117.693C282.26 114.412 280.265 110.254 276.808 108.544C271.759 106.085 267.643 110.821 262.392 108.347C258.732 106.622 256.397 102.32 256.337 98.496C256.288 91.6057 263.764 86.9729 268.476 85.3487C277.347 82.3214 286.578 86.7327 291.8 91.736C298.387 98.055 299.37 106.12 299.915 110.397C300.403 114.317 301.256 126.549 292.949 137.164C287.819 143.726 281.625 146.523 277.898 148.156C262.043 155.15 246.59 151.343 240.577 149.501C237.236 148.592 233.706 150.106 232.147 153.027C230.313 156.427 231.685 160.696 234.034 162.021C236.382 163.347 238.292 160.883 241.962 161.579C246.689 162.438 251.226 167.668 250.325 170.855C249.046 175.466 236.854 174.182 235.971 178.6C235.453 181.192 239.416 182.638 239.829 186.315C240.315 190.84 233.905 194.562 229.458 197.43C228.824 205.978 229.429 225.558 229.652 232.263Z" fill="#486B43" fill-opacity="0.1" stroke="#486B43" stroke-opacity="0.1" stroke-width="0.290722" stroke-miterlimit="10"/>
<path d="M141.398 150.238C169.328 174.047 201.484 208.557 229.414 232.367L229.966 197.059C229.966 197.059 219.27 191.626 219.229 187.04C219.19 183.148 223.165 180.23 222.204 178.9C220.773 176.915 212.276 183.151 208.646 180.284C206.164 178.314 206.26 172.426 208.901 169.086C211.865 165.354 216.48 166.889 218.931 163.198C220.487 160.881 220.892 156.884 219.29 154.48C214.742 147.551 197.334 158.986 176.218 152.407C172.736 151.324 165.859 149.066 159.723 142.82C150.044 132.965 149.453 120.545 149.455 116.562L149.455 116.553C149.467 112.187 149.489 103.98 155.383 96.9697C160.054 91.4087 168.827 86.0802 178.139 88.2285C183.077 89.3708 191.173 93.3307 191.963 100.261C192.403 104.094 190.541 108.681 187.053 110.754C182.028 113.732 177.296 109.36 172.517 112.352C169.252 114.416 167.719 118.79 167.897 122.118C168.423 131.229 182.316 140.641 194.8 139.251C210.247 137.509 216.29 120.016 216.92 118.092C221.432 104.369 215.072 92.0668 212.339 86.5711C210.59 83.0763 204.9 72.0929 192.528 65.3558C174.048 55.3031 148.282 58.939 134.904 74.5253C126.804 83.9468 125.714 94.9283 125.162 101.214C122.97 126.198 137.128 144.954 141.398 150.238Z" fill="#486B43" fill-opacity="0.1" stroke="#486B43" stroke-opacity="0.1" stroke-width="0.290722" stroke-miterlimit="10"/>
<ellipse cx="232.331" cy="245.592" rx="20.5269" ry="19.0021" transform="rotate(43.0184 232.331 245.592)" fill="#486B43" fill-opacity="0.1"/>
</g>
<g clip-path="url(#clip2_156_205)">
<path d="M578.888 523.561C606.953 548.753 640.773 578.794 668.839 603.986C674.798 607.598 695.974 619.344 721.505 613.322C727.942 611.792 739.149 608.994 747.886 599.214C762.342 583.074 762.918 555.933 750.231 538.377C741.742 526.644 729.678 522.446 725.854 521.174C719.858 519.175 706.346 514.493 692.719 521.227C690.804 522.169 673.468 531.073 673.579 547.247C673.678 560.334 685.136 573.235 694.596 572.402C698.053 572.076 702.386 569.839 704.099 566.152C706.583 560.76 701.498 556.535 703.974 550.918C705.679 547.008 710.201 544.384 714.225 544.283C721.489 544.044 726.557 551.805 728.354 556.731C731.726 565.985 727.31 575.855 722.127 581.502C715.607 588.629 707.124 589.897 702.627 590.596C698.509 591.214 685.595 592.463 674.217 584.011C667.198 578.804 664.096 572.315 662.267 568.443C654.537 551.916 658.199 535.494 660.023 529.096C660.889 525.529 659.223 521.852 656.106 520.286C652.488 518.47 648.02 520.018 646.671 522.528C645.322 525.038 647.938 527.003 647.329 530.896C646.533 535.914 641.103 540.854 637.719 539.991C632.822 538.758 633.917 525.874 629.236 525.058C626.49 524.575 625.042 528.812 621.188 529.331C616.444 529.972 611.809 524.478 608.68 519.869C597.847 521.759 591.142 522 578.888 523.561Z" fill="#486B43" fill-opacity="0.1" stroke="#486B43" stroke-opacity="0.1" stroke-width="0.290722" stroke-miterlimit="10"/>
<path d="M578.814 523.345C603.321 493.193 630.696 457.098 655.203 426.946C660.664 422.296 680.154 406.825 706.564 408.425C713.223 408.834 724.819 409.691 734.938 417.964C751.68 431.637 756.093 458.756 745.897 478.523C739.065 491.771 727.595 498.091 723.944 500.013C718.206 503.061 705.372 510.103 690.796 505.727C688.762 505.129 670.174 499.22 667.98 482.964C666.224 469.848 675.864 454.888 685.458 454.095C688.962 453.812 693.62 455.3 695.837 458.711C699.09 463.696 694.605 468.78 697.865 473.989C700.133 477.621 705.004 479.437 709.058 478.889C716.341 477.888 720.327 469.219 721.428 463.965C723.494 454.067 717.688 444.968 711.69 440.194C704.151 434.155 695.477 434.378 690.894 434.476C686.691 434.583 673.611 435.547 663.421 446.05C656.952 452.706 654.734 460.035 653.67 463.721C647.19 486.22 659.645 504.209 652.45 509.235C649.958 510.98 645.718 510.663 643.25 509.096C639.297 506.621 640.834 501.687 636.818 498.677C633.239 495.986 627.022 496.076 625.029 498.721C622.071 502.632 628.851 511.427 626.799 512.978C625.38 514.036 622.268 509.919 618.156 510.067C613.307 510.265 609.466 516.557 606.975 521.726C597.773 521.543 587.753 523.023 578.814 523.345Z" fill="#486B43" fill-opacity="0.1" stroke="#486B43" stroke-opacity="0.1" stroke-width="0.290722" stroke-miterlimit="10"/>
<path d="M551.871 519.854C525.555 495.648 493.774 464.593 467.459 440.387C461.839 436.896 441.941 425.49 417.653 430.919C411.553 432.272 400.914 434.806 392.495 443.976C378.607 459.091 377.734 484.814 389.536 501.579C397.419 512.801 408.822 516.915 412.427 518.172C418.104 520.14 430.837 524.737 443.814 518.524C445.607 517.654 462.166 509.432 462.249 494.084C462.303 481.691 451.578 469.329 442.623 470.011C439.363 470.267 435.202 472.334 433.53 475.819C431.108 480.909 435.89 484.956 433.45 490.249C431.76 493.935 427.472 496.363 423.649 496.431C416.785 496.571 412.068 489.167 410.427 484.486C407.335 475.657 411.637 466.361 416.604 461.076C422.862 454.396 430.913 453.288 435.195 452.694C439.12 452.154 451.333 451.126 462.015 459.283C468.606 464.317 471.463 470.468 473.151 474.186C480.279 489.944 476.621 505.465 474.846 511.48C473.977 514.856 475.503 518.332 478.443 519.873C481.857 521.648 486.099 520.228 487.414 517.848C488.729 515.468 486.251 513.581 486.891 509.942C487.71 505.202 492.914 500.583 496.085 501.425C500.696 502.635 499.518 514.832 503.964 515.666C506.569 516.141 507.984 512.148 511.643 511.704C516.149 511.15 520.486 516.393 523.374 520.821C533.986 520.278 542.929 520.066 551.871 519.854Z" fill="#486B43" fill-opacity="0.1" stroke="#486B43" stroke-opacity="0.1" stroke-width="0.290722" stroke-miterlimit="10"/>
<path d="M551.917 519.315C527.836 547.174 499.521 582.269 475.462 610.106C470.151 614.339 451.247 628.461 426.287 626.178C420.002 625.608 409.043 624.458 399.676 616.322C384.215 602.896 380.82 577.083 391.06 558.645C397.917 546.308 408.949 540.659 412.456 538.918C417.972 536.183 430.344 529.9 444.018 534.457C445.92 535.096 463.376 541.22 464.956 556.666C466.239 569.138 456.658 583.01 447.581 583.506C444.25 583.68 439.886 582.115 437.888 578.838C434.947 574.045 439.363 569.326 436.421 564.309C434.378 560.809 429.812 558.954 425.944 559.355C419.014 560.107 414.987 568.202 413.792 573.129C411.556 582.422 416.788 591.228 422.322 595.918C429.291 601.852 437.475 601.898 441.835 601.942C445.815 601.966 458.246 601.408 468.195 591.783C474.508 585.689 476.817 578.789 477.949 575.316C484.739 554.213 473.472 536.783 480.415 532.251C482.826 530.673 486.829 531.077 489.136 532.652C492.787 535.116 491.188 539.731 494.93 542.73C498.223 545.374 504.149 545.5 506.111 543.029C509.031 539.413 502.861 530.88 504.87 529.483C506.232 528.514 509.081 532.502 512.972 532.481C517.578 532.457 520.385 524.825 522.855 520.003C530.28 520.456 545.209 519.35 551.917 519.315Z" fill="#486B43" fill-opacity="0.1" stroke="#486B43" stroke-opacity="0.1" stroke-width="0.290722" stroke-miterlimit="10"/>
<path d="M566.93 536.08C540.972 563.621 508.386 594.377 482.428 621.918C478.663 627.805 466.334 648.701 471.683 674.398C473.039 680.861 475.538 692.116 485.053 701.082C500.803 715.865 527.915 717.036 545.787 704.734C557.753 696.494 562.278 684.516 563.651 680.729C565.803 674.767 570.84 661.361 564.499 647.604C563.608 645.689 555.173 628.159 539.011 627.935C525.916 627.758 512.706 638.953 513.333 648.418C513.56 651.878 515.675 656.277 519.336 658.047C524.635 660.653 529.011 655.64 534.557 658.26C538.42 660.045 540.899 664.61 540.921 668.659C540.982 675.907 533.068 680.824 528.113 682.524C518.754 685.703 509.001 681.065 503.5 675.758C496.544 669.094 495.501 660.584 494.949 656.084C494.454 651.94 493.534 639.039 502.313 627.825C507.722 620.917 514.268 617.929 518.194 616.221C534.932 608.838 551.241 612.838 557.571 614.803C561.116 615.771 564.822 614.161 566.487 611.08C568.404 607.498 566.957 602.985 564.494 601.597C562.009 600.188 559.991 602.766 556.142 602.077C551.167 601.16 546.375 595.649 547.315 592.281C548.653 587.422 561.518 588.771 562.46 584.105C563.018 581.377 558.805 579.828 558.386 575.972C557.87 571.202 563.183 568.147 567.894 565.135C568.391 556.502 568.381 546.097 566.93 536.08Z" fill="#486B43" fill-opacity="0.1" stroke="#486B43" stroke-opacity="0.1" stroke-width="0.290722" stroke-miterlimit="10"/>
<path d="M567.146 535.999C596.642 561.14 630.685 591.173 660.136 616.315C664.638 621.859 679.594 641.706 677.291 668.059C676.706 674.703 675.546 686.269 666.993 696.222C652.884 712.685 625.67 716.529 606.165 705.91C593.108 698.794 587.108 687.218 585.262 683.503C582.363 677.722 575.667 664.716 580.445 650.246C581.117 648.23 587.507 629.763 603.78 627.923C616.954 626.442 631.626 636.408 632.169 646.01C632.352 649.517 630.76 654.139 627.274 656.301C622.232 659.436 617.225 654.85 611.938 658.017C608.251 660.208 606.286 665.045 606.757 669.123C607.581 676.433 616.132 680.6 621.363 681.799C631.194 684.086 640.472 678.448 645.379 672.588C651.599 665.18 651.624 656.497 651.652 651.932C651.668 647.702 651.033 634.634 640.843 624.216C634.382 617.624 627.098 615.246 623.413 614.103C601.122 607.164 582.773 619.237 577.966 611.936C576.293 609.379 576.713 605.179 578.354 602.726C580.955 598.828 585.819 600.465 588.955 596.503C591.747 593.001 591.831 586.755 589.212 584.702C585.376 581.685 576.419 588.228 574.919 586.179C573.91 584.761 578.104 581.701 578.057 577.585C578.008 572.731 571.79 568.748 566.715 566.179C568.383 557.772 565.479 544.406 567.146 535.999Z" fill="#486B43" fill-opacity="0.1" stroke="#486B43" stroke-opacity="0.1" stroke-width="0.290722" stroke-miterlimit="10"/>
<path d="M562.652 508.263C587.249 482.181 620.152 444.79 644.727 418.731C648.301 413.142 659.972 393.321 654.914 369.023C653.637 362.893 651.27 352.237 642.241 343.769C627.322 329.761 601.622 328.651 584.691 340.315C573.359 348.108 569.06 359.473 567.77 363.078C565.721 368.746 560.973 381.425 566.977 394.478C567.821 396.305 575.822 412.911 591.133 413.121C603.535 413.3 616.047 402.668 615.481 393.693C615.26 390.412 613.265 386.254 609.808 384.544C604.759 382.085 600.643 386.821 595.392 384.347C591.732 382.622 589.397 378.32 589.337 374.496C589.288 367.606 596.764 362.973 601.476 361.349C610.347 358.321 619.578 362.733 624.8 367.736C631.387 374.055 632.37 382.12 632.915 386.397C633.403 390.317 634.256 402.549 625.949 413.164C620.819 419.726 614.625 422.523 610.898 424.156C595.043 431.15 579.59 427.343 573.577 425.501C570.236 424.592 566.706 426.106 565.147 429.027C563.313 432.427 564.685 436.696 567.034 438.021C569.382 439.347 571.292 436.883 574.962 437.579C579.689 438.438 584.226 443.667 583.325 446.855C582.046 451.466 569.854 450.182 568.971 454.6C568.453 457.192 572.416 458.638 572.829 462.315C573.315 466.84 566.905 470.562 562.458 473.43C561.824 481.978 562.429 501.558 562.652 508.263Z" fill="#486B43" fill-opacity="0.1" stroke="#486B43" stroke-opacity="0.1" stroke-width="0.290722" stroke-miterlimit="10"/>
<path d="M474.398 426.238C502.328 450.047 534.484 484.557 562.414 508.367L562.966 473.059C562.966 473.059 552.27 467.626 552.229 463.04C552.19 459.148 556.165 456.23 555.204 454.9C553.773 452.915 545.276 459.151 541.646 456.284C539.164 454.314 539.26 448.426 541.901 445.086C544.865 441.354 549.48 442.889 551.931 439.198C553.487 436.881 553.892 432.884 552.29 430.48C547.742 423.551 530.334 434.986 509.218 428.407C505.736 427.324 498.859 425.066 492.723 418.82C483.044 408.965 482.453 396.545 482.455 392.562L482.455 392.553C482.467 388.187 482.489 379.98 488.383 372.97C493.054 367.409 501.827 362.08 511.139 364.228C516.077 365.371 524.173 369.331 524.963 376.261C525.403 380.094 523.541 384.681 520.053 386.754C515.028 389.732 510.296 385.36 505.517 388.352C502.252 390.416 500.719 394.79 500.897 398.118C501.423 407.229 515.316 416.641 527.8 415.251C543.247 413.509 549.29 396.016 549.92 394.091C554.432 380.369 548.072 368.067 545.339 362.571C543.59 359.076 537.9 348.093 525.528 341.356C507.048 331.303 481.282 334.939 467.904 350.525C459.804 359.947 458.714 370.928 458.162 377.214C455.97 402.198 470.128 420.954 474.398 426.238Z" fill="#486B43" fill-opacity="0.1" stroke="#486B43" stroke-opacity="0.1" stroke-width="0.290722" stroke-miterlimit="10"/>
<ellipse cx="565.331" cy="521.592" rx="20.5269" ry="19.0021" transform="rotate(43.0184 565.331 521.592)" fill="#486B43" fill-opacity="0.1"/>
</g>
<g clip-path="url(#clip3_156_205)">
<path d="M879.888 236.561C907.953 261.753 941.773 291.794 969.839 316.986C975.798 320.598 996.974 332.344 1022.5 326.322C1028.94 324.792 1040.15 321.994 1048.89 312.214C1063.34 296.074 1063.92 268.933 1051.23 251.377C1042.74 239.644 1030.68 235.446 1026.85 234.174C1020.86 232.175 1007.35 227.493 993.719 234.227C991.804 235.169 974.468 244.073 974.579 260.247C974.678 273.334 986.136 286.235 995.596 285.402C999.053 285.076 1003.39 282.839 1005.1 279.152C1007.58 273.76 1002.5 269.535 1004.97 263.918C1006.68 260.008 1011.2 257.384 1015.23 257.283C1022.49 257.044 1027.56 264.805 1029.35 269.73C1032.73 278.985 1028.31 288.855 1023.13 294.502C1016.61 301.629 1008.12 302.897 1003.63 303.596C999.509 304.214 986.595 305.463 975.217 297.011C968.198 291.804 965.096 285.315 963.267 281.443C955.537 264.916 959.199 248.494 961.023 242.096C961.889 238.529 960.223 234.852 957.106 233.286C953.488 231.47 949.02 233.018 947.671 235.528C946.322 238.038 948.938 240.003 948.329 243.896C947.533 248.914 942.103 253.854 938.719 252.991C933.822 251.758 934.917 238.874 930.236 238.058C927.49 237.575 926.042 241.812 922.188 242.331C917.444 242.972 912.809 237.478 909.68 232.869C898.847 234.759 892.142 235 879.888 236.561Z" fill="#486B43" fill-opacity="0.1" stroke="#486B43" stroke-opacity="0.1" stroke-width="0.290722" stroke-miterlimit="10"/>
<path d="M879.814 236.345C904.321 206.193 931.696 170.097 956.203 139.946C961.664 135.296 981.154 119.825 1007.56 121.425C1014.22 121.834 1025.82 122.691 1035.94 130.964C1052.68 144.637 1057.09 171.756 1046.9 191.523C1040.06 204.771 1028.59 211.091 1024.94 213.013C1019.21 216.061 1006.37 223.103 991.796 218.727C989.762 218.129 971.174 212.22 968.98 195.964C967.224 182.848 976.864 167.888 986.458 167.095C989.962 166.812 994.62 168.3 996.837 171.711C1000.09 176.696 995.605 181.78 998.865 186.989C1001.13 190.621 1006 192.437 1010.06 191.889C1017.34 190.888 1021.33 182.219 1022.43 176.965C1024.49 167.067 1018.69 157.968 1012.69 153.194C1005.15 147.155 996.477 147.378 991.894 147.476C987.691 147.583 974.611 148.547 964.421 159.05C957.952 165.706 955.734 173.035 954.67 176.721C948.19 199.22 960.645 217.209 953.45 222.235C950.958 223.98 946.718 223.663 944.25 222.096C940.297 219.621 941.834 214.687 937.818 211.677C934.239 208.986 928.022 209.076 926.029 211.721C923.071 215.632 929.851 224.427 927.799 225.978C926.38 227.036 923.268 222.919 919.156 223.067C914.307 223.265 910.466 229.556 907.975 234.726C898.773 234.543 888.753 236.022 879.814 236.345Z" fill="#486B43" fill-opacity="0.1" stroke="#486B43" stroke-opacity="0.1" stroke-width="0.290722" stroke-miterlimit="10"/>
<path d="M852.871 232.854C826.555 208.648 794.774 177.593 768.459 153.387C762.839 149.896 742.941 138.49 718.653 143.919C712.553 145.272 701.914 147.806 693.495 156.976C679.607 172.091 678.734 197.814 690.536 214.579C698.419 225.801 709.822 229.915 713.427 231.172C719.104 233.14 731.837 237.737 744.814 231.524C746.607 230.654 763.166 222.432 763.249 207.084C763.303 194.691 752.578 182.329 743.623 183.011C740.363 183.267 736.202 185.334 734.53 188.819C732.108 193.909 736.89 197.956 734.45 203.249C732.76 206.935 728.472 209.363 724.649 209.431C717.785 209.571 713.068 202.167 711.427 197.486C708.335 188.657 712.637 179.361 717.604 174.076C723.862 167.396 731.913 166.288 736.195 165.694C740.12 165.154 752.333 164.126 763.015 172.283C769.606 177.317 772.463 183.468 774.151 187.186C781.279 202.944 777.621 218.465 775.846 224.48C774.977 227.856 776.503 231.332 779.443 232.873C782.857 234.648 787.099 233.228 788.414 230.848C789.729 228.468 787.251 226.581 787.891 222.942C788.71 218.202 793.914 213.583 797.085 214.425C801.696 215.635 800.518 227.832 804.964 228.666C807.569 229.141 808.984 225.148 812.643 224.704C817.149 224.15 821.486 229.393 824.374 233.821C834.986 233.278 843.929 233.066 852.871 232.854Z" fill="#486B43" fill-opacity="0.1" stroke="#486B43" stroke-opacity="0.1" stroke-width="0.290722" stroke-miterlimit="10"/>
<path d="M852.917 232.315C828.836 260.174 800.521 295.269 776.462 323.106C771.151 327.339 752.247 341.461 727.287 339.178C721.002 338.608 710.043 337.458 700.676 329.322C685.215 315.896 681.82 290.083 692.06 271.645C698.917 259.308 709.949 253.659 713.456 251.918C718.972 249.183 731.344 242.9 745.018 247.457C746.92 248.096 764.376 254.22 765.956 269.666C767.239 282.138 757.658 296.01 748.581 296.506C745.25 296.68 740.886 295.115 738.888 291.838C735.947 287.045 740.363 282.326 737.421 277.309C735.378 273.809 730.812 271.954 726.944 272.355C720.014 273.107 715.987 281.202 714.792 286.129C712.556 295.422 717.788 304.228 723.322 308.918C730.291 314.852 738.475 314.898 742.835 314.942C746.815 314.966 759.246 314.408 769.195 304.783C775.508 298.689 777.817 291.789 778.949 288.316C785.739 267.213 774.472 249.783 781.415 245.251C783.826 243.673 787.829 244.077 790.136 245.652C793.787 248.116 792.188 252.731 795.93 255.73C799.223 258.374 805.149 258.5 807.111 256.029C810.031 252.413 803.861 243.88 805.87 242.483C807.232 241.514 810.081 245.502 813.972 245.481C818.578 245.457 821.385 237.825 823.855 233.003C831.28 233.456 846.209 232.35 852.917 232.315Z" fill="#486B43" fill-opacity="0.1" stroke="#486B43" stroke-opacity="0.1" stroke-width="0.290722" stroke-miterlimit="10"/>
<path d="M867.93 249.08C841.972 276.621 809.386 307.377 783.428 334.918C779.663 340.805 767.334 361.701 772.683 387.398C774.039 393.861 776.538 405.116 786.053 414.082C801.803 428.865 828.915 430.036 846.787 417.734C858.753 409.494 863.278 397.516 864.651 393.729C866.803 387.767 871.84 374.361 865.499 360.604C864.608 358.689 856.173 341.159 840.011 340.935C826.916 340.758 813.706 351.953 814.333 361.418C814.56 364.878 816.675 369.277 820.336 371.047C825.635 373.653 830.011 368.64 835.557 371.26C839.42 373.045 841.899 377.61 841.921 381.659C841.982 388.907 834.068 393.824 829.113 395.524C819.754 398.703 810.001 394.065 804.5 388.758C797.544 382.094 796.501 373.584 795.949 369.084C795.454 364.94 794.534 352.039 803.313 340.825C808.722 333.917 815.268 330.929 819.194 329.221C835.932 321.838 852.241 325.838 858.571 327.803C862.116 328.771 865.822 327.161 867.487 324.08C869.404 320.498 867.957 315.985 865.494 314.597C863.009 313.188 860.991 315.766 857.142 315.077C852.167 314.16 847.375 308.649 848.315 305.281C849.653 300.422 862.518 301.771 863.46 297.105C864.018 294.377 859.805 292.828 859.386 288.972C858.87 284.202 864.183 281.147 868.894 278.135C869.391 269.502 869.381 259.097 867.93 249.08Z" fill="#486B43" fill-opacity="0.1" stroke="#486B43" stroke-opacity="0.1" stroke-width="0.290722" stroke-miterlimit="10"/>
<path d="M868.146 248.999C897.642 274.14 931.685 304.173 961.136 329.315C965.638 334.859 980.594 354.706 978.291 381.059C977.706 387.703 976.546 399.269 967.993 409.222C953.884 425.685 926.67 429.529 907.165 418.91C894.108 411.794 888.108 400.218 886.262 396.503C883.363 390.722 876.667 377.716 881.445 363.246C882.117 361.23 888.507 342.763 904.78 340.923C917.954 339.442 932.626 349.408 933.169 359.01C933.352 362.517 931.76 367.139 928.274 369.301C923.232 372.436 918.225 367.85 912.938 371.017C909.251 373.208 907.286 378.045 907.757 382.123C908.581 389.433 917.132 393.6 922.363 394.799C932.194 397.086 941.472 391.448 946.379 385.588C952.599 378.18 952.624 369.497 952.652 364.932C952.668 360.702 952.033 347.634 941.843 337.216C935.382 330.624 928.098 328.246 924.413 327.103C902.122 320.164 883.773 332.237 878.966 324.936C877.293 322.379 877.713 318.179 879.354 315.726C881.955 311.828 886.819 313.465 889.955 309.503C892.747 306.001 892.831 299.755 890.212 297.702C886.376 294.685 877.419 301.228 875.919 299.179C874.91 297.761 879.104 294.701 879.057 290.585C879.008 285.731 872.79 281.748 867.715 279.179C869.383 270.772 866.479 257.406 868.146 248.999Z" fill="#486B43" fill-opacity="0.1" stroke="#486B43" stroke-opacity="0.1" stroke-width="0.290722" stroke-miterlimit="10"/>
<path d="M863.652 221.263C888.249 195.181 921.152 157.79 945.727 131.731C949.301 126.142 960.972 106.321 955.914 82.0229C954.637 75.893 952.27 65.2374 943.241 56.7687C928.322 42.7614 902.622 41.651 885.691 53.3151C874.359 61.1077 870.06 72.4733 868.77 76.0777C866.721 81.7457 861.973 94.4254 867.977 107.478C868.821 109.305 876.822 125.911 892.133 126.121C904.535 126.3 917.047 115.668 916.481 106.693C916.26 103.412 914.265 99.2543 910.808 97.544C905.759 95.0855 901.643 99.821 896.392 97.3473C892.732 95.6219 890.397 91.3202 890.337 87.496C890.288 80.6057 897.764 75.9729 902.476 74.3487C911.347 71.3214 920.578 75.7327 925.8 80.736C932.387 87.055 933.37 95.12 933.915 99.3967C934.403 103.317 935.256 115.549 926.949 126.164C921.819 132.726 915.625 135.523 911.898 137.156C896.043 144.15 880.59 140.343 874.577 138.501C871.236 137.592 867.706 139.106 866.147 142.027C864.313 145.427 865.685 149.696 868.034 151.021C870.382 152.347 872.292 149.883 875.962 150.579C880.689 151.438 885.226 156.668 884.325 159.855C883.046 164.466 870.854 163.182 869.971 167.6C869.453 170.192 873.416 171.638 873.829 175.315C874.315 179.84 867.905 183.562 863.458 186.43C862.824 194.978 863.429 214.558 863.652 221.263Z" fill="#486B43" fill-opacity="0.1" stroke="#486B43" stroke-opacity="0.1" stroke-width="0.290722" stroke-miterlimit="10"/>
<path d="M775.398 139.238C803.328 163.047 835.484 197.557 863.414 221.367L863.966 186.059C863.966 186.059 853.27 180.626 853.229 176.04C853.19 172.148 857.165 169.23 856.204 167.9C854.773 165.915 846.276 172.151 842.646 169.284C840.164 167.314 840.26 161.426 842.901 158.086C845.865 154.354 850.48 155.889 852.931 152.198C854.487 149.881 854.892 145.884 853.29 143.48C848.742 136.551 831.334 147.986 810.218 141.407C806.736 140.324 799.859 138.066 793.723 131.82C784.044 121.965 783.453 109.545 783.455 105.562L783.455 105.553C783.467 101.187 783.489 92.9801 789.383 85.9697C794.054 80.4087 802.827 75.0802 812.139 77.2285C817.077 78.3708 825.173 82.3307 825.963 89.2614C826.403 93.0943 824.541 97.6815 821.053 99.754C816.028 102.732 811.296 98.3601 806.517 101.352C803.252 103.416 801.719 107.79 801.897 111.118C802.423 120.229 816.316 129.641 828.8 128.251C844.247 126.509 850.29 109.016 850.92 107.092C855.432 93.3687 849.072 81.0668 846.339 75.5711C844.59 72.0763 838.9 61.0929 826.528 54.3558C808.048 44.3031 782.282 47.939 768.904 63.5253C760.804 72.9468 759.714 83.9283 759.162 90.2137C756.97 115.198 771.128 133.954 775.398 139.238Z" fill="#486B43" fill-opacity="0.1" stroke="#486B43" stroke-opacity="0.1" stroke-width="0.290722" stroke-miterlimit="10"/>
<ellipse cx="866.331" cy="234.592" rx="20.5269" ry="19.0021" transform="rotate(43.0184 866.331 234.592)" fill="#486B43" fill-opacity="0.1"/>
</g>
<g clip-path="url(#clip4_156_205)">
<path d="M975.259 660.632C1012.45 666.897 1057.09 674.181 1094.28 680.447C1101.25 680.309 1125.42 678.902 1143.77 660.154C1148.39 655.417 1156.36 647.057 1158.51 634.12C1162.09 612.75 1148.05 589.512 1127.94 581.469C1114.49 576.099 1102.05 579.009 1098.14 579.98C1092.01 581.499 1078.08 584.773 1070.18 597.753C1069.06 599.574 1059.18 616.372 1067.93 629.976C1075.01 640.98 1091.6 645.748 1099.14 639.983C1101.89 637.857 1104.35 633.649 1103.83 629.618C1103.04 623.733 1096.48 622.885 1095.57 616.815C1094.92 612.599 1097.34 607.963 1100.68 605.725C1106.69 601.636 1115.12 605.481 1119.28 608.681C1127.08 614.694 1128.63 625.396 1127.27 632.939C1125.58 642.449 1119.09 648.059 1115.66 651.055C1112.51 653.782 1102.27 661.746 1088.14 660.694C1079.42 660.051 1073.33 656.228 1069.71 653.935C1054.34 644.11 1048.65 628.277 1046.76 621.896C1045.59 618.419 1042.21 616.204 1038.74 616.549C1034.71 616.95 1031.77 620.649 1031.97 623.491C1032.17 626.334 1035.43 626.593 1037 630.208C1039.02 634.874 1037.07 641.952 1033.75 643.034C1028.95 644.612 1022.99 633.143 1018.59 634.958C1016.02 636.019 1017.06 640.373 1014.08 642.874C1010.42 645.954 1003.56 643.792 998.453 641.572C990.311 648.965 984.777 652.757 975.259 660.632Z" fill="#486B43" fill-opacity="0.1" stroke="#486B43" stroke-opacity="0.1" stroke-width="0.290722" stroke-miterlimit="10"/>
<path d="M975.081 660.489C979.651 621.904 983.465 576.763 988.035 538.177C990.162 531.327 998.349 507.829 1021.52 495.049C1027.36 491.831 1037.62 486.351 1050.59 487.926C1072.05 490.519 1090.29 511.068 1092.25 533.224C1093.57 548.071 1087.26 559.547 1085.2 563.124C1081.99 568.77 1074.91 581.585 1060.26 585.688C1058.22 586.271 1039.36 591.225 1028.8 578.666C1020.3 568.524 1020.44 550.728 1028.12 544.925C1030.93 542.811 1035.66 541.576 1039.36 543.271C1044.78 545.742 1043.71 552.437 1049.25 555.093C1053.11 556.948 1058.19 555.876 1061.33 553.243C1066.94 548.501 1065.67 539.044 1063.79 534.017C1060.24 524.55 1050.47 519.969 1042.85 519.145C1033.25 518.077 1026.04 522.907 1022.22 525.442C1018.72 527.781 1008.19 535.594 1005.2 549.92C1003.3 559.003 1005.34 566.383 1006.42 570.065C1012.98 592.54 1033.13 601.073 1029.74 609.169C1028.57 611.977 1024.82 613.977 1021.89 613.974C1017.23 613.998 1015.89 609.008 1010.88 608.613C1006.42 608.255 1001.22 611.658 1000.95 614.959C1000.54 619.845 1010.98 623.648 1010.07 626.056C1009.44 627.71 1004.61 625.897 1001.21 628.222C997.222 630.983 997.344 638.354 998.005 644.054C990.133 648.823 982.46 655.434 975.081 660.489Z" fill="#486B43" fill-opacity="0.1" stroke="#486B43" stroke-opacity="0.1" stroke-width="0.290722" stroke-miterlimit="10"/>
<path d="M950.452 671.957C915.268 665.587 871.802 656.356 836.619 649.987C830.004 650.045 807.091 651.055 789.477 668.638C785.047 673.045 777.416 680.878 775.209 693.13C771.564 713.33 784.59 735.528 803.531 743.377C816.195 748.639 828.029 746.014 831.747 745.147C837.597 743.771 850.813 740.842 858.452 728.65C859.501 726.955 869.091 711.149 860.949 698.14C854.364 687.64 838.689 682.935 831.489 688.302C828.872 690.263 826.462 694.236 826.914 698.075C827.592 703.671 833.797 704.532 834.568 710.308C835.112 714.326 832.788 718.672 829.595 720.775C823.872 724.566 815.925 720.835 812.034 717.759C804.698 711.953 803.358 701.798 804.726 694.676C806.439 685.684 812.647 680.44 815.947 677.648C818.974 675.091 828.742 667.688 842.131 668.864C850.393 669.59 856.097 673.257 859.513 675.495C873.966 684.994 879.181 700.064 880.899 706.095C881.971 709.412 885.12 711.532 888.428 711.261C892.263 710.934 895.087 707.464 894.924 704.75C894.762 702.036 891.659 701.767 890.252 698.35C888.408 693.909 890.333 687.221 893.462 686.236C898.005 684.792 903.536 695.726 907.739 694.051C910.193 693.059 909.252 688.929 912.105 686.595C915.616 683.716 922.085 685.825 926.894 688.021C935.57 681.884 943.011 676.92 950.452 671.957Z" fill="#486B43" fill-opacity="0.1" stroke="#486B43" stroke-opacity="0.1" stroke-width="0.290722" stroke-miterlimit="10"/>
<path d="M950.202 671.476C944.765 707.897 939.622 752.696 934.191 789.086C931.969 795.503 923.555 817.549 901.247 828.976C895.632 831.856 885.758 836.749 873.492 834.888C853.246 831.818 836.567 811.827 835.353 790.771C834.544 776.68 840.842 766.005 842.872 762.658C846.069 757.396 853.16 745.468 867.149 742.001C869.098 741.523 887.122 737.357 896.722 749.56C904.479 759.411 903.807 776.256 896.404 781.532C893.683 783.461 889.159 784.474 885.717 782.775C880.668 780.3 881.874 773.95 876.704 771.285C873.105 769.422 868.256 770.298 865.203 772.706C859.751 777.049 860.68 786.043 862.306 790.845C865.39 799.892 874.521 804.532 881.706 805.533C890.768 806.817 897.707 802.477 901.414 800.182C904.789 798.072 914.993 790.949 918.248 777.495C920.321 768.968 918.579 761.903 917.677 758.364C912.122 736.903 893.277 728.207 896.718 720.663C897.91 718.04 901.508 716.239 904.3 716.336C908.703 716.463 909.822 721.218 914.587 721.75C918.784 722.221 923.857 719.156 924.193 716.019C924.725 711.402 914.947 707.495 915.897 705.239C916.529 703.692 921.07 705.537 924.346 703.437C928.224 700.952 926.512 693.003 926.019 687.608C932.534 684.017 944.554 675.095 950.202 671.476Z" fill="#486B43" fill-opacity="0.1" stroke="#486B43" stroke-opacity="0.1" stroke-width="0.290722" stroke-miterlimit="10"/>
<path d="M971.856 677.606C964.662 714.763 953.589 758.182 946.396 795.338C946.365 802.325 947.13 826.576 965.399 845.423C970.002 850.157 978.135 858.328 990.972 860.811C1012.19 864.873 1035.72 851.356 1044.23 831.4C1049.93 818.036 1047.35 805.496 1046.48 801.562C1045.11 795.374 1042.19 781.353 1029.47 773.124C1027.7 771.983 1011.19 761.687 997.417 770.145C986.26 777.002 981.09 793.528 986.684 801.188C988.727 803.99 992.867 806.575 996.907 806.112C1002.78 805.478 1003.79 798.901 1009.88 798.147C1014.1 797.588 1018.64 800.119 1020.82 803.527C1024.75 809.618 1020.7 818.006 1017.42 822.094C1011.21 829.787 1000.49 831.087 993.006 829.547C983.564 827.639 978.129 821.008 975.255 817.501C972.619 814.265 964.939 803.859 966.356 789.688C967.229 780.958 971.161 774.931 973.564 771.388C983.753 756.195 999.672 750.847 1006.07 749.12C1009.58 748.042 1011.85 744.699 1011.61 741.205C1011.31 737.153 1007.68 734.115 1004.85 734.259C1002 734.398 1001.67 737.657 998.054 739.134C993.361 741.021 986.364 738.929 985.355 735.581C983.886 730.76 995.476 725.016 993.775 720.57C992.787 717.967 988.4 718.913 985.983 715.879C982.994 712.126 985.848 706.701 988.216 701.637C984.017 694.078 978.441 685.293 971.856 677.606Z" fill="#486B43" fill-opacity="0.1" stroke="#486B43" stroke-opacity="0.1" stroke-width="0.290722" stroke-miterlimit="10"/>
<path d="M971.995 677.423C1010.36 682.879 1055.2 690.037 1093.53 695.519C1100.3 697.794 1123.55 706.558 1135.71 730.054C1138.77 735.98 1143.98 746.372 1142.08 759.356C1138.97 780.813 1118.03 798.623 1095.87 800.087C1081.03 801.062 1069.77 794.493 1066.22 792.342C1060.68 789.01 1048.07 781.605 1044.36 766.824C1043.85 764.761 1039.37 745.741 1052.13 735.48C1062.47 727.179 1080.19 727.748 1085.79 735.57C1087.82 738.434 1088.95 743.191 1087.16 746.882C1084.58 752.229 1077.89 751.034 1075.12 756.538C1073.18 760.362 1074.11 765.5 1076.69 768.693C1081.3 774.427 1090.75 773.373 1095.81 771.587C1105.34 768.258 1110.16 758.531 1111.17 750.955C1112.46 741.369 1107.84 734.02 1105.42 730.148C1103.17 726.566 1095.64 715.866 1081.46 712.517C1072.47 710.405 1065.05 712.293 1061.32 713.299C1038.78 719.364 1029.73 739.382 1021.77 735.786C1018.98 734.52 1017.09 730.748 1017.17 727.797C1017.28 723.113 1022.26 721.893 1022.79 716.868C1023.28 712.416 1020.01 707.094 1016.7 706.76C1011.84 706.264 1007.77 716.585 1005.41 715.656C1003.8 714.998 1005.71 710.168 1003.46 706.717C1000.82 702.642 993.441 702.604 987.779 703.149C984.69 695.155 975.084 685.417 971.995 677.423Z" fill="#486B43" fill-opacity="0.1" stroke="#486B43" stroke-opacity="0.1" stroke-width="0.290722" stroke-miterlimit="10"/>
<path d="M953.357 656.396C960.181 621.2 967.972 572.007 974.79 536.842C974.819 530.209 974.073 507.219 956.799 489.397C952.44 484.902 944.739 477.167 932.58 474.844C912.482 470.993 890.176 483.806 882.113 502.719C876.71 515.365 879.159 527.267 879.998 531.003C881.299 536.888 884.072 550.14 896.129 557.955C897.819 559.047 913.464 568.794 926.511 560.779C937.084 554.295 941.966 538.618 936.686 531.338C934.744 528.684 930.834 526.24 926.998 526.645C921.417 527.269 920.473 533.472 914.714 534.192C910.699 534.692 906.424 532.308 904.328 529.109C900.599 523.315 904.436 515.401 907.548 511.507C913.423 504.203 923.581 502.991 930.67 504.423C939.616 506.237 944.762 512.525 947.51 515.846C950.02 518.897 957.286 528.774 955.948 542.187C955.125 550.475 951.388 556.152 949.114 559.526C939.461 573.918 924.369 578.97 918.304 580.631C914.995 581.651 912.823 584.82 913.069 588.121C913.339 591.975 916.782 594.847 919.476 594.71C922.169 594.573 922.464 591.47 925.937 590.094C930.39 588.291 937.021 590.281 937.965 593.456C939.351 598.036 928.365 603.475 929.983 607.679C930.932 610.146 935.054 609.247 937.37 612.133C940.202 615.696 936.778 622.269 934.556 627.071C938.594 634.632 949.582 650.85 953.357 656.396Z" fill="#486B43" fill-opacity="0.1" stroke="#486B43" stroke-opacity="0.1" stroke-width="0.290722" stroke-miterlimit="10"/>
<path d="M834.911 634.321C871.246 639.491 916.877 651.44 953.212 656.61L934.786 626.487C934.786 626.487 922.843 627.62 920.355 623.768C918.239 620.501 920.036 615.909 918.512 615.299C916.242 614.388 912.4 624.203 907.799 623.722C904.648 623.387 901.578 618.361 902.023 614.126C902.53 609.388 907.25 608.214 907.345 603.785C907.421 600.995 905.624 597.402 902.985 596.228C895.435 592.807 886.847 611.782 865.487 617.523C861.967 618.471 854.949 620.242 846.423 618.249C832.972 615.103 825.828 604.926 823.698 601.56L823.693 601.553C821.367 597.858 816.995 590.913 818.223 581.837C819.194 574.64 823.754 565.444 832.771 562.276C837.554 560.599 846.512 559.612 850.888 565.045C853.311 568.048 854.192 572.919 852.354 576.537C849.702 581.741 843.365 580.58 840.929 585.664C839.275 589.155 840.32 593.67 842.251 596.387C847.57 603.802 864.344 604.32 874.147 596.466C886.265 586.729 882.01 568.718 881.512 566.755C877.981 552.747 866.026 545.757 860.777 542.577C857.429 540.56 846.746 534.326 832.688 535.254C811.698 536.649 791.875 553.508 788.914 573.833C787.111 586.127 792.066 595.987 794.963 601.593C806.479 623.872 828.477 632.142 834.911 634.321Z" fill="#486B43" fill-opacity="0.1" stroke="#486B43" stroke-opacity="0.1" stroke-width="0.290722" stroke-miterlimit="10"/>
<ellipse cx="962.753" cy="666.223" rx="20.5269" ry="19.0021" transform="rotate(10.6701 962.753 666.223)" fill="#486B43" fill-opacity="0.1"/>
</g>
<g clip-path="url(#clip5_156_205)">
<path d="M755.727 1566.91C778.333 1597.09 805.634 1633.16 828.24 1663.35C833.379 1668.05 851.853 1683.71 878.068 1682.79C884.681 1682.55 896.218 1681.99 906.697 1674.11C924.026 1661.1 929.892 1634.59 920.878 1614.9C914.844 1601.73 903.831 1595.26 900.33 1593.27C894.84 1590.13 882.502 1582.9 867.822 1586.85C865.76 1587.4 847.019 1592.74 843.97 1608.63C841.511 1621.48 850.229 1636.37 859.669 1637.4C863.123 1637.76 867.81 1636.41 870.21 1633.13C873.699 1628.33 869.537 1623.19 873.062 1618.16C875.498 1614.66 880.445 1612.97 884.412 1613.66C891.582 1614.84 895.037 1623.44 895.837 1628.63C897.337 1638.36 891.079 1647.18 884.893 1651.7C877.106 1657.42 868.539 1657.01 863.993 1656.81C859.833 1656.62 846.924 1655.32 837.416 1644.81C831.548 1638.33 829.774 1631.36 828.736 1627.21C824.382 1609.49 831.181 1594.1 834.219 1588.18C835.765 1584.85 834.849 1580.92 832.098 1578.77C828.904 1576.29 824.22 1576.93 822.407 1579.13C820.594 1581.33 822.776 1583.77 821.418 1587.46C819.657 1592.23 813.368 1596.02 810.216 1594.51C805.655 1592.34 809.245 1579.92 804.813 1578.21C802.215 1577.2 799.967 1581.07 796.086 1580.83C791.308 1580.53 787.835 1574.23 785.667 1569.1C774.673 1568.84 768.05 1567.77 755.727 1566.91Z" fill="#486B43" fill-opacity="0.1" stroke="#486B43" stroke-opacity="0.1" stroke-width="0.290722" stroke-miterlimit="10"/>
<path d="M755.697 1566.68C785.62 1541.89 819.517 1511.84 849.44 1487.05C855.705 1483.56 877.841 1472.19 903.43 1478.92C909.881 1480.62 921.086 1483.73 929.395 1493.82C943.144 1510.5 942.176 1537.95 928.316 1555.35C919.028 1567.01 906.544 1570.97 902.589 1572.14C896.366 1574.01 882.404 1578.41 868.963 1571.27C867.085 1570.29 850.009 1560.86 851.031 1544.49C851.871 1531.28 864.247 1518.49 873.812 1519.59C877.303 1520 881.581 1522.37 883.089 1526.14C885.306 1531.67 879.914 1535.78 882.094 1541.52C883.61 1545.53 888.032 1548.26 892.115 1548.51C899.453 1548.95 905.056 1541.23 907.161 1536.29C911.12 1526.99 907.203 1516.93 902.253 1511.08C896.038 1503.68 887.488 1502.21 882.973 1501.41C878.831 1500.69 865.815 1499.08 853.77 1507.4C846.125 1512.66 842.519 1519.41 840.756 1522.82C830.006 1543.62 838.708 1563.7 830.671 1567.22C827.885 1568.45 823.789 1567.31 821.675 1565.29C818.281 1562.09 820.752 1557.55 817.402 1553.81C814.416 1550.48 808.301 1549.35 805.83 1551.55C802.165 1554.81 807.098 1564.76 804.782 1565.88C803.184 1566.64 800.935 1562 796.874 1561.34C792.08 1560.59 787.084 1566.01 783.631 1570.59C774.642 1568.61 764.527 1568.11 755.697 1566.68Z" fill="#486B43" fill-opacity="0.1" stroke="#486B43" stroke-opacity="0.1" stroke-width="0.290722" stroke-miterlimit="10"/>
<path d="M729.954 1557.99C708.873 1529.11 683.768 1492.45 662.687 1463.57C657.857 1459.05 640.57 1443.98 615.689 1444.56C609.442 1444.7 598.514 1445.1 588.465 1452.45C571.893 1464.56 566.014 1489.62 574.314 1508.37C579.854 1520.91 590.234 1527.18 593.524 1529.11C598.707 1532.15 610.297 1539.15 624.238 1535.59C626.167 1535.08 644.012 1530.25 647.09 1515.22C649.564 1503.07 641.46 1488.85 632.544 1487.78C629.297 1487.39 624.812 1488.6 622.491 1491.7C619.123 1496.21 623.022 1501.12 619.596 1505.83C617.218 1509.12 612.538 1510.66 608.775 1509.98C602.016 1508.78 598.836 1500.6 598.141 1495.68C596.833 1486.42 602.868 1478.14 608.771 1473.93C616.213 1468.6 624.325 1469.09 628.64 1469.34C632.596 1469.58 644.774 1470.95 653.657 1481.04C659.139 1487.27 660.739 1493.86 661.669 1497.83C665.582 1514.68 658.964 1529.19 656.048 1534.74C654.536 1537.88 655.354 1541.59 657.936 1543.67C660.938 1546.08 665.376 1545.52 667.13 1543.44C668.884 1541.36 666.824 1539.03 668.162 1535.58C669.89 1531.09 675.896 1527.58 678.842 1529.02C683.127 1531.11 679.591 1542.84 683.788 1544.53C686.249 1545.51 688.417 1541.87 692.092 1542.14C696.62 1542.48 699.849 1548.47 701.817 1553.38C712.331 1554.92 721.143 1556.46 729.954 1557.99Z" fill="#486B43" fill-opacity="0.1" stroke="#486B43" stroke-opacity="0.1" stroke-width="0.290722" stroke-miterlimit="10"/>
<path d="M730.105 1557.47C701.047 1580.09 666.424 1608.98 637.392 1631.59C631.356 1634.7 610.058 1644.86 586.024 1637.75C579.972 1635.96 569.448 1632.69 561.851 1622.88C549.309 1606.7 551.021 1580.72 564.665 1564.63C573.799 1553.87 585.722 1550.49 589.5 1549.46C595.445 1547.86 608.806 1544.11 621.326 1551.25C623.067 1552.25 638.991 1561.67 637.524 1577.12C636.347 1589.61 624.241 1601.34 615.242 1600.05C611.941 1599.57 607.966 1597.19 606.647 1593.58C604.698 1588.31 609.951 1584.54 608.046 1579.05C606.725 1575.21 602.609 1572.5 598.738 1572.14C591.795 1571.53 586.264 1578.68 584.13 1583.28C580.122 1591.95 583.533 1601.61 588.045 1607.29C593.721 1614.47 601.738 1616.12 606.006 1617.01C609.905 1617.81 622.206 1619.69 633.843 1612.2C641.224 1607.45 644.836 1601.14 646.624 1597.95C657.405 1578.58 649.759 1559.29 657.453 1556.2C660.126 1555.12 663.973 1556.3 665.928 1558.29C669.028 1561.42 666.558 1565.64 669.642 1569.31C672.356 1572.55 678.143 1573.83 680.549 1571.79C684.12 1568.81 679.735 1559.24 681.978 1558.26C683.503 1557.57 685.519 1562.04 689.338 1562.78C693.861 1563.66 698.104 1556.72 701.468 1552.47C708.662 1554.37 723.519 1556.2 730.105 1557.47Z" fill="#486B43" fill-opacity="0.1" stroke="#486B43" stroke-opacity="0.1" stroke-width="0.290722" stroke-miterlimit="10"/>
<path d="M741.555 1576.85C710.718 1598.79 672.753 1622.59 641.916 1644.53C637.074 1649.57 620.902 1667.66 621.13 1693.9C621.197 1700.51 621.45 1712.03 629.031 1722.68C641.591 1740.26 667.952 1746.7 687.882 1738.13C701.227 1732.38 708.004 1721.52 710.091 1718.07C713.365 1712.64 720.923 1700.48 717.391 1685.75C716.891 1683.7 712.042 1664.86 696.235 1661.48C683.427 1658.75 668.285 1667.15 667.051 1676.56C666.598 1679.99 667.813 1684.72 671.058 1687.17C675.747 1690.76 681.017 1686.7 685.945 1690.35C689.385 1692.86 690.924 1697.82 690.155 1701.8C688.8 1708.92 680.078 1712.19 674.886 1712.89C665.086 1714.18 656.427 1707.73 652.069 1701.45C646.548 1693.56 647.187 1685.01 647.525 1680.48C647.848 1676.32 649.465 1663.49 660.265 1654.21C666.919 1648.49 673.923 1646.84 678.107 1645.93C695.964 1641.96 711.178 1649.06 717.002 1652.23C720.29 1653.87 724.239 1653.01 726.474 1650.32C729.053 1647.18 728.515 1642.47 726.371 1640.63C724.209 1638.76 721.726 1640.9 718.086 1639.47C713.386 1637.6 709.762 1631.26 711.342 1628.14C713.603 1623.63 725.957 1627.47 727.792 1623.08C728.872 1620.51 725.043 1618.17 725.385 1614.3C725.81 1609.52 731.618 1607.57 736.826 1605.53C738.999 1597.16 741.022 1586.96 741.555 1576.85Z" fill="#486B43" fill-opacity="0.1" stroke="#486B43" stroke-opacity="0.1" stroke-width="0.290722" stroke-miterlimit="10"/>
<path d="M741.783 1576.81C765.801 1607.23 793.323 1643.33 817.297 1673.74C820.63 1680.06 831.422 1702.44 824.017 1727.84C822.145 1734.24 818.749 1745.36 808.417 1753.45C791.364 1766.84 763.924 1765.29 746.868 1751.07C735.453 1741.54 731.829 1729.02 730.744 1725.01C729.029 1718.78 725.002 1704.71 732.514 1691.45C733.566 1689.61 743.44 1672.75 759.759 1674.12C772.969 1675.24 785.412 1687.88 784.069 1697.4C783.564 1700.88 781.1 1705.1 777.259 1706.54C771.702 1708.63 767.686 1703.15 761.883 1705.23C757.839 1706.66 754.968 1711.02 754.633 1715.11C754.014 1722.44 761.586 1728.19 766.482 1730.39C775.677 1734.55 785.877 1730.84 791.834 1726.05C799.381 1720 801.102 1711.49 802.021 1707.01C802.863 1702.87 804.792 1689.93 796.832 1677.72C791.783 1669.99 785.104 1666.24 781.713 1664.4C761.206 1653.24 740.853 1661.5 737.564 1653.4C736.423 1650.56 737.655 1646.53 739.744 1644.44C743.055 1641.13 747.507 1643.68 751.355 1640.41C754.778 1637.52 756.08 1631.41 753.912 1628.88C750.739 1625.18 740.677 1629.85 739.606 1627.54C738.893 1625.95 743.605 1623.77 744.362 1619.73C745.262 1614.96 739.942 1609.84 735.466 1606.33C738.744 1598.41 738.505 1584.73 741.783 1576.81Z" fill="#486B43" fill-opacity="0.1" stroke="#486B43" stroke-opacity="0.1" stroke-width="0.290722" stroke-miterlimit="10"/>
<path d="M742.791 1548.73C772.008 1527.95 811.58 1497.71 840.771 1476.95C845.367 1472.17 860.684 1455.01 860.47 1430.19C860.414 1423.93 860.173 1413.02 852.972 1402.95C841.076 1386.3 816.087 1380.19 797.205 1388.32C784.569 1393.75 778.133 1404.06 776.164 1407.34C773.047 1412.5 765.915 1424.01 769.254 1437.98C769.725 1439.94 774.329 1457.79 789.305 1460.98C801.432 1463.58 815.78 1455.6 816.978 1446.68C817.402 1443.42 816.257 1438.96 813.2 1436.6C808.729 1433.21 803.767 1437.05 799.101 1433.6C795.849 1431.19 794.398 1426.51 795.086 1422.75C796.383 1415.98 804.62 1412.9 809.559 1412.23C818.851 1410.99 827.042 1417.12 831.187 1423.05C836.412 1430.53 835.802 1438.63 835.501 1442.93C835.214 1446.87 833.662 1459.04 823.442 1467.82C817.129 1473.26 810.508 1474.79 806.534 1475.67C789.618 1479.43 775.206 1472.68 769.669 1469.7C766.569 1468.15 762.812 1468.95 760.712 1471.51C758.25 1474.48 758.762 1478.94 760.807 1480.7C762.851 1482.46 765.205 1480.41 768.669 1481.81C773.137 1483.58 776.565 1489.59 775.059 1492.54C772.904 1496.82 761.197 1493.18 759.469 1497.34C758.454 1499.78 762.059 1501.97 761.746 1505.66C761.339 1510.19 754.325 1512.59 749.404 1514.53C747.113 1522.79 743.882 1542.11 742.791 1548.73Z" fill="#486B43" fill-opacity="0.1" stroke="#486B43" stroke-opacity="0.1" stroke-width="0.290722" stroke-miterlimit="10"/>
<path d="M672.256 1451.05C694.998 1479.86 719.795 1519.98 742.538 1548.79L749.974 1514.27C749.974 1514.27 740.545 1506.85 741.401 1502.34C742.122 1498.52 746.591 1496.43 745.908 1494.94C744.892 1492.72 735.341 1497.17 732.341 1493.65C730.291 1491.23 731.535 1485.48 734.778 1482.72C738.413 1479.64 742.64 1482.04 745.764 1478.9C747.743 1476.93 748.92 1473.09 747.82 1470.42C744.712 1462.74 725.406 1470.55 705.981 1459.98C702.778 1458.24 696.475 1454.68 691.676 1447.35C684.108 1435.8 685.954 1423.5 686.734 1419.6L686.735 1419.59C687.6 1415.31 689.224 1407.26 696.374 1401.54C702.041 1397 711.686 1393.48 720.399 1397.41C725.018 1399.49 732.186 1404.96 731.606 1411.91C731.29 1415.76 728.568 1419.89 724.742 1421.24C719.232 1423.18 715.445 1417.97 710.175 1419.97C706.569 1421.36 704.211 1425.35 703.735 1428.65C702.472 1437.68 714.26 1449.63 726.775 1450.7C742.265 1452.01 751.608 1436.04 752.601 1434.27C759.706 1421.69 755.871 1408.39 754.264 1402.46C753.231 1398.69 749.796 1386.81 738.977 1377.79C722.817 1364.32 696.836 1362.85 680.673 1375.53C670.888 1383.19 667.675 1393.74 665.906 1399.8C658.877 1423.87 669.1 1445.03 672.256 1451.05Z" fill="#486B43" fill-opacity="0.1" stroke="#486B43" stroke-opacity="0.1" stroke-width="0.290722" stroke-miterlimit="10"/>
<ellipse cx="742.816" cy="1562.33" rx="20.5269" ry="19.0021" transform="rotate(54.2801 742.816 1562.33)" fill="#486B43" fill-opacity="0.1"/>
</g>
<g clip-path="url(#clip6_156_205)">
<path d="M326.344 1360.33C360.183 1376.98 400.875 1396.74 434.715 1413.39C441.43 1415.25 464.995 1420.82 487.941 1408.11C493.724 1404.9 503.753 1399.17 509.515 1387.39C519.059 1367.93 512.263 1341.65 495.295 1328.19C483.946 1319.19 471.196 1318.42 467.17 1318.23C460.858 1317.93 446.582 1317.08 435.288 1327.26C433.7 1328.68 419.423 1341.95 423.911 1357.49C427.55 1370.06 442.075 1379.37 450.955 1376.01C454.195 1374.76 457.76 1371.43 458.41 1367.42C459.34 1361.56 453.301 1358.87 454.164 1352.79C454.746 1348.56 458.388 1344.81 462.235 1343.63C469.162 1341.43 476.143 1347.53 479.206 1351.78C484.959 1359.78 483.382 1370.47 479.922 1377.31C475.575 1385.94 467.753 1389.46 463.614 1391.35C459.817 1393.06 447.724 1397.76 434.482 1392.7C426.315 1389.59 421.572 1384.19 418.762 1380.95C406.845 1367.14 405.922 1350.34 405.945 1343.69C405.813 1340.02 403.213 1336.93 399.788 1336.27C395.814 1335.5 391.932 1338.2 391.313 1340.98C390.695 1343.76 393.745 1344.94 394.213 1348.86C394.806 1353.9 390.917 1360.13 387.425 1360.22C382.378 1360.35 379.942 1347.66 375.215 1348.14C372.441 1348.42 372.195 1352.89 368.626 1354.43C364.232 1356.33 358.283 1352.3 354.023 1348.71C344.106 1353.46 337.717 1355.51 326.344 1360.33Z" fill="#486B43" fill-opacity="0.1" stroke="#486B43" stroke-opacity="0.1" stroke-width="0.290722" stroke-miterlimit="10"/>
<path d="M326.214 1360.14C341.638 1324.48 358.214 1282.32 373.639 1246.66C377.637 1240.7 392.208 1220.53 418.065 1214.92C424.585 1213.51 435.98 1211.2 447.962 1216.42C467.781 1225.05 479.373 1249.96 474.913 1271.75C471.923 1286.35 462.594 1295.54 459.601 1298.38C454.902 1302.87 444.456 1313.12 429.239 1312.86C427.119 1312.83 407.626 1312.18 401.11 1297.12C395.868 1284.97 401.096 1267.96 410.117 1264.6C413.413 1263.38 418.3 1263.55 421.358 1266.23C425.839 1270.15 422.898 1276.26 427.448 1280.39C430.615 1283.27 435.796 1283.7 439.55 1282.07C446.29 1279.14 447.779 1269.71 447.416 1264.36C446.724 1254.27 438.67 1247.08 431.603 1244.11C422.71 1240.34 414.421 1242.91 410.035 1244.24C406.018 1245.48 393.689 1249.95 386.725 1262.82C382.3 1270.98 382.15 1278.64 382.124 1282.48C381.979 1305.89 398.841 1319.83 393.276 1326.62C391.35 1328.97 387.183 1329.82 384.382 1328.98C379.907 1327.66 380.05 1322.5 375.369 1320.69C371.195 1319.07 365.234 1320.84 364.032 1323.92C362.244 1328.49 371.153 1335.12 369.598 1337.17C368.518 1338.57 364.407 1335.45 360.489 1336.71C355.875 1338.21 353.881 1345.31 352.883 1350.96C343.976 1353.27 334.732 1357.41 326.214 1360.14Z" fill="#486B43" fill-opacity="0.1" stroke="#486B43" stroke-opacity="0.1" stroke-width="0.290722" stroke-miterlimit="10"/>
<path d="M299.332 1364.08C267.445 1347.91 228.44 1326.62 196.552 1310.45C190.197 1308.61 167.954 1303.02 146.044 1314.82C140.538 1317.78 130.984 1323.1 125.362 1334.2C116.088 1352.52 122.214 1377.51 138.115 1390.46C148.743 1399.12 160.834 1400 164.644 1400.23C170.643 1400.59 184.145 1401.56 194.954 1392.07C196.445 1390.74 210.158 1378.34 206.08 1363.55C202.776 1351.6 189.104 1342.61 180.669 1345.69C177.6 1346.82 174.154 1349.94 173.488 1353.74C172.536 1359.3 178.235 1361.9 177.32 1367.66C176.691 1371.66 173.221 1375.16 169.559 1376.26C162.99 1378.26 156.444 1372.41 153.596 1368.34C148.229 1360.68 149.852 1350.57 153.202 1344.14C157.416 1336.01 164.866 1332.76 168.828 1331.03C172.46 1329.45 183.938 1325.15 196.43 1330.11C204.138 1333.17 208.554 1338.32 211.186 1341.44C222.315 1354.68 222.998 1370.61 222.918 1376.88C222.996 1380.37 225.406 1383.3 228.654 1383.99C232.421 1384.77 236.12 1382.25 236.741 1379.61C237.362 1376.96 234.467 1375.81 234.097 1372.14C233.601 1367.35 237.36 1361.5 240.641 1361.45C245.406 1361.37 247.577 1373.43 252.082 1373.03C254.718 1372.78 254.999 1368.55 258.401 1367.13C262.588 1365.38 268.183 1369.25 272.162 1372.73C282.232 1369.33 290.782 1366.71 299.332 1364.08Z" fill="#486B43" fill-opacity="0.1" stroke="#486B43" stroke-opacity="0.1" stroke-width="0.290722" stroke-miterlimit="10"/>
<path d="M299.231 1363.55C283.595 1396.89 265.844 1438.34 250.224 1471.65C246.257 1477.17 231.884 1495.88 207.239 1500.44C201.035 1501.6 190.173 1503.46 178.953 1498.16C160.434 1489.43 150.174 1465.5 155.039 1444.98C158.298 1431.24 167.387 1422.82 170.291 1420.19C174.861 1416.06 185.069 1406.67 199.465 1407.35C201.469 1407.45 219.932 1408.62 225.636 1423.06C230.249 1434.72 224.784 1450.66 216.18 1453.6C213.02 1454.67 208.396 1454.35 205.585 1451.73C201.455 1447.91 204.428 1442.18 200.238 1438.14C197.323 1435.33 192.425 1434.78 188.811 1436.21C182.344 1438.81 180.659 1447.7 180.843 1452.76C181.208 1462.31 188.629 1469.37 195.226 1472.39C203.542 1476.21 211.432 1474.04 215.642 1472.9C219.48 1471.85 231.295 1467.94 238.265 1455.98C242.692 1448.41 243.045 1441.14 243.194 1437.49C244.016 1415.34 228.449 1401.61 233.905 1395.37C235.798 1393.2 239.761 1392.5 242.409 1393.39C246.59 1394.77 246.301 1399.65 250.715 1401.52C254.602 1403.18 260.34 1401.69 261.559 1398.78C263.391 1394.51 255.141 1387.97 256.696 1386.08C257.744 1384.78 261.568 1387.85 265.307 1386.77C269.735 1385.5 270.37 1377.39 271.442 1372.08C278.712 1370.51 292.783 1365.4 299.231 1363.55Z" fill="#486B43" fill-opacity="0.1" stroke="#486B43" stroke-opacity="0.1" stroke-width="0.290722" stroke-miterlimit="10"/>
<path d="M318.224 1375.62C300.695 1409.16 277.656 1447.6 260.127 1481.14C258.097 1487.83 251.889 1511.28 263.998 1534.57C267.054 1540.42 272.507 1550.58 284.096 1556.63C303.261 1566.6 329.677 1560.38 343.549 1543.7C352.835 1532.53 353.947 1519.77 354.244 1515.75C354.7 1509.43 355.918 1495.16 346.088 1483.64C344.711 1482.03 331.844 1467.44 316.226 1471.61C303.572 1474.98 293.888 1489.34 297.055 1498.28C298.21 1501.55 301.438 1505.21 305.441 1505.92C311.249 1506.99 314.103 1500.98 320.152 1502C324.354 1502.68 327.976 1506.4 329.094 1510.29C331.116 1517.25 324.83 1524.13 320.52 1527.11C312.372 1532.7 301.727 1530.88 294.994 1527.26C286.494 1522.73 283.185 1514.82 281.435 1510.64C279.835 1506.78 275.456 1494.61 280.87 1481.44C284.206 1473.32 289.698 1468.68 293.015 1465.97C307.127 1454.33 323.91 1453.76 330.535 1453.94C334.21 1453.91 337.341 1451.36 338.11 1447.94C338.985 1443.97 336.37 1440.02 333.623 1439.35C330.849 1438.67 329.605 1441.7 325.713 1442.07C320.676 1442.54 314.57 1438.53 314.563 1435.04C314.535 1430 327.284 1427.81 326.927 1423.06C326.726 1420.29 322.251 1419.94 320.803 1416.34C319.015 1411.89 323.302 1407.51 327.021 1403.33C325.161 1394.89 322.333 1384.87 318.224 1375.62Z" fill="#486B43" fill-opacity="0.1" stroke="#486B43" stroke-opacity="0.1" stroke-width="0.290722" stroke-miterlimit="10"/>
<path d="M318.41 1375.49C353.612 1391.7 394.517 1411.39 429.677 1427.62C435.512 1431.73 455.284 1446.79 460.205 1472.78C461.441 1479.33 463.457 1490.78 457.919 1502.68C448.796 1522.35 423.641 1533.42 401.988 1528.48C387.493 1525.16 378.582 1515.65 375.798 1512.57C371.442 1507.79 361.474 1497.08 362.154 1481.86C362.254 1479.74 363.404 1460.23 378.57 1454.05C390.851 1449.06 407.674 1454.68 410.797 1463.77C411.923 1467.1 411.643 1471.98 408.873 1475.01C404.868 1479.39 398.806 1476.33 394.574 1480.81C391.619 1483.92 391.038 1489.11 392.595 1492.91C395.369 1499.72 404.729 1501.42 410.088 1501.15C420.171 1500.69 427.575 1492.75 430.712 1485.78C434.693 1476.97 432.366 1468.6 431.156 1464.2C430.026 1460.12 425.876 1447.71 413.245 1440.45C405.24 1435.85 397.584 1435.53 393.727 1435.43C370.39 1434.79 355.996 1451.38 349.392 1445.65C347.088 1443.65 346.355 1439.49 347.271 1436.68C348.718 1432.23 353.845 1432.49 355.79 1427.82C357.53 1423.69 355.919 1417.66 352.841 1416.39C348.331 1414.53 341.482 1423.25 339.483 1421.68C338.127 1420.59 341.336 1416.51 340.176 1412.56C338.814 1407.9 331.75 1405.75 326.169 1404.65C325.497 1396.11 319.081 1384.03 318.41 1375.49Z" fill="#486B43" fill-opacity="0.1" stroke="#486B43" stroke-opacity="0.1" stroke-width="0.290722" stroke-miterlimit="10"/>
<path d="M306.571 1350C323.185 1318.23 344.731 1273.33 361.33 1241.59C363.257 1235.24 369.123 1213 357.674 1190.98C354.784 1185.42 349.62 1175.81 338.634 1170.1C320.479 1160.66 295.439 1166.55 282.3 1182.36C273.502 1192.93 272.442 1205.04 272.176 1208.86C271.739 1214.87 270.602 1228.36 279.917 1239.3C281.224 1240.83 293.424 1254.65 308.22 1250.7C320.207 1247.52 329.372 1233.89 326.396 1225.41C325.295 1222.31 322.248 1218.85 318.457 1218.14C312.931 1217.14 310.251 1222.81 304.527 1221.85C300.537 1221.18 297.123 1217.67 296.03 1214.01C294.116 1207.39 300.058 1200.9 304.154 1198.07C311.874 1192.75 321.954 1194.49 328.337 1197.9C336.389 1202.2 339.52 1209.69 341.202 1213.66C342.734 1217.3 346.868 1228.85 341.747 1241.32C338.586 1249.02 333.38 1253.39 330.235 1255.97C316.866 1267 300.96 1267.52 294.673 1267.38C291.21 1267.41 288.223 1269.82 287.513 1273.05C286.669 1276.82 289.146 1280.56 291.766 1281.2C294.385 1281.84 295.556 1278.95 299.278 1278.63C304.061 1278.17 309.844 1281.98 309.84 1285.29C309.858 1290.08 297.774 1292.14 298.12 1296.63C298.324 1299.27 302.531 1299.59 303.924 1303.02C305.617 1307.24 300.455 1312.56 296.951 1316.52C298.656 1324.93 304.541 1343.61 306.571 1350Z" fill="#486B43" fill-opacity="0.1" stroke="#486B43" stroke-opacity="0.1" stroke-width="0.290722" stroke-miterlimit="10"/>
<path d="M199.4 1294.95C232.735 1310.3 273.036 1334.81 306.37 1350.17L297.339 1316.03C297.339 1316.03 285.571 1313.7 284.29 1309.29C283.198 1305.56 286.234 1301.67 284.948 1300.65C283.034 1299.13 276.543 1307.43 272.272 1305.66C269.35 1304.43 267.847 1298.74 269.485 1294.81C271.327 1290.41 276.186 1290.64 277.545 1286.42C278.416 1283.77 277.723 1279.81 275.53 1277.93C269.275 1272.5 255.615 1288.22 233.506 1287.6C229.861 1287.5 222.63 1287.19 215.031 1282.84C203.044 1275.98 199.112 1264.18 198.035 1260.35L198.033 1260.34C196.862 1256.13 194.66 1248.23 198.435 1239.88C201.425 1233.26 208.427 1225.76 217.973 1225.3C223.036 1225.07 231.902 1226.69 234.539 1233.14C236.001 1236.71 235.452 1241.63 232.655 1244.57C228.624 1248.8 222.885 1245.87 219.095 1250.05C216.511 1252.92 216.22 1257.55 217.292 1260.7C220.266 1269.33 236.19 1274.63 247.83 1269.91C262.229 1264.05 263.308 1245.57 263.393 1243.55C264.02 1229.12 254.566 1219 250.446 1214.45C247.816 1211.56 239.364 1202.52 225.629 1199.39C205.118 1194.72 181.299 1205.2 172.643 1223.82C167.397 1235.09 169.322 1245.95 170.493 1252.15C175.15 1276.8 193.859 1291.02 199.4 1294.95Z" fill="#486B43" fill-opacity="0.1" stroke="#486B43" stroke-opacity="0.1" stroke-width="0.290722" stroke-miterlimit="10"/>
<ellipse cx="312.76" cy="1362.11" rx="20.5269" ry="19.0021" transform="rotate(27.3042 312.76 1362.11)" fill="#486B43" fill-opacity="0.1"/>
</g>
<g clip-path="url(#clip7_156_205)">
<path d="M1022.83 1239.25C1040.52 1272.56 1061.95 1312.4 1079.64 1345.7C1083.99 1351.15 1099.83 1369.46 1125.88 1372.58C1132.45 1373.36 1143.93 1374.59 1155.5 1368.41C1174.63 1358.23 1184.5 1332.94 1178.63 1312.09C1174.69 1298.15 1164.81 1290.06 1161.65 1287.55C1156.71 1283.61 1145.63 1274.57 1130.52 1276.21C1128.4 1276.43 1109.06 1278.83 1103.6 1294.06C1099.19 1306.38 1105.52 1322.43 1114.68 1324.91C1118.04 1325.79 1122.88 1325.18 1125.76 1322.31C1129.94 1318.1 1126.62 1312.38 1130.88 1307.96C1133.82 1304.87 1138.97 1303.96 1142.79 1305.25C1149.69 1307.53 1151.78 1316.56 1151.77 1321.8C1151.76 1331.65 1144.21 1339.4 1137.41 1342.92C1128.83 1347.37 1120.43 1345.64 1115.97 1344.75C1111.89 1343.92 1099.33 1340.65 1091.56 1328.8C1086.76 1321.49 1086.07 1314.33 1085.69 1310.07C1084.11 1291.89 1093.2 1277.73 1097.11 1272.35C1099.15 1269.3 1098.85 1265.27 1096.47 1262.73C1093.69 1259.78 1088.96 1259.7 1086.83 1261.59C1084.71 1263.48 1086.49 1266.23 1084.57 1269.67C1082.1 1274.11 1075.3 1276.88 1072.42 1274.91C1068.25 1272.07 1073.71 1260.35 1069.59 1257.97C1067.18 1256.57 1064.36 1260.05 1060.57 1259.22C1055.89 1258.19 1053.43 1251.43 1052.08 1246.03C1041.25 1244.08 1034.87 1242 1022.83 1239.25Z" fill="#486B43" fill-opacity="0.1" stroke="#486B43" stroke-opacity="0.1" stroke-width="0.290722" stroke-miterlimit="10"/>
<path d="M1022.84 1239.02C1056.22 1219.14 1094.34 1194.66 1127.72 1174.77C1134.45 1172.29 1158.07 1164.46 1182.32 1175.05C1188.43 1177.72 1199.02 1182.51 1205.68 1193.76C1216.7 1212.36 1211.51 1239.34 1195.14 1254.4C1184.17 1264.49 1171.23 1266.48 1167.14 1267.03C1160.7 1267.91 1146.23 1270.11 1134.05 1260.99C1132.34 1259.73 1116.92 1247.79 1120.45 1231.77C1123.31 1218.85 1137.51 1208.12 1146.79 1210.67C1150.18 1211.61 1154.04 1214.61 1154.95 1218.58C1156.29 1224.38 1150.33 1227.61 1151.6 1233.62C1152.48 1237.81 1156.43 1241.19 1160.42 1242.07C1167.61 1243.63 1174.33 1236.87 1177.17 1232.31C1182.52 1223.73 1180.19 1213.19 1176.2 1206.64C1171.2 1198.38 1162.98 1195.6 1158.64 1194.12C1154.66 1192.77 1142.05 1189.18 1128.87 1195.54C1120.5 1199.56 1115.9 1205.68 1113.63 1208.78C1099.81 1227.68 1105.32 1248.85 1096.83 1251.1C1093.89 1251.88 1090.02 1250.12 1088.24 1247.8C1085.38 1244.12 1088.52 1240.01 1085.79 1235.81C1083.35 1232.05 1077.48 1230 1074.7 1231.79C1070.58 1234.45 1073.92 1245.04 1071.46 1245.79C1069.76 1246.3 1068.26 1241.36 1064.34 1240.08C1059.72 1238.6 1053.95 1243.19 1049.84 1247.19C1041.26 1243.85 1031.34 1241.79 1022.84 1239.02Z" fill="#486B43" fill-opacity="0.1" stroke="#486B43" stroke-opacity="0.1" stroke-width="0.290722" stroke-miterlimit="10"/>
<path d="M998.737 1226.48C982.352 1194.7 963.189 1154.61 946.804 1122.83C942.728 1117.62 927.967 1100.06 903.292 1096.81C897.099 1095.98 886.238 1094.7 875.179 1100.42C856.94 1109.83 847.274 1133.69 852.589 1153.49C856.132 1166.74 865.425 1174.52 868.378 1176.94C873.032 1180.74 883.407 1189.44 897.729 1188.07C899.713 1187.87 918.089 1185.84 923.444 1171.46C927.758 1159.84 921.939 1144.54 913.296 1142.1C910.146 1141.22 905.528 1141.73 902.759 1144.43C898.735 1148.38 901.833 1153.82 897.722 1157.95C894.867 1160.83 890.005 1161.64 886.392 1160.39C879.899 1158.16 878.016 1149.58 878.085 1144.62C878.219 1135.27 885.455 1128.02 891.936 1124.76C900.11 1120.64 908.051 1122.37 912.276 1123.29C916.147 1124.13 927.969 1127.37 935.194 1138.7C939.652 1145.69 940.219 1152.45 940.525 1156.52C941.799 1173.77 933.026 1187.09 929.29 1192.12C927.313 1195 927.551 1198.78 929.782 1201.24C932.377 1204.08 936.849 1204.21 938.902 1202.43C940.955 1200.64 939.278 1198.02 941.13 1194.82C943.529 1190.65 950.004 1188.11 952.693 1189.99C956.605 1192.71 951.305 1203.76 955.193 1206.07C957.475 1207.41 960.177 1204.15 963.766 1204.99C968.188 1206.02 970.457 1212.43 971.646 1217.58C981.798 1220.73 990.267 1223.6 998.737 1226.48Z" fill="#486B43" fill-opacity="0.1" stroke="#486B43" stroke-opacity="0.1" stroke-width="0.290722" stroke-miterlimit="10"/>
<path d="M998.966 1225.99C966.773 1243.87 928.115 1267.08 895.951 1284.95C889.508 1287.09 866.899 1293.85 844.247 1283.13C838.542 1280.43 828.647 1275.58 822.65 1264.72C812.749 1246.79 818.438 1221.39 834.395 1207.6C845.077 1198.37 857.379 1196.86 861.27 1196.43C867.39 1195.76 881.169 1194.12 892.441 1203.1C894.007 1204.35 908.292 1216.11 904.464 1231.15C901.379 1243.31 887.612 1253.04 878.918 1250.38C875.73 1249.4 872.171 1246.43 871.421 1242.66C870.308 1237.15 876.078 1234.24 875.041 1228.52C874.326 1224.53 870.676 1221.21 866.907 1220.26C860.141 1218.58 853.576 1224.8 850.759 1229.01C845.463 1236.97 847.347 1247.04 850.931 1253.35C855.434 1261.32 863.103 1264.17 867.182 1265.72C870.911 1267.11 882.776 1270.86 895.428 1265.24C903.452 1261.69 907.993 1256 910.25 1253.13C923.884 1235.65 919.298 1215.41 927.376 1213.54C930.183 1212.89 933.803 1214.65 935.428 1216.92C938.009 1220.49 934.92 1224.27 937.402 1228.38C939.585 1231.99 945.107 1234.15 947.798 1232.5C951.784 1230.11 948.925 1219.98 951.292 1219.35C952.904 1218.91 954.208 1223.64 957.868 1224.96C962.202 1226.52 967.463 1220.32 971.44 1216.64C978.256 1219.62 992.655 1223.71 998.966 1225.99Z" fill="#486B43" fill-opacity="0.1" stroke="#486B43" stroke-opacity="0.1" stroke-width="0.290722" stroke-miterlimit="10"/>
<path d="M1007.3 1246.89C973.451 1263.83 932.275 1281.5 898.428 1298.43C892.869 1302.67 874.105 1318.05 870.291 1344.02C869.341 1350.55 867.817 1361.98 873.669 1373.67C883.373 1392.97 908.429 1403.39 929.441 1397.99C943.511 1394.36 951.88 1384.67 954.471 1381.59C958.542 1376.73 967.883 1365.88 966.66 1350.78C966.481 1348.67 964.59 1329.31 949.491 1323.54C937.256 1318.87 921.001 1324.84 918.335 1333.95C917.358 1337.27 917.831 1342.13 920.66 1345.05C924.74 1349.32 930.573 1346.12 934.88 1350.49C937.893 1353.49 938.651 1358.63 937.279 1362.44C934.844 1369.27 925.722 1371.16 920.484 1371.05C910.602 1370.82 903.04 1363.11 899.699 1356.24C895.46 1347.59 897.407 1339.24 898.436 1334.82C899.396 1330.76 902.969 1318.33 915.069 1310.82C922.524 1306.19 929.699 1305.64 933.973 1305.38C952.228 1304.21 966.167 1313.57 971.435 1317.59C974.431 1319.72 978.464 1319.49 981.088 1317.17C984.12 1314.46 984.313 1309.73 982.478 1307.58C980.629 1305.4 977.847 1307.12 974.47 1305.15C970.114 1302.58 967.51 1295.76 969.551 1292.92C972.478 1288.82 984.095 1294.51 986.583 1290.45C988.046 1288.08 984.622 1285.18 985.555 1281.41C986.711 1276.76 992.751 1275.71 998.21 1274.51C1001.65 1266.57 1005.22 1256.8 1007.3 1246.89Z" fill="#486B43" fill-opacity="0.1" stroke="#486B43" stroke-opacity="0.1" stroke-width="0.290722" stroke-miterlimit="10"/>
<path d="M1007.53 1246.89C1026.58 1280.64 1048.22 1320.55 1067.22 1354.29C1069.54 1361.04 1076.76 1384.82 1065.54 1408.78C1062.7 1414.81 1057.64 1425.28 1046.18 1431.68C1027.27 1442.29 1000.39 1436.54 985.732 1419.86C975.919 1408.68 974.266 1395.75 973.811 1391.63C973.076 1385.2 971.261 1370.69 980.725 1358.74C982.049 1357.08 994.401 1341.94 1010.31 1345.81C1023.19 1348.95 1033.54 1363.35 1030.75 1372.55C1029.72 1375.91 1026.63 1379.7 1022.62 1380.53C1016.8 1381.74 1013.68 1375.72 1007.62 1376.87C1003.41 1377.66 999.9 1381.53 998.939 1385.52C997.199 1392.66 1003.8 1399.52 1008.29 1402.44C1016.74 1407.97 1027.39 1405.87 1034.01 1402.05C1042.4 1397.24 1045.41 1389.09 1047.01 1384.81C1048.48 1380.85 1052.38 1368.36 1046.39 1355.07C1042.59 1346.66 1036.57 1341.92 1033.5 1339.58C1014.96 1325.4 993.575 1330.43 991.572 1321.92C990.88 1318.94 992.719 1315.14 995.104 1313.4C998.887 1310.64 1002.89 1313.85 1007.2 1311.2C1011.02 1308.88 1013.25 1303.04 1011.5 1300.21C1008.93 1296.06 998.273 1299.12 997.569 1296.68C997.109 1295 1002.1 1293.57 1003.47 1289.69C1005.09 1285.12 1000.63 1279.24 996.745 1275.08C1001.2 1267.76 1003.07 1254.21 1007.53 1246.89Z" fill="#486B43" fill-opacity="0.1" stroke="#486B43" stroke-opacity="0.1" stroke-width="0.290722" stroke-miterlimit="10"/>
<path d="M1012.85 1219.3C1044.91 1203.27 1088.67 1179.47 1120.71 1163.46C1125.98 1159.44 1143.76 1144.84 1147.37 1120.29C1148.28 1114.09 1149.72 1103.27 1144.15 1092.21C1134.96 1073.93 1111.21 1064.05 1091.3 1069.18C1077.98 1072.6 1070.04 1081.79 1067.58 1084.73C1063.71 1089.35 1054.89 1099.62 1056.04 1113.94C1056.2 1115.95 1058.01 1134.3 1072.31 1139.76C1083.9 1144.19 1099.3 1138.51 1101.86 1129.89C1102.78 1126.73 1102.33 1122.14 1099.68 1119.35C1095.78 1115.3 1090.29 1118.33 1086.21 1114.2C1083.36 1111.33 1082.65 1106.48 1083.91 1102.87C1086.23 1096.38 1094.85 1094.61 1099.83 1094.7C1109.2 1094.91 1116.35 1102.23 1119.53 1108.72C1123.55 1116.92 1121.7 1124.83 1120.74 1129.03C1119.85 1132.88 1116.44 1144.66 1104.99 1151.77C1097.92 1156.17 1091.14 1156.67 1087.08 1156.92C1069.78 1158.03 1056.58 1149.14 1051.57 1145.34C1048.74 1143.34 1044.91 1143.55 1042.44 1145.76C1039.55 1148.32 1039.37 1152.8 1041.12 1154.85C1042.87 1156.9 1045.51 1155.25 1048.72 1157.16C1052.86 1159.6 1055.32 1166.07 1053.38 1168.75C1050.59 1172.64 1039.58 1167.24 1037.24 1171.08C1035.86 1173.34 1039.08 1176.06 1038.21 1179.66C1037.11 1184.07 1029.81 1185.36 1024.64 1186.53C1021.11 1194.33 1014.94 1212.93 1012.85 1219.3Z" fill="#486B43" fill-opacity="0.1" stroke="#486B43" stroke-opacity="0.1" stroke-width="0.290722" stroke-miterlimit="10"/>
<path d="M958.186 1111.93C976.224 1143.89 994.55 1187.35 1012.59 1219.32L1025.25 1186.35C1025.25 1186.35 1017.07 1177.57 1018.61 1173.25C1019.91 1169.58 1024.65 1168.21 1024.21 1166.63C1023.54 1164.28 1013.42 1167.21 1011 1163.27C1009.35 1160.57 1011.46 1155.07 1015.09 1152.84C1019.16 1150.36 1022.96 1153.38 1026.53 1150.76C1028.79 1149.12 1030.54 1145.51 1029.87 1142.7C1027.98 1134.63 1007.7 1139.38 990.136 1125.94C987.239 1123.73 981.559 1119.24 977.945 1111.26C972.245 1098.68 975.961 1086.82 977.333 1083.08L977.336 1083.07C978.849 1078.97 981.692 1071.27 989.638 1066.72C995.936 1063.1 1006.01 1061.12 1014.01 1066.34C1018.26 1069.11 1024.5 1075.61 1022.85 1082.39C1021.95 1086.14 1018.62 1089.81 1014.63 1090.55C1008.89 1091.62 1005.95 1085.89 1000.44 1087.05C996.661 1087.87 993.717 1091.45 992.739 1094.64C990.1 1103.37 999.909 1116.99 1012.11 1119.98C1027.21 1123.65 1038.9 1109.31 1040.16 1107.72C1049.11 1096.38 1047.37 1082.64 1046.7 1076.54C1046.26 1072.66 1044.69 1060.39 1035.39 1049.81C1021.49 1034.01 996.049 1028.57 978.127 1038.6C967.281 1044.66 962.48 1054.6 959.8 1060.31C949.15 1083.02 955.994 1105.5 958.186 1111.93Z" fill="#486B43" fill-opacity="0.1" stroke="#486B43" stroke-opacity="0.1" stroke-width="0.290722" stroke-miterlimit="10"/>
<ellipse cx="1010.78" cy="1232.74" rx="20.5269" ry="19.0021" transform="rotate(63.134 1010.78 1232.74)" fill="#486B43" fill-opacity="0.1"/>
</g>
<g clip-path="url(#clip8_156_205)">
<path d="M688.888 960.561C716.953 985.753 750.773 1015.79 778.839 1040.99C784.798 1044.6 805.974 1056.34 831.505 1050.32C837.942 1048.79 849.149 1045.99 857.886 1036.21C872.342 1020.07 872.918 992.933 860.231 975.377C851.742 963.644 839.678 959.446 835.854 958.174C829.858 956.175 816.346 951.493 802.719 958.227C800.804 959.169 783.468 968.073 783.579 984.247C783.678 997.334 795.136 1010.24 804.596 1009.4C808.053 1009.08 812.386 1006.84 814.099 1003.15C816.583 997.76 811.498 993.535 813.974 987.918C815.679 984.008 820.201 981.384 824.225 981.283C831.489 981.044 836.557 988.805 838.354 993.731C841.726 1002.98 837.31 1012.86 832.127 1018.5C825.607 1025.63 817.124 1026.9 812.627 1027.6C808.509 1028.21 795.595 1029.46 784.217 1021.01C777.198 1015.8 774.096 1009.32 772.267 1005.44C764.537 988.916 768.199 972.494 770.023 966.096C770.889 962.529 769.223 958.852 766.106 957.286C762.488 955.47 758.02 957.018 756.671 959.528C755.322 962.038 757.938 964.003 757.329 967.896C756.533 972.914 751.103 977.854 747.719 976.991C742.822 975.758 743.917 962.874 739.236 962.058C736.49 961.575 735.042 965.812 731.188 966.331C726.444 966.972 721.809 961.478 718.68 956.869C707.847 958.759 701.142 959 688.888 960.561Z" fill="#486B43" fill-opacity="0.1" stroke="#486B43" stroke-opacity="0.1" stroke-width="0.290722" stroke-miterlimit="10"/>
<path d="M688.814 960.345C713.321 930.193 740.696 894.097 765.203 863.946C770.664 859.296 790.154 843.825 816.564 845.425C823.223 845.834 834.819 846.691 844.938 854.964C861.68 868.637 866.093 895.756 855.897 915.523C849.065 928.771 837.595 935.091 833.944 937.013C828.206 940.061 815.372 947.103 800.796 942.727C798.762 942.129 780.174 936.22 777.98 919.964C776.224 906.848 785.864 891.888 795.458 891.095C798.962 890.812 803.62 892.3 805.837 895.711C809.09 900.696 804.605 905.78 807.865 910.989C810.133 914.621 815.004 916.437 819.058 915.889C826.341 914.888 830.327 906.219 831.428 900.965C833.494 891.067 827.688 881.968 821.69 877.194C814.151 871.155 805.477 871.378 800.894 871.476C796.691 871.583 783.611 872.547 773.421 883.05C766.952 889.706 764.734 897.035 763.67 900.721C757.19 923.22 769.645 941.209 762.45 946.235C759.958 947.98 755.718 947.663 753.25 946.096C749.297 943.621 750.834 938.687 746.818 935.677C743.239 932.986 737.022 933.076 735.029 935.721C732.071 939.632 738.851 948.427 736.799 949.978C735.38 951.036 732.268 946.919 728.156 947.067C723.307 947.265 719.466 953.556 716.975 958.726C707.773 958.543 697.753 960.022 688.814 960.345Z" fill="#486B43" fill-opacity="0.1" stroke="#486B43" stroke-opacity="0.1" stroke-width="0.290722" stroke-miterlimit="10"/>
<path d="M661.871 956.854C635.555 932.648 603.774 901.593 577.459 877.387C571.839 873.896 551.941 862.49 527.653 867.919C521.553 869.272 510.914 871.806 502.495 880.976C488.607 896.091 487.734 921.814 499.536 938.579C507.419 949.801 518.822 953.915 522.427 955.172C528.104 957.14 540.837 961.737 553.814 955.524C555.607 954.654 572.166 946.432 572.249 931.084C572.303 918.691 561.578 906.329 552.623 907.011C549.363 907.267 545.202 909.334 543.53 912.819C541.108 917.909 545.89 921.956 543.45 927.249C541.76 930.935 537.472 933.363 533.649 933.431C526.785 933.571 522.068 926.167 520.427 921.486C517.335 912.657 521.637 903.361 526.604 898.076C532.862 891.396 540.913 890.288 545.195 889.694C549.12 889.154 561.333 888.126 572.015 896.283C578.606 901.317 581.463 907.468 583.151 911.186C590.279 926.944 586.621 942.465 584.846 948.48C583.977 951.856 585.503 955.332 588.443 956.873C591.857 958.648 596.099 957.228 597.414 954.848C598.729 952.468 596.251 950.581 596.891 946.942C597.71 942.202 602.914 937.583 606.085 938.425C610.696 939.635 609.518 951.832 613.964 952.666C616.569 953.141 617.984 949.148 621.643 948.704C626.149 948.15 630.486 953.393 633.374 957.821C643.986 957.278 652.929 957.066 661.871 956.854Z" fill="#486B43" fill-opacity="0.1" stroke="#486B43" stroke-opacity="0.1" stroke-width="0.290722" stroke-miterlimit="10"/>
<path d="M661.917 956.315C637.836 984.174 609.521 1019.27 585.462 1047.11C580.151 1051.34 561.247 1065.46 536.287 1063.18C530.002 1062.61 519.043 1061.46 509.676 1053.32C494.215 1039.9 490.82 1014.08 501.06 995.645C507.917 983.308 518.949 977.659 522.456 975.918C527.972 973.183 540.344 966.9 554.018 971.457C555.92 972.096 573.376 978.22 574.956 993.666C576.239 1006.14 566.658 1020.01 557.581 1020.51C554.25 1020.68 549.886 1019.12 547.888 1015.84C544.947 1011.05 549.363 1006.33 546.421 1001.31C544.378 997.809 539.812 995.954 535.944 996.355C529.014 997.107 524.987 1005.2 523.792 1010.13C521.556 1019.42 526.788 1028.23 532.322 1032.92C539.291 1038.85 547.475 1038.9 551.835 1038.94C555.815 1038.97 568.246 1038.41 578.195 1028.78C584.508 1022.69 586.817 1015.79 587.949 1012.32C594.739 991.213 583.472 973.783 590.415 969.251C592.826 967.673 596.829 968.077 599.136 969.652C602.787 972.116 601.188 976.731 604.93 979.73C608.223 982.374 614.149 982.5 616.111 980.029C619.031 976.413 612.861 967.88 614.87 966.483C616.232 965.514 619.081 969.502 622.972 969.481C627.578 969.457 630.385 961.825 632.855 957.003C640.28 957.456 655.209 956.35 661.917 956.315Z" fill="#486B43" fill-opacity="0.1" stroke="#486B43" stroke-opacity="0.1" stroke-width="0.290722" stroke-miterlimit="10"/>
<path d="M676.93 973.08C650.972 1000.62 618.386 1031.38 592.428 1058.92C588.663 1064.8 576.334 1085.7 581.683 1111.4C583.039 1117.86 585.538 1129.12 595.053 1138.08C610.803 1152.86 637.915 1154.04 655.787 1141.73C667.753 1133.49 672.278 1121.52 673.651 1117.73C675.803 1111.77 680.84 1098.36 674.499 1084.6C673.608 1082.69 665.173 1065.16 649.011 1064.94C635.916 1064.76 622.706 1075.95 623.333 1085.42C623.56 1088.88 625.675 1093.28 629.336 1095.05C634.635 1097.65 639.011 1092.64 644.557 1095.26C648.42 1097.04 650.899 1101.61 650.921 1105.66C650.982 1112.91 643.068 1117.82 638.113 1119.52C628.754 1122.7 619.001 1118.06 613.5 1112.76C606.544 1106.09 605.501 1097.58 604.949 1093.08C604.454 1088.94 603.534 1076.04 612.313 1064.83C617.722 1057.92 624.268 1054.93 628.194 1053.22C644.932 1045.84 661.241 1049.84 667.571 1051.8C671.116 1052.77 674.822 1051.16 676.487 1048.08C678.404 1044.5 676.957 1039.99 674.494 1038.6C672.009 1037.19 669.991 1039.77 666.142 1039.08C661.167 1038.16 656.375 1032.65 657.315 1029.28C658.653 1024.42 671.518 1025.77 672.46 1021.1C673.018 1018.38 668.805 1016.83 668.386 1012.97C667.87 1008.2 673.183 1005.15 677.894 1002.13C678.391 993.502 678.381 983.097 676.93 973.08Z" fill="#486B43" fill-opacity="0.1" stroke="#486B43" stroke-opacity="0.1" stroke-width="0.290722" stroke-miterlimit="10"/>
<path d="M677.146 972.999C706.642 998.14 740.685 1028.17 770.136 1053.32C774.638 1058.86 789.594 1078.71 787.291 1105.06C786.706 1111.7 785.546 1123.27 776.993 1133.22C762.884 1149.68 735.67 1153.53 716.165 1142.91C703.108 1135.79 697.108 1124.22 695.262 1120.5C692.363 1114.72 685.667 1101.72 690.445 1087.25C691.117 1085.23 697.507 1066.76 713.78 1064.92C726.954 1063.44 741.626 1073.41 742.169 1083.01C742.352 1086.52 740.76 1091.14 737.274 1093.3C732.232 1096.44 727.225 1091.85 721.938 1095.02C718.251 1097.21 716.286 1102.05 716.757 1106.12C717.581 1113.43 726.132 1117.6 731.363 1118.8C741.194 1121.09 750.472 1115.45 755.379 1109.59C761.599 1102.18 761.624 1093.5 761.652 1088.93C761.668 1084.7 761.033 1071.63 750.843 1061.22C744.382 1054.62 737.098 1052.25 733.413 1051.1C711.122 1044.16 692.773 1056.24 687.966 1048.94C686.293 1046.38 686.713 1042.18 688.354 1039.73C690.955 1035.83 695.819 1037.47 698.955 1033.5C701.747 1030 701.831 1023.76 699.212 1021.7C695.376 1018.68 686.419 1025.23 684.919 1023.18C683.91 1021.76 688.104 1018.7 688.057 1014.58C688.008 1009.73 681.79 1005.75 676.715 1003.18C678.383 994.772 675.479 981.406 677.146 972.999Z" fill="#486B43" fill-opacity="0.1" stroke="#486B43" stroke-opacity="0.1" stroke-width="0.290722" stroke-miterlimit="10"/>
<path d="M672.652 945.263C697.249 919.181 730.152 881.79 754.727 855.731C758.301 850.142 769.972 830.321 764.914 806.023C763.637 799.893 761.27 789.237 752.241 780.769C737.322 766.761 711.622 765.651 694.691 777.315C683.359 785.108 679.06 796.473 677.77 800.078C675.721 805.746 670.973 818.425 676.977 831.478C677.821 833.305 685.822 849.911 701.133 850.121C713.535 850.3 726.047 839.668 725.481 830.693C725.26 827.412 723.265 823.254 719.808 821.544C714.759 819.085 710.643 823.821 705.392 821.347C701.732 819.622 699.397 815.32 699.337 811.496C699.288 804.606 706.764 799.973 711.476 798.349C720.347 795.321 729.578 799.733 734.8 804.736C741.387 811.055 742.37 819.12 742.915 823.397C743.403 827.317 744.256 839.549 735.949 850.164C730.819 856.726 724.625 859.523 720.898 861.156C705.043 868.15 689.59 864.343 683.577 862.501C680.236 861.592 676.706 863.106 675.147 866.027C673.313 869.427 674.685 873.696 677.034 875.021C679.382 876.347 681.292 873.883 684.962 874.579C689.689 875.438 694.226 880.668 693.325 883.855C692.046 888.466 679.854 887.182 678.971 891.6C678.453 894.192 682.416 895.638 682.829 899.315C683.315 903.84 676.905 907.562 672.458 910.43C671.824 918.978 672.429 938.558 672.652 945.263Z" fill="#486B43" fill-opacity="0.1" stroke="#486B43" stroke-opacity="0.1" stroke-width="0.290722" stroke-miterlimit="10"/>
<path d="M584.398 863.238C612.328 887.047 644.484 921.557 672.414 945.367L672.966 910.059C672.966 910.059 662.27 904.626 662.229 900.04C662.19 896.148 666.165 893.23 665.204 891.9C663.773 889.915 655.276 896.151 651.646 893.284C649.164 891.314 649.26 885.426 651.901 882.086C654.865 878.354 659.48 879.889 661.931 876.198C663.487 873.881 663.892 869.884 662.29 867.48C657.742 860.551 640.334 871.986 619.218 865.407C615.736 864.324 608.859 862.066 602.723 855.82C593.044 845.965 592.453 833.545 592.455 829.562L592.455 829.553C592.467 825.187 592.489 816.98 598.383 809.97C603.054 804.409 611.827 799.08 621.139 801.228C626.077 802.371 634.173 806.331 634.963 813.261C635.403 817.094 633.541 821.681 630.053 823.754C625.028 826.732 620.296 822.36 615.517 825.352C612.252 827.416 610.719 831.79 610.897 835.118C611.423 844.229 625.316 853.641 637.8 852.251C653.247 850.509 659.29 833.016 659.92 831.092C664.432 817.369 658.072 805.067 655.339 799.571C653.59 796.076 647.9 785.093 635.528 778.356C617.048 768.303 591.282 771.939 577.904 787.525C569.804 796.947 568.714 807.928 568.162 814.214C565.97 839.198 580.128 857.954 584.398 863.238Z" fill="#486B43" fill-opacity="0.1" stroke="#486B43" stroke-opacity="0.1" stroke-width="0.290722" stroke-miterlimit="10"/>
<ellipse cx="675.331" cy="958.592" rx="20.5269" ry="19.0021" transform="rotate(43.0184 675.331 958.592)" fill="#486B43" fill-opacity="0.1"/>
</g>
<g clip-path="url(#clip9_156_205)">
<path d="M243.663 854.388C262.874 886.841 286.12 925.647 305.332 958.101C309.933 963.334 326.607 980.893 352.768 982.811C359.369 983.284 370.898 983.977 382.168 977.27C400.8 966.212 409.495 940.495 402.662 919.941C398.085 906.201 387.836 898.577 384.571 896.216C379.451 892.51 367.967 883.988 352.947 886.322C350.838 886.646 331.629 889.937 326.881 905.399C323.048 917.913 330.107 933.658 339.38 935.702C342.775 936.428 347.581 935.595 350.32 932.592C354.308 928.193 350.725 922.637 354.773 918.023C357.573 914.804 362.674 913.658 366.543 914.77C373.544 916.722 376.049 925.646 376.285 930.883C376.724 940.723 369.55 948.814 362.911 952.645C354.553 957.486 346.08 956.15 341.581 955.467C337.467 954.821 324.774 952.137 316.457 940.661C311.323 933.587 310.312 926.466 309.73 922.223C307.315 904.139 315.736 889.572 319.396 884.016C321.293 880.874 320.807 876.867 318.304 874.437C315.398 871.619 310.671 871.755 308.631 873.745C306.591 875.734 308.497 878.393 306.747 881.924C304.482 886.472 297.821 889.555 294.851 887.716C290.55 885.07 295.46 873.109 291.24 870.926C288.766 869.641 286.113 873.248 282.281 872.587C277.563 871.774 274.791 865.142 273.189 859.807C262.288 858.358 255.82 856.577 243.663 854.388Z" fill="#486B43" fill-opacity="0.1" stroke="#486B43" stroke-opacity="0.1" stroke-width="0.290722" stroke-miterlimit="10"/>
<path d="M243.657 854.16C276.082 832.752 313.028 806.536 345.453 785.128C352.059 782.332 375.293 773.423 400.006 782.874C406.235 785.263 417.039 789.561 424.209 800.489C436.076 818.556 432.147 845.749 416.489 861.546C405.996 872.132 393.158 874.719 389.099 875.457C382.71 876.643 368.356 879.508 355.764 870.96C354.003 869.779 338.046 858.564 340.83 842.399C343.092 829.36 356.777 817.983 366.167 820.106C369.594 820.887 373.591 823.705 374.682 827.624C376.289 833.355 370.485 836.859 372.032 842.805C373.106 846.952 377.207 850.146 381.239 850.839C388.487 852.07 394.89 844.996 397.517 840.315C402.458 831.494 399.651 821.071 395.362 814.717C389.982 806.695 381.641 804.304 377.239 803.022C373.198 801.863 360.432 798.857 347.56 805.818C339.392 810.225 335.076 816.552 332.956 819.749C320.022 839.265 326.504 860.163 318.133 862.798C315.232 863.715 311.283 862.141 309.398 859.905C306.371 856.357 309.317 852.112 306.39 848.036C303.783 844.395 297.825 842.615 295.13 844.54C291.135 847.382 294.963 857.808 292.541 858.671C290.87 859.255 289.136 854.393 285.169 853.301C280.485 852.034 274.933 856.883 271.005 861.066C262.282 858.13 252.28 856.535 243.657 854.16Z" fill="#486B43" fill-opacity="0.1" stroke="#486B43" stroke-opacity="0.1" stroke-width="0.290722" stroke-miterlimit="10"/>
<path d="M219.003 842.745C201.164 811.757 180.168 772.595 162.33 741.608C158.016 736.592 142.459 719.74 117.66 717.63C111.436 717.09 100.527 716.314 89.7437 722.535C71.9603 732.786 63.4083 757.061 69.6342 776.595C73.7865 789.665 83.4294 797.012 86.4909 799.292C91.3159 802.874 102.082 811.08 116.326 809.048C118.298 808.756 136.56 805.882 141.245 791.267C145.017 779.461 138.496 764.45 129.749 762.413C126.562 761.679 121.972 762.402 119.331 765.224C115.494 769.354 118.84 774.649 114.925 778.966C112.207 781.975 107.387 783.004 103.72 781.922C97.1306 779.996 94.8529 771.517 94.6924 766.56C94.393 757.209 101.286 749.633 107.61 746.082C115.584 741.588 123.597 742.947 127.859 743.665C131.766 744.328 143.724 747.013 151.466 758C156.243 764.779 157.122 771.504 157.616 775.557C159.687 792.728 151.54 806.437 148.041 811.641C146.199 814.601 146.612 818.374 148.954 820.726C151.678 823.445 156.151 823.363 158.119 821.487C160.087 819.612 158.291 817.068 159.993 813.789C162.196 809.513 168.547 806.669 171.319 808.423C175.354 810.962 170.571 822.243 174.561 824.373C176.903 825.608 179.451 822.223 183.075 822.897C187.54 823.721 190.103 830.024 191.529 835.115C201.816 837.782 210.409 840.263 219.003 842.745Z" fill="#486B43" fill-opacity="0.1" stroke="#486B43" stroke-opacity="0.1" stroke-width="0.290722" stroke-miterlimit="10"/>
<path d="M219.209 842.244C187.877 861.593 150.335 886.572 119.032 905.906C112.695 908.35 90.4236 916.149 67.2995 906.48C61.4757 904.05 51.3665 899.665 44.8732 889.093C34.1536 871.646 38.6616 846.004 53.9633 831.489C64.2063 821.778 76.4254 819.7 80.2925 819.092C86.3754 818.138 100.063 815.857 111.738 824.308C113.361 825.488 128.175 836.569 125.047 851.777C122.528 864.059 109.226 874.417 100.418 872.165C97.1882 871.332 93.4949 868.529 92.5723 864.804C91.2052 859.349 96.8339 856.172 95.5334 850.504C94.6347 846.552 90.8356 843.413 87.0263 842.634C80.1901 841.272 73.919 847.786 71.3003 852.126C66.3789 860.32 68.7265 870.29 72.5986 876.425C77.465 884.177 85.258 886.677 89.4042 888.027C93.1938 889.244 105.219 892.443 117.598 886.247C125.449 882.328 129.722 876.439 131.844 873.466C144.655 855.373 139.137 835.366 147.12 833.126C149.893 832.344 153.591 833.931 155.319 836.126C158.062 839.571 155.152 843.495 157.821 847.478C160.169 850.989 165.784 852.887 168.397 851.119C172.268 848.546 168.943 838.554 171.279 837.824C172.868 837.309 174.39 841.968 178.107 843.116C182.509 844.475 187.477 838.037 191.28 834.179C198.227 836.839 212.799 840.265 219.209 842.244Z" fill="#486B43" fill-opacity="0.1" stroke="#486B43" stroke-opacity="0.1" stroke-width="0.290722" stroke-miterlimit="10"/>
<path d="M228.499 862.742C195.472 881.223 155.158 900.783 122.131 919.264C116.773 923.75 98.7415 939.983 96.1329 966.101C95.4864 972.673 94.4926 984.159 100.879 995.567C111.466 1014.4 136.977 1023.65 157.717 1017.28C171.604 1013.01 179.515 1002.94 181.962 999.74C185.804 994.698 194.632 983.421 192.712 968.395C192.436 966.301 189.651 947.048 174.301 941.985C161.862 937.886 145.902 944.6 143.66 953.817C142.838 957.186 143.535 962.017 146.496 964.804C150.769 968.881 156.448 965.411 160.952 969.575C164.101 972.437 165.095 977.535 163.902 981.405C161.785 988.337 152.76 990.652 147.523 990.787C137.641 991.011 129.73 983.659 126.075 976.947C121.44 968.503 122.999 960.072 123.823 955.613C124.594 951.511 127.588 938.929 139.327 930.867C146.56 925.901 153.701 925.015 157.959 924.564C176.141 922.544 190.498 931.253 195.947 935.027C199.037 937.015 203.055 936.591 205.569 934.152C208.472 931.31 208.446 926.571 206.514 924.508C204.566 922.417 201.867 924.272 198.402 922.459C193.932 920.091 191.015 913.396 192.922 910.466C195.656 906.232 207.524 911.38 209.822 907.211C211.174 904.777 207.619 902.035 208.377 898.231C209.316 893.526 215.302 892.206 220.699 890.747C223.764 882.661 226.877 872.733 228.499 862.742Z" fill="#486B43" fill-opacity="0.1" stroke="#486B43" stroke-opacity="0.1" stroke-width="0.290722" stroke-miterlimit="10"/>
<path d="M228.729 862.73C249.321 895.563 272.782 934.429 293.33 967.25C295.961 973.889 304.272 997.309 294.166 1021.76C291.614 1027.92 287.037 1038.6 275.892 1045.53C257.492 1057 230.379 1052.5 214.96 1036.52C204.64 1025.81 202.391 1012.97 201.745 1008.87C200.714 1002.49 198.23 988.071 207.13 975.701C208.375 973.98 220.014 958.281 236.088 961.41C249.099 963.95 260.105 977.86 257.741 987.183C256.863 990.583 253.958 994.514 249.984 995.53C244.233 997.008 240.833 991.131 234.839 992.565C230.665 993.549 227.339 997.573 226.564 1001.6C225.157 1008.83 232.063 1015.37 236.693 1018.08C245.385 1023.21 255.926 1020.62 262.366 1016.5C270.522 1011.3 273.152 1003.03 274.549 998.678C275.834 994.648 279.15 981.993 272.556 968.996C268.37 960.769 262.136 956.315 258.964 954.119C239.783 940.81 218.656 946.82 216.262 938.414C215.433 935.472 217.094 931.592 219.396 929.744C223.046 926.806 227.196 929.828 231.375 926.99C235.09 924.487 237.044 918.554 235.163 915.809C232.408 911.78 221.901 915.334 221.085 912.929C220.548 911.273 225.467 909.613 226.658 905.673C228.067 901.028 223.331 895.363 219.262 891.389C223.375 883.87 224.616 870.248 228.729 862.73Z" fill="#486B43" fill-opacity="0.1" stroke="#486B43" stroke-opacity="0.1" stroke-width="0.290722" stroke-miterlimit="10"/>
<path d="M232.765 834.923C264.056 817.424 306.663 791.631 337.926 774.148C343.012 769.889 360.094 754.484 362.561 729.789C363.183 723.558 364.122 712.683 358.051 701.895C348.023 684.056 323.841 675.284 304.19 681.33C291.042 685.363 283.53 694.914 281.218 697.965C277.562 702.757 269.228 713.428 271.038 727.681C271.294 729.677 273.944 747.919 288.486 752.713C300.262 756.606 315.389 750.219 317.542 741.488C318.316 738.291 317.661 733.727 314.876 731.058C310.798 727.197 305.45 730.479 301.184 726.544C298.211 723.8 297.274 718.996 298.364 715.33C300.385 708.742 308.907 706.566 313.889 706.431C323.26 706.206 330.741 713.184 334.222 719.524C338.608 727.528 337.126 735.516 336.362 739.759C335.651 743.646 332.794 755.57 321.685 763.203C314.822 767.923 308.074 768.732 304.028 769.171C286.805 771.084 273.207 762.816 268.024 759.254C265.109 757.384 261.288 757.77 258.924 760.088C256.155 762.781 256.182 767.265 258.025 769.234C259.868 771.203 262.429 769.426 265.721 771.191C269.972 773.429 272.73 779.779 270.914 782.549C268.31 786.564 257.066 781.681 254.898 785.63C253.626 787.947 256.973 790.515 256.263 794.147C255.368 798.609 248.137 800.236 243.034 801.637C239.864 809.601 234.565 828.46 232.765 834.923Z" fill="#486B43" fill-opacity="0.1" stroke="#486B43" stroke-opacity="0.1" stroke-width="0.290722" stroke-miterlimit="10"/>
<path d="M173.195 730.194C192.693 761.287 213.01 803.857 232.507 834.95L243.63 801.436C243.63 801.436 235.057 793.043 236.394 788.657C237.525 784.932 242.192 783.342 241.675 781.784C240.905 779.462 230.929 782.86 228.326 779.035C226.55 776.412 228.408 770.824 231.93 768.43C235.877 765.76 239.819 768.609 243.265 765.823C245.445 764.081 247.03 760.389 246.224 757.616C243.965 749.641 223.927 755.324 205.759 742.712C202.763 740.634 196.881 736.416 192.902 728.617C186.626 716.311 189.789 704.286 190.987 700.487L190.989 700.479C192.311 696.318 194.795 688.496 202.521 683.578C208.645 679.674 218.613 677.224 226.851 682.068C231.219 684.64 237.754 690.847 236.427 697.695C235.697 701.483 232.544 705.3 228.594 706.23C222.907 707.563 219.706 701.973 214.25 703.393C210.515 704.382 207.74 708.094 206.911 711.322C204.679 720.17 215.107 733.318 227.432 735.739C242.691 738.713 253.705 723.84 254.883 722.193C263.305 710.457 260.93 696.813 259.973 690.751C259.353 686.892 257.222 674.707 247.441 664.568C232.83 649.433 207.16 645.169 189.722 656.022C179.167 662.578 174.832 672.727 172.419 678.556C162.83 701.731 170.708 723.872 173.195 730.194Z" fill="#486B43" fill-opacity="0.1" stroke="#486B43" stroke-opacity="0.1" stroke-width="0.290722" stroke-miterlimit="10"/>
<ellipse cx="231.321" cy="848.442" rx="20.5269" ry="19.0021" transform="rotate(60.4819 231.321 848.442)" fill="#486B43" fill-opacity="0.1"/>
</g>
</g>
<defs>
<clipPath id="clip0_156_205">
<rect width="1280" height="1753" fill="white"/>
</clipPath>
<clipPath id="clip1_156_205">
<rect width="387.611" height="387.611" fill="white" transform="translate(224.441 -26) rotate(43.0184)"/>
</clipPath>
<clipPath id="clip2_156_205">
<rect width="387.611" height="387.611" fill="white" transform="translate(557.441 250) rotate(43.0184)"/>
</clipPath>
<clipPath id="clip3_156_205">
<rect width="387.611" height="387.611" fill="white" transform="translate(858.441 -37) rotate(43.0184)"/>
</clipPath>
<clipPath id="clip4_156_205">
<rect width="387.611" height="387.611" fill="white" transform="translate(810.768 441) rotate(10.6701)"/>
</clipPath>
<clipPath id="clip5_156_205">
<rect width="387.611" height="387.611" fill="white" transform="translate(788.117 1294.42) rotate(54.2801)"/>
</clipPath>
<clipPath id="clip6_156_205">
<rect width="387.611" height="387.611" fill="white" transform="translate(231.608 1102.8) rotate(27.3042)"/>
</clipPath>
<clipPath id="clip7_156_205">
<rect width="387.611" height="387.611" fill="white" transform="translate(1096.77 975) rotate(63.134)"/>
</clipPath>
<clipPath id="clip8_156_205">
<rect width="387.611" height="387.611" fill="white" transform="translate(667.441 687) rotate(43.0184)"/>
</clipPath>
<clipPath id="clip9_156_205">
<rect width="387.611" height="387.611" fill="white" transform="translate(305.299 587) rotate(60.4819)"/>
</clipPath>
</defs>
</svg>
