<svg width="320" height="70" viewBox="0 0 320 70" fill="none" xmlns="http://www.w3.org/2000/svg">
<g clip-path="url(#clip0_34_2)">
<path d="M34.7172 35.2037C38.1298 38.2673 42.2421 41.9207 45.6547 44.9843C46.3791 45.4238 48.9527 46.8536 52.0522 46.1269C52.8337 45.9422 54.1941 45.6045 55.2535 44.4185C57.0062 42.4613 57.0715 39.166 55.5278 37.0322C54.4949 35.6062 53.029 35.0945 52.5644 34.9394C51.836 34.6956 50.1941 34.1248 48.5405 34.94C48.3081 35.054 46.2043 36.1321 46.2207 38.096C46.2349 39.685 47.6286 41.2534 48.7772 41.1539C49.197 41.1149 49.7229 40.844 49.9302 40.3967C50.2309 39.7423 49.6127 39.2285 49.9124 38.547C50.1188 38.0725 50.6675 37.7547 51.1562 37.7432C52.0383 37.7154 52.6551 38.6586 52.8741 39.2569C53.2852 40.3811 52.7507 41.5788 52.1223 42.2635C51.3316 43.1277 50.3017 43.2802 49.7558 43.3643C49.2557 43.4387 47.6877 43.588 46.3045 42.5599C45.4511 41.9265 45.0734 41.138 44.8506 40.6675C43.9089 38.6596 44.3508 36.6663 44.5712 35.8898C44.6757 35.4569 44.4728 35.0101 44.094 34.8195C43.6543 34.5983 43.1119 34.7855 42.9486 35.09C42.7852 35.3946 43.1032 35.6335 43.0299 36.1061C42.9342 36.7153 42.2756 37.3141 41.8644 37.2088C41.2696 37.0582 41.4003 35.4941 40.8317 35.3942C40.4981 35.3351 40.323 35.8493 39.8551 35.9117C39.2791 35.9887 38.7153 35.3207 38.3345 34.7606C37.0192 34.9882 36.205 35.0163 34.7172 35.2037Z" fill="#486B43" stroke="#486B43" stroke-width="0.384018" stroke-miterlimit="10"/>
<path d="M34.7078 34.9324C37.6787 31.2757 40.9969 26.8978 43.9678 23.2411C44.6303 22.6775 46.9944 20.8025 50.202 21.0012C51.0107 21.0521 52.4191 21.1582 53.6494 22.1644C55.6849 23.8275 56.2255 27.1208 54.9907 29.5192C54.1633 31.1265 52.7714 31.8919 52.3285 32.1246C51.6321 32.4938 50.0748 33.3465 48.3039 32.8127C48.0568 32.7397 45.7985 32.0191 45.5291 30.0449C45.3137 28.4521 46.4817 26.6374 47.6468 26.5428C48.0722 26.509 48.6382 26.6905 48.9079 27.105C49.3038 27.7108 48.76 28.3274 49.1569 28.9603C49.433 29.4018 50.0248 29.6231 50.517 29.5572C51.4013 29.4369 51.8839 28.385 52.0167 27.7474C52.2659 26.546 51.5592 25.4401 50.83 24.8595C49.9134 24.125 48.86 24.1505 48.3034 24.1616C47.793 24.1739 46.2048 24.2886 44.9692 25.5622C44.1847 26.3691 43.9166 27.2587 43.7881 27.706C43.0049 30.4366 44.5206 32.623 43.6478 33.2319C43.3454 33.4434 42.8305 33.4042 42.5304 33.2135C42.05 32.9122 42.2357 32.3135 41.7476 31.9473C41.3124 31.62 40.5574 31.6298 40.3158 31.9506C39.9573 32.4249 40.7822 33.4941 40.5333 33.682C40.3612 33.8102 39.9825 33.3098 39.4831 33.3271C38.8943 33.3502 38.429 34.1135 38.1273 34.7407C37.0098 34.7169 35.7933 34.8948 34.7078 34.9324Z" fill="#486B43" stroke="#486B43" stroke-width="0.384018" stroke-miterlimit="10"/>
<path d="M31.435 34.412C28.2351 31.4684 24.3702 27.6923 21.1702 24.7487C20.4872 24.3239 18.0688 22.9355 15.1201 23.5906C14.3795 23.7538 13.0881 24.0596 12.0671 25.1715C10.3832 27.0043 10.2817 30.1274 11.7177 32.1651C12.677 33.5289 14.0625 34.0304 14.5005 34.1836C15.1903 34.4235 16.7374 34.9839 18.3123 34.2318C18.5299 34.1264 20.5394 33.131 20.5468 31.2676C20.5513 29.7628 19.2467 28.26 18.1593 28.3413C17.7635 28.3718 17.2584 28.6221 17.056 29.0449C16.7628 29.6625 17.3442 30.1547 17.0488 30.7969C16.8442 31.2442 16.3238 31.5382 15.8596 31.5459C15.0261 31.5617 14.4519 30.6619 14.2519 30.0933C13.8749 29.0207 14.3957 27.8927 14.998 27.2519C15.7567 26.4419 16.7343 26.3088 17.2542 26.2374C17.7308 26.1725 19.2137 26.0498 20.5124 27.0421C21.3137 27.6544 21.6617 28.4018 21.8673 28.8535C22.7357 30.768 22.2942 32.6519 22.0796 33.3819C21.9746 33.7917 22.1606 34.2139 22.5179 34.4015C22.9328 34.6177 23.4478 34.446 23.607 34.1573C23.7662 33.8685 23.4651 33.6389 23.5422 33.1972C23.6407 32.6219 24.2719 32.0619 24.6572 32.1647C25.2173 32.3125 25.0764 33.7932 25.6165 33.8952C25.9329 33.9534 26.104 33.4688 26.5483 33.4154C27.0955 33.3489 27.623 33.9863 27.9745 34.5244C29.2632 34.4604 30.3491 34.4362 31.435 34.412Z" fill="#486B43" stroke="#486B43" stroke-width="0.384018" stroke-miterlimit="10"/>
<path d="M31.4411 34.6835C28.5215 38.0619 25.0889 42.3181 22.172 45.6938C21.5278 46.2068 19.2344 47.9183 16.2029 47.6368C15.4396 47.5664 14.1085 47.4249 12.9696 46.4355C11.0896 44.8027 10.6728 41.6679 11.9133 39.431C12.7438 37.9343 14.0826 37.2503 14.5081 37.0395C15.1776 36.7084 16.679 35.9477 18.3403 36.5033C18.5714 36.5812 20.6923 37.3279 20.8869 39.2035C21.0449 40.7181 19.8837 42.4007 18.7815 42.4593C18.377 42.4799 17.8467 42.2891 17.6035 41.8909C17.2455 41.3085 17.781 40.7362 17.4229 40.1266C17.1741 39.7012 16.6193 39.4753 16.1497 39.5232C15.3083 39.6134 14.8206 40.5956 14.6763 41.1935C14.4064 42.3215 15.0432 43.3916 15.7162 43.962C16.5635 44.6837 17.5573 44.6907 18.0869 44.6968C18.5702 44.7004 20.0798 44.6348 21.2863 43.4679C22.0519 42.729 22.3311 41.8916 22.468 41.4702C23.289 38.9091 21.9176 36.7909 22.76 36.2418C23.0525 36.0506 23.5388 36.1003 23.8192 36.292C24.263 36.5917 24.0696 37.1519 24.5245 37.5167C24.9249 37.8383 25.6446 37.8545 25.8824 37.5549C26.2364 37.1163 25.4856 36.0792 25.7294 35.9099C25.8946 35.7925 26.2413 36.2772 26.7138 36.2754C27.2732 36.2732 27.6127 35.347 27.9119 34.7621C28.8136 34.8183 30.6264 34.6866 31.4411 34.6835Z" fill="#486B43" stroke="#486B43" stroke-width="0.384018" stroke-miterlimit="10"/>
<path d="M33.2668 36.4766C30.1192 39.8161 26.1672 43.5447 23.0196 46.8842C22.5633 47.5983 21.0697 50.1333 21.7238 53.2543C21.8896 54.0392 22.195 55.4062 23.3521 56.4965C25.2674 58.2941 28.5601 58.441 30.7283 56.9504C32.18 55.9519 32.7274 54.4984 32.8936 54.0389C33.1538 53.3153 33.7632 51.6884 32.9908 50.017C32.8822 49.7844 31.8549 47.6544 29.8921 47.6245C28.3018 47.6008 26.6995 48.9577 26.7773 50.107C26.8055 50.5272 27.063 51.0617 27.5079 51.2772C28.152 51.5946 28.6825 50.9866 29.3565 51.3056C29.8259 51.5231 30.1277 52.0778 30.1311 52.5694C30.1398 53.4495 29.1796 54.0451 28.5781 54.2507C27.4421 54.6351 26.2569 54.0702 25.5879 53.4249C24.7421 52.6146 24.6139 51.5811 24.5461 51.0346C24.4852 50.5314 24.3713 48.9649 25.4355 47.6048C26.0912 46.767 26.8856 46.4054 27.3621 46.1987C29.3934 45.3051 31.3748 45.7936 32.1438 46.0332C32.5745 46.1515 33.0242 45.9566 33.2259 45.5828C33.4581 45.1482 33.2816 44.6 32.9823 44.4311C32.6802 44.2595 32.4356 44.5722 31.9681 44.4879C31.3637 44.3757 30.7809 43.7057 30.8944 43.2969C31.056 42.7072 32.6187 42.8732 32.7322 42.3068C32.7995 41.9757 32.2876 41.787 32.2361 41.3187C32.1726 40.7394 32.8173 40.3694 33.3889 40.0045C33.4477 38.9564 33.4447 37.6931 33.2668 36.4766Z" fill="#486B43" stroke="#486B43" stroke-width="0.384018" stroke-miterlimit="10"/>
<path d="M33.5382 36.4672C37.1245 39.5247 41.264 43.1772 44.8449 46.235C45.3926 46.9089 47.2122 49.3212 46.9371 52.5205C46.8672 53.3272 46.7283 54.7312 45.6914 55.9382C43.9808 57.9346 40.6766 58.3967 38.306 57.1039C36.7192 56.2377 35.9886 54.8311 35.7637 54.3797C35.4107 53.6774 34.5952 52.0971 35.173 50.3409C35.2542 50.0963 36.0271 47.8551 38.0029 47.6346C39.6025 47.457 41.3861 48.6696 41.4536 49.8356C41.4765 50.2614 41.284 50.8223 40.861 51.0842C40.2492 51.464 39.6403 50.9063 38.9988 51.2899C38.5515 51.5554 38.3137 52.1423 38.3716 52.6375C38.4729 53.5252 39.5121 54.0327 40.1475 54.1791C41.3418 54.4584 42.4675 53.7755 43.0624 53.0648C43.8166 52.1666 43.8181 51.1123 43.8207 50.5579C43.8219 50.0444 43.7426 48.4576 42.5032 47.1909C41.7175 46.3894 40.8325 46.0994 40.3848 45.96C37.6765 45.1136 35.4503 46.5764 34.8653 45.6891C34.6616 45.3783 34.7119 44.8684 34.9108 44.5708C35.226 44.098 35.817 44.2976 36.1971 43.8172C36.5356 43.3925 36.5447 42.6341 36.2263 42.3843C35.7599 42.0173 34.6733 42.8102 34.4908 42.5612C34.368 42.3888 34.8768 42.018 34.8704 41.5183C34.8636 40.9289 34.1078 40.4442 33.4911 40.1314C33.6922 39.111 33.3371 37.4876 33.5382 36.4672Z" fill="#486B43" stroke="#486B43" stroke-width="0.384018" stroke-miterlimit="10"/>
<path d="M32.7424 33.0984C35.7249 29.9358 39.7143 25.4016 42.6942 22.2418C43.1272 21.5638 44.5411 19.1592 43.9228 16.2082C43.7666 15.4637 43.4773 14.1695 42.3793 13.1397C40.5651 11.4364 37.4439 11.2971 35.3898 12.7104C34.015 13.6546 33.4949 15.0339 33.3388 15.4713C33.0909 16.1591 32.5165 17.6978 33.2479 19.2837C33.3507 19.5057 34.3253 21.5233 36.1847 21.5514C37.6908 21.5753 39.2085 20.2866 39.1382 19.1967C39.1108 18.7983 38.8678 18.2932 38.4476 18.0849C37.8341 17.7855 37.335 18.3598 36.697 18.0585C36.2522 17.8484 35.9679 17.3257 35.96 16.8614C35.9528 16.0248 36.8599 15.4636 37.4318 15.2672C38.5087 14.9011 39.6304 15.4383 40.2655 16.0467C41.0664 16.8151 41.1872 17.7945 41.2541 18.3139C41.3141 18.79 41.4198 20.2753 40.4128 21.5627C39.791 22.3585 39.0392 22.697 38.5869 22.8947C36.6626 23.7411 34.7854 23.2762 34.0549 23.0515C33.6489 22.9406 33.2205 23.1238 33.0317 23.4782C32.8096 23.8907 32.977 24.4093 33.2624 24.5706C33.5478 24.7319 33.7793 24.4331 34.2252 24.5183C34.7994 24.6234 35.3512 25.2591 35.2423 25.646C35.0878 26.2056 33.607 26.0476 33.5005 26.5838C33.4381 26.8984 33.9196 27.0747 33.9704 27.5212C34.0302 28.0707 33.2524 28.5215 32.7129 28.8689C32.6374 29.9067 32.7142 32.2842 32.7424 33.0984Z" fill="#486B43" stroke="#486B43" stroke-width="0.384018" stroke-miterlimit="10"/>
<path d="M21.7655 23.1236C25.1614 26.0193 29.0724 30.2149 32.4684 33.1106L32.5293 28.8237C32.5293 28.8237 31.2294 28.1623 31.2237 27.6055C31.2182 27.1329 31.7005 26.7793 31.5835 26.6176C31.4094 26.3764 30.3786 27.1321 29.9373 26.7833C29.6355 26.5437 29.6461 25.8288 29.9663 25.4237C30.3256 24.9711 30.8863 25.1582 31.1833 24.7105C31.3719 24.4296 31.4204 23.9443 31.2255 23.6521C30.672 22.81 28.5598 24.1954 25.9944 23.393C25.5714 23.2609 24.7359 22.9855 23.9896 22.2261C22.8124 21.0278 22.7385 19.5197 22.738 19.0361L22.738 19.035C22.7387 18.5049 22.74 17.5085 23.4546 16.6583C24.0208 15.9839 25.0853 15.3385 26.2165 15.6009C26.8164 15.7405 27.8004 16.2227 27.8974 17.0643C27.9516 17.5298 27.7263 18.0864 27.303 18.3375C26.6932 18.6982 26.1178 18.1665 25.5381 18.5289C25.1419 18.779 24.9565 19.3098 24.9786 19.7139C25.044 20.8202 26.7329 21.9654 28.2487 21.7989C30.1244 21.59 30.8552 19.4671 30.9313 19.2335C31.4769 17.5681 30.7024 16.0734 30.3696 15.4056C30.1565 14.981 29.4637 13.6464 27.96 12.8263C25.7141 11.6025 22.5856 12.0395 20.9637 13.9297C19.9817 15.0722 19.8512 16.4053 19.7852 17.1684C19.5233 20.2015 21.246 22.4813 21.7655 23.1236Z" fill="#486B43" stroke="#486B43" stroke-width="0.384018" stroke-miterlimit="10"/>
<ellipse cx="33.0701" cy="34.7173" rx="2.49612" ry="2.30411" transform="rotate(43.0184 33.0701 34.7173)" fill="#486B43"/>
</g>
<path d="M73.0866 42.852C73.0866 43.684 73.2039 44.2707 73.4386 44.612C73.6732 44.932 74.1426 45.1987 74.8466 45.412L75.4226 45.572L75.1666 46.5H68.0306L67.6786 45.508L68.3826 45.348C69.1292 45.1133 69.6199 44.836 69.8546 44.516C70.0892 44.1747 70.2066 43.556 70.2066 42.66V29.54C70.2066 28.644 70.0786 28.0253 69.8226 27.684C69.5879 27.3213 69.1079 27.044 68.3826 26.852L67.6786 26.692L68.0306 25.7H74.3986L74.7826 26.148L74.3986 26.692C73.9079 27.3107 73.5666 27.9827 73.3746 28.708C73.1826 29.412 73.0866 30.34 73.0866 31.492V42.852ZM86.0786 45.764C85.3319 46.532 84.4039 46.916 83.2946 46.916C82.4199 46.916 81.6732 46.6813 81.0546 46.212C80.4572 45.7427 79.9132 45.028 79.4226 44.068L76.7986 38.788C76.5212 38.1907 76.1372 37.7213 75.6466 37.38C75.1772 37.0173 74.5906 36.7187 73.8866 36.484C73.8226 36.4413 73.7906 36.3347 73.7906 36.164C73.7906 35.6947 73.9826 35.46 74.3666 35.46H75.0386L79.7746 29.444C80.1372 28.9533 80.3186 28.4307 80.3186 27.876C80.3186 27.3853 80.1799 26.9693 79.9026 26.628L79.5826 26.148L80.1266 25.7H85.0866L85.4386 26.692L84.7346 26.852C84.3079 26.9587 83.9132 27.1293 83.5506 27.364C83.2092 27.5987 82.8572 27.9507 82.4946 28.42L76.6066 35.908C77.5452 36.0573 78.3239 36.388 78.9426 36.9C79.5612 37.3907 80.1159 38.116 80.6066 39.076L83.3586 44.452C83.5079 44.7507 83.6679 44.9747 83.8386 45.124C84.0306 45.252 84.2546 45.316 84.5106 45.316C84.8946 45.316 85.2679 45.1773 85.6306 44.9L86.0786 45.764ZM87.6533 45.604L88.2613 45.412C88.9226 45.22 89.36 44.964 89.5733 44.644C89.808 44.324 89.9253 43.7693 89.9253 42.98V35.62C89.9253 34.8307 89.808 34.276 89.5733 33.956C89.3386 33.6147 88.9013 33.348 88.2613 33.156L87.6533 32.964L87.9733 32.1H93.7653L94.1173 32.484L93.7653 32.964C93.3173 33.5613 92.9973 34.1907 92.8053 34.852C92.6346 35.5133 92.5493 36.388 92.5493 37.476V41.124C92.5493 42.2973 92.72 43.1827 93.0613 43.78C93.4026 44.356 93.7973 44.7187 94.2453 44.868C94.7146 45.0173 95.2586 45.092 95.8773 45.092C96.7306 45.092 97.4346 44.8147 97.9893 44.26C98.544 43.7053 98.8213 42.9907 98.8213 42.116C98.8213 41.3267 98.512 40.6547 97.8933 40.1C97.2746 39.5453 96.4853 39.268 95.5253 39.268C94.9706 39.268 94.5226 39.3213 94.1813 39.428C93.8613 39.5133 93.6586 39.556 93.5733 39.556C93.488 39.556 93.4133 39.5027 93.3493 39.396C93.2853 39.268 93.2533 39.14 93.2533 39.012C93.2533 38.6493 93.5306 38.3827 94.0853 38.212C94.64 38.0413 95.2906 37.956 96.0373 37.956C97.232 37.956 98.2666 38.148 99.1413 38.532C100.016 38.916 100.677 39.4387 101.125 40.1C101.573 40.74 101.797 41.444 101.797 42.212C101.797 43.5347 101.275 44.58 100.229 45.348C99.2053 46.116 97.5946 46.5 95.3973 46.5H87.9733L87.6533 45.604ZM102.629 45.604L103.237 45.412C103.92 45.22 104.368 44.9747 104.581 44.676C104.816 44.356 104.933 43.7907 104.933 42.98V35.62C104.933 34.8093 104.816 34.244 104.581 33.924C104.368 33.604 103.92 33.348 103.237 33.156L102.629 32.964L102.917 32.1H108.773L109.093 32.484L108.773 32.964C108.325 33.54 108.005 34.1587 107.813 34.82C107.643 35.4813 107.557 36.3667 107.557 37.476V43.172C107.557 43.94 107.664 44.4733 107.877 44.772C108.091 45.0493 108.517 45.284 109.157 45.476L109.701 45.636L109.445 46.5H102.917L102.629 45.604ZM112.691 53.796L113.011 53.316C113.374 52.8253 113.63 52.3027 113.779 51.748C113.929 51.2147 114.003 50.4893 114.003 49.572V35.46C114.003 35.1827 113.961 34.9693 113.875 34.82C113.79 34.6707 113.63 34.564 113.395 34.5L111.891 34.148V33.252C112.19 32.9747 112.766 32.708 113.619 32.452C114.473 32.196 115.219 32.068 115.859 32.068C116.35 32.068 116.595 32.516 116.595 33.412V33.54C117.833 32.3453 119.23 31.748 120.787 31.748C121.961 31.748 123.017 32.0467 123.955 32.644C124.894 33.2413 125.619 34.0733 126.131 35.14C126.665 36.1853 126.931 37.3907 126.931 38.756C126.931 40.292 126.654 41.6893 126.099 42.948C125.545 44.1853 124.777 45.156 123.795 45.86C122.835 46.564 121.758 46.916 120.563 46.916C119.411 46.916 118.451 46.6493 117.683 46.116C117.491 46.0093 117.395 45.8387 117.395 45.604C117.395 45.3907 117.427 45.22 117.491 45.092C117.577 44.9427 117.694 44.868 117.843 44.868C117.907 44.868 118.11 44.9533 118.451 45.124C118.814 45.2733 119.283 45.348 119.859 45.348C121.054 45.348 122.014 44.7827 122.739 43.652C123.486 42.5213 123.859 41.0707 123.859 39.3C123.859 37.636 123.486 36.2813 122.739 35.236C122.014 34.1693 121.043 33.636 119.827 33.636C119.187 33.636 118.611 33.7213 118.099 33.892C117.587 34.0627 117.086 34.3507 116.595 34.756V51.012C116.595 51.7587 116.67 52.2813 116.819 52.58C116.99 52.8787 117.321 53.0813 117.811 53.188L118.387 53.316L118.131 54.18H113.011L112.691 53.796ZM129.653 46.052L129.973 45.604C130.421 45.0067 130.731 44.42 130.901 43.844C131.093 43.268 131.189 42.4573 131.189 41.412V37.636C131.189 36.5693 131.093 35.7053 130.901 35.044C130.731 34.3613 130.421 33.732 129.973 33.156L129.653 32.644L129.973 32.26H137.077C137.888 32.26 138.528 32.2173 138.997 32.132C139.488 32.0467 139.872 31.908 140.149 31.716L140.597 31.332L141.013 31.716V36.484L140.149 36.74L139.925 36.164C139.776 35.4813 139.595 34.98 139.381 34.66C139.189 34.34 138.912 34.116 138.549 33.988C138.208 33.86 137.707 33.796 137.045 33.796H135.509C134.805 33.796 134.336 33.924 134.101 34.18C133.888 34.4147 133.781 34.948 133.781 35.78V42.98C133.781 43.7907 133.888 44.356 134.101 44.676C134.336 44.9747 134.805 45.22 135.509 45.412L136.085 45.604L135.765 46.5H129.973L129.653 46.052ZM143.06 45.604L143.668 45.412C144.329 45.22 144.766 44.964 144.98 44.644C145.214 44.324 145.332 43.7693 145.332 42.98V35.62C145.332 34.8307 145.214 34.276 144.98 33.956C144.745 33.6147 144.308 33.348 143.668 33.156L143.06 32.964L143.38 32.1H149.172L149.524 32.484L149.172 32.964C148.724 33.5613 148.404 34.1907 148.212 34.852C148.041 35.5133 147.956 36.388 147.956 37.476V41.124C147.956 42.2973 148.126 43.1827 148.468 43.78C148.809 44.356 149.204 44.7187 149.652 44.868C150.121 45.0173 150.665 45.092 151.284 45.092C152.137 45.092 152.841 44.8147 153.396 44.26C153.95 43.7053 154.228 42.9907 154.228 42.116C154.228 41.3267 153.918 40.6547 153.3 40.1C152.681 39.5453 151.892 39.268 150.932 39.268C150.377 39.268 149.929 39.3213 149.588 39.428C149.268 39.5133 149.065 39.556 148.98 39.556C148.894 39.556 148.82 39.5027 148.756 39.396C148.692 39.268 148.66 39.14 148.66 39.012C148.66 38.6493 148.937 38.3827 149.492 38.212C150.046 38.0413 150.697 37.956 151.444 37.956C152.638 37.956 153.673 38.148 154.548 38.532C155.422 38.916 156.084 39.4387 156.532 40.1C156.98 40.74 157.204 41.444 157.204 42.212C157.204 43.5347 156.681 44.58 155.636 45.348C154.612 46.116 153.001 46.5 150.804 46.5H143.38L143.06 45.604ZM158.036 45.604L158.644 45.412C159.326 45.22 159.774 44.9747 159.988 44.676C160.222 44.356 160.34 43.7907 160.34 42.98V35.62C160.34 34.8093 160.222 34.244 159.988 33.924C159.774 33.604 159.326 33.348 158.644 33.156L158.036 32.964L158.324 32.1H164.18L164.5 32.484L164.18 32.964C163.732 33.54 163.412 34.1587 163.22 34.82C163.049 35.4813 162.964 36.3667 162.964 37.476V43.172C162.964 43.94 163.07 44.4733 163.284 44.772C163.497 45.0493 163.924 45.284 164.564 45.476L165.108 45.636L164.852 46.5H158.324L158.036 45.604ZM173.57 46.916C172.012 46.916 170.69 46.596 169.602 45.956C168.535 45.316 168.002 44.42 168.002 43.268C168.002 42.6707 168.204 42.18 168.61 41.796C169.015 41.3907 169.527 41.188 170.146 41.188C170.316 41.188 170.466 41.22 170.594 41.284C170.722 41.3267 170.786 41.4013 170.786 41.508C170.786 41.5933 170.732 41.7853 170.626 42.084C170.54 42.3827 170.498 42.7453 170.498 43.172C170.498 43.8547 170.775 44.388 171.33 44.772C171.884 45.156 172.631 45.348 173.57 45.348C174.7 45.348 175.543 45.1133 176.098 44.644C176.674 44.1533 176.962 43.3747 176.962 42.308C176.962 41.4333 176.61 40.7613 175.906 40.292C175.223 39.8013 174.295 39.5347 173.122 39.492H172.834C172.428 39.492 172.226 39.332 172.226 39.012C172.226 38.7773 172.332 38.6067 172.546 38.5C172.78 38.3933 173.175 38.2867 173.73 38.18C174.839 38.0093 175.607 37.7107 176.034 37.284C176.46 36.836 176.674 36.228 176.674 35.46C176.674 34.8413 176.418 34.3293 175.906 33.924C175.394 33.4973 174.658 33.284 173.698 33.284C171.756 33.284 170.487 34.276 169.89 36.26L169.73 36.836L168.866 36.548V31.812L169.25 31.428L169.73 31.812C170.007 32.004 170.348 32.1 170.754 32.1C170.903 32.1 171.234 32.0573 171.746 31.972C172.599 31.8227 173.26 31.748 173.73 31.748C175.586 31.748 176.962 32.0573 177.858 32.676C178.754 33.2733 179.202 34.1267 179.202 35.236C179.202 36.9853 178.231 38.148 176.29 38.724C177.484 39.0653 178.359 39.588 178.914 40.292C179.49 40.9747 179.778 41.732 179.778 42.564C179.778 43.3107 179.543 44.0147 179.074 44.676C178.604 45.3373 177.9 45.8813 176.962 46.308C176.023 46.7133 174.892 46.916 173.57 46.916ZM195.033 46.052L195.385 45.604C195.833 45.028 196.142 44.4093 196.313 43.748C196.483 43.0867 196.569 42.212 196.569 41.124V35.78C196.569 34.9693 196.505 34.436 196.377 34.18C196.27 33.924 196.025 33.796 195.641 33.796H195.353C194.691 33.796 194.179 33.86 193.817 33.988C193.475 34.116 193.198 34.34 192.985 34.66C192.793 34.98 192.611 35.4813 192.441 36.164L192.249 36.74L191.353 36.484V31.716L191.801 31.332L192.249 31.716C192.505 31.908 192.878 32.0467 193.369 32.132C193.859 32.2173 194.51 32.26 195.321 32.26H200.473C201.283 32.26 201.923 32.2173 202.393 32.132C202.862 32.0467 203.225 31.908 203.481 31.716L203.929 31.332L204.409 31.716V36.484L203.481 36.74L203.353 36.164C203.161 35.4813 202.958 34.98 202.745 34.66C202.553 34.34 202.286 34.116 201.945 33.988C201.603 33.86 201.113 33.796 200.473 33.796H200.089C199.726 33.796 199.481 33.924 199.353 34.18C199.246 34.436 199.193 34.9693 199.193 35.78V42.98C199.193 43.7907 199.299 44.356 199.513 44.676C199.726 44.9747 200.174 45.22 200.857 45.412L201.529 45.604L201.177 46.5H195.385L195.033 46.052ZM213.956 51.012C213.956 51.7587 214.031 52.2813 214.18 52.58C214.351 52.8787 214.681 53.0813 215.172 53.188L215.78 53.316L215.492 54.18H210.404L210.052 53.796L210.404 53.316C210.767 52.804 211.012 52.2707 211.14 51.716C211.289 51.1827 211.364 50.468 211.364 49.572V47.812C211.364 46.5747 210.937 44.58 210.084 41.828C209.231 39.0547 208.431 36.74 207.684 34.884C207.577 34.6067 207.481 34.4253 207.396 34.34C207.332 34.2333 207.236 34.18 207.108 34.18H205.86L205.604 33.476C206.116 32.9853 206.713 32.58 207.396 32.26C208.1 31.9187 208.719 31.748 209.252 31.748C209.7 31.748 210.009 32.036 210.18 32.612L213.476 44.676C214.287 43.8867 215.012 42.8413 215.652 41.54C216.313 40.2173 216.644 39.0333 216.644 37.988C216.644 35.8973 216.239 34.212 215.428 32.932L215.172 32.484L215.492 32.132L218.98 31.748C219.065 33.1133 219.108 34.1373 219.108 34.82C219.108 36.1213 218.884 37.5293 218.436 39.044C217.988 40.5373 217.369 41.9667 216.58 43.332C215.791 44.6973 214.916 45.828 213.956 46.724V51.012ZM229.284 46.916C227.94 46.916 226.735 46.5853 225.668 45.924C224.601 45.2627 223.759 44.356 223.14 43.204C222.543 42.052 222.244 40.7613 222.244 39.332C222.244 37.796 222.532 36.4627 223.108 35.332C223.684 34.18 224.505 33.2947 225.572 32.676C226.639 32.0573 227.876 31.748 229.284 31.748C230.777 31.748 231.993 32.1107 232.932 32.836C233.892 33.54 234.372 34.4573 234.372 35.588C234.372 36.42 234.105 37.1027 233.572 37.636C233.039 38.148 232.356 38.404 231.524 38.404C231.332 38.404 231.193 38.3827 231.108 38.34C231.023 38.2973 230.98 38.2227 230.98 38.116C230.98 38.052 231.044 37.9133 231.172 37.7C231.321 37.4867 231.449 37.2307 231.556 36.932C231.663 36.612 231.716 36.2067 231.716 35.716C231.716 34.948 231.46 34.3507 230.948 33.924C230.457 33.476 229.796 33.252 228.964 33.252C227.855 33.252 226.959 33.796 226.276 34.884C225.615 35.9507 225.284 37.3693 225.284 39.14C225.284 40.932 225.679 42.3507 226.468 43.396C227.279 44.4413 228.367 44.964 229.732 44.964C230.436 44.964 231.097 44.8467 231.716 44.612C232.335 44.3773 232.953 44.004 233.572 43.492C233.615 43.4493 233.7 43.428 233.828 43.428C233.999 43.428 234.159 43.524 234.308 43.716C234.479 43.8867 234.564 44.068 234.564 44.26C234.564 44.4093 234.543 44.484 234.5 44.484C233.817 45.2733 233.017 45.8813 232.1 46.308C231.204 46.7133 230.265 46.916 229.284 46.916ZM244.675 51.012C244.675 51.7587 244.749 52.2813 244.899 52.58C245.069 52.8787 245.4 53.0813 245.891 53.188L246.499 53.316L246.211 54.18H241.123L240.771 53.796L241.123 53.316C241.485 52.804 241.731 52.2707 241.859 51.716C242.008 51.1827 242.083 50.468 242.083 49.572V47.812C242.083 46.5747 241.656 44.58 240.803 41.828C239.949 39.0547 239.149 36.74 238.403 34.884C238.296 34.6067 238.2 34.4253 238.115 34.34C238.051 34.2333 237.955 34.18 237.827 34.18H236.579L236.323 33.476C236.835 32.9853 237.432 32.58 238.115 32.26C238.819 31.9187 239.437 31.748 239.971 31.748C240.419 31.748 240.728 32.036 240.899 32.612L244.195 44.676C245.005 43.8867 245.731 42.8413 246.371 41.54C247.032 40.2173 247.363 39.0333 247.363 37.988C247.363 35.8973 246.957 34.212 246.147 32.932L245.891 32.484L246.211 32.132L249.699 31.748C249.784 33.1133 249.827 34.1373 249.827 34.82C249.827 36.1213 249.603 37.5293 249.155 39.044C248.707 40.5373 248.088 41.9667 247.299 43.332C246.509 44.6973 245.635 45.828 244.675 46.724V51.012Z" fill="#486B43"/>
<g clip-path="url(#clip1_34_2)">
<path d="M287.244 35.2037C290.656 38.2673 294.769 41.9207 298.181 44.9843C298.906 45.4238 301.479 46.8536 304.579 46.1269C305.36 45.9422 306.721 45.6045 307.78 44.4185C309.533 42.4613 309.598 39.166 308.054 37.0322C307.021 35.6062 305.556 35.0945 305.091 34.9394C304.363 34.6956 302.721 34.1248 301.067 34.94C300.835 35.054 298.731 36.1321 298.747 38.096C298.761 39.685 300.155 41.2534 301.304 41.1539C301.724 41.1149 302.249 40.844 302.457 40.3967C302.757 39.7423 302.139 39.2285 302.439 38.547C302.645 38.0725 303.194 37.7547 303.683 37.7432C304.565 37.7154 305.182 38.6586 305.401 39.2569C305.812 40.3811 305.277 41.5788 304.649 42.2635C303.858 43.1277 302.828 43.2802 302.282 43.3643C301.782 43.4387 300.214 43.588 298.831 42.5599C297.978 41.9265 297.6 41.138 297.377 40.6675C296.435 38.6596 296.877 36.6663 297.098 35.8898C297.202 35.4569 296.999 35.0101 296.621 34.8195C296.181 34.5983 295.638 34.7855 295.475 35.09C295.312 35.3946 295.63 35.6335 295.556 36.1061C295.461 36.7153 294.802 37.3141 294.391 37.2088C293.796 37.0582 293.927 35.4941 293.358 35.3942C293.025 35.3351 292.85 35.8493 292.382 35.9117C291.806 35.9887 291.242 35.3207 290.861 34.7606C289.546 34.9882 288.732 35.0163 287.244 35.2037Z" fill="#486B43" stroke="#486B43" stroke-width="0.384018" stroke-miterlimit="10"/>
<path d="M287.234 34.9324C290.205 31.2757 293.523 26.8978 296.494 23.2411C297.157 22.6775 299.521 20.8025 302.729 21.0012C303.537 21.0521 304.946 21.1582 306.176 22.1644C308.211 23.8275 308.752 27.1208 307.517 29.5192C306.69 31.1265 305.298 31.8919 304.855 32.1246C304.159 32.4938 302.601 33.3465 300.83 32.8127C300.583 32.7397 298.325 32.0191 298.056 30.0449C297.84 28.4521 299.008 26.6374 300.173 26.5428C300.599 26.509 301.165 26.6905 301.434 27.105C301.83 27.7108 301.287 28.3274 301.683 28.9603C301.96 29.4018 302.551 29.6231 303.044 29.5572C303.928 29.4369 304.41 28.385 304.543 27.7474C304.792 26.546 304.086 25.4401 303.357 24.8595C302.44 24.125 301.387 24.1505 300.83 24.1616C300.32 24.1739 298.731 24.2886 297.496 25.5622C296.711 26.3691 296.443 27.2587 296.315 27.706C295.531 30.4366 297.047 32.623 296.174 33.2319C295.872 33.4434 295.357 33.4042 295.057 33.2135C294.577 32.9122 294.762 32.3135 294.274 31.9473C293.839 31.62 293.084 31.6298 292.842 31.9506C292.484 32.4249 293.309 33.4941 293.06 33.682C292.888 33.8102 292.509 33.3098 292.01 33.3271C291.421 33.3502 290.956 34.1135 290.654 34.7407C289.536 34.7169 288.32 34.8948 287.234 34.9324Z" fill="#486B43" stroke="#486B43" stroke-width="0.384018" stroke-miterlimit="10"/>
<path d="M283.962 34.412C280.762 31.4684 276.897 27.6923 273.697 24.7487C273.014 24.3239 270.595 22.9355 267.647 23.5906C266.906 23.7538 265.615 24.0596 264.594 25.1715C262.91 27.0043 262.808 30.1274 264.244 32.1651C265.204 33.5289 266.589 34.0304 267.027 34.1836C267.717 34.4235 269.264 34.9839 270.839 34.2318C271.056 34.1264 273.066 33.131 273.073 31.2676C273.078 29.7628 271.773 28.26 270.686 28.3413C270.29 28.3718 269.785 28.6221 269.583 29.0449C269.289 29.6625 269.871 30.1547 269.575 30.7969C269.371 31.2442 268.85 31.5382 268.386 31.5459C267.553 31.5617 266.978 30.6619 266.778 30.0933C266.401 29.0207 266.922 27.8927 267.525 27.2519C268.283 26.4419 269.261 26.3088 269.781 26.2374C270.257 26.1725 271.74 26.0498 273.039 27.0421C273.84 27.6544 274.188 28.4018 274.394 28.8535C275.262 30.768 274.821 32.6519 274.606 33.3819C274.501 33.7917 274.687 34.2139 275.044 34.4015C275.459 34.6177 275.974 34.446 276.134 34.1573C276.293 33.8685 275.992 33.6389 276.069 33.1972C276.167 32.6219 276.798 32.0619 277.184 32.1647C277.744 32.3125 277.603 33.7932 278.143 33.8952C278.459 33.9534 278.631 33.4688 279.075 33.4154C279.622 33.3489 280.15 33.9863 280.501 34.5244C281.79 34.4604 282.876 34.4362 283.962 34.412Z" fill="#486B43" stroke="#486B43" stroke-width="0.384018" stroke-miterlimit="10"/>
<path d="M283.968 34.6835C281.048 38.0619 277.615 42.3181 274.699 45.6938C274.054 46.2068 271.761 47.9183 268.729 47.6368C267.966 47.5664 266.635 47.4249 265.496 46.4355C263.616 44.8027 263.199 41.6679 264.44 39.431C265.27 37.9343 266.609 37.2503 267.035 37.0395C267.704 36.7084 269.206 35.9477 270.867 36.5033C271.098 36.5812 273.219 37.3279 273.413 39.2035C273.571 40.7181 272.41 42.4007 271.308 42.4593C270.904 42.4799 270.373 42.2891 270.13 41.8909C269.772 41.3085 270.308 40.7362 269.949 40.1266C269.701 39.7012 269.146 39.4753 268.676 39.5232C267.835 39.6134 267.347 40.5956 267.203 41.1935C266.933 42.3215 267.57 43.3916 268.243 43.962C269.09 44.6837 270.084 44.6907 270.613 44.6968C271.097 44.7004 272.606 44.6348 273.813 43.4679C274.578 42.729 274.858 41.8916 274.995 41.4702C275.816 38.9091 274.444 36.7909 275.287 36.2418C275.579 36.0506 276.065 36.1003 276.346 36.292C276.79 36.5917 276.596 37.1519 277.051 37.5167C277.451 37.8383 278.171 37.8545 278.409 37.5549C278.763 37.1163 278.012 36.0792 278.256 35.9099C278.421 35.7925 278.768 36.2772 279.24 36.2754C279.8 36.2732 280.139 35.347 280.438 34.7621C281.34 34.8183 283.153 34.6866 283.968 34.6835Z" fill="#486B43" stroke="#486B43" stroke-width="0.384018" stroke-miterlimit="10"/>
<path d="M285.793 36.4766C282.646 39.8161 278.694 43.5447 275.546 46.8842C275.09 47.5983 273.596 50.1333 274.25 53.2543C274.416 54.0392 274.722 55.4062 275.879 56.4965C277.794 58.2941 281.087 58.441 283.255 56.9504C284.707 55.9519 285.254 54.4984 285.42 54.0389C285.68 53.3153 286.29 51.6884 285.517 50.017C285.409 49.7844 284.381 47.6544 282.419 47.6245C280.828 47.6008 279.226 48.9577 279.304 50.107C279.332 50.5272 279.59 51.0617 280.035 51.2772C280.679 51.5946 281.209 50.9866 281.883 51.3056C282.353 51.5231 282.654 52.0778 282.658 52.5694C282.666 53.4495 281.706 54.0451 281.105 54.2507C279.969 54.6351 278.783 54.0702 278.115 53.4249C277.269 52.6146 277.141 51.5811 277.073 51.0346C277.012 50.5314 276.898 48.9649 277.962 47.6048C278.618 46.767 279.412 46.4054 279.889 46.1987C281.92 45.3051 283.901 45.7936 284.67 46.0332C285.101 46.1515 285.551 45.9566 285.752 45.5828C285.985 45.1482 285.808 44.6 285.509 44.4311C285.207 44.2595 284.962 44.5722 284.495 44.4879C283.89 44.3757 283.307 43.7057 283.421 43.2969C283.583 42.7072 285.145 42.8732 285.259 42.3068C285.326 41.9757 284.814 41.787 284.763 41.3187C284.699 40.7394 285.344 40.3694 285.915 40.0045C285.974 38.9564 285.971 37.6931 285.793 36.4766Z" fill="#486B43" stroke="#486B43" stroke-width="0.384018" stroke-miterlimit="10"/>
<path d="M286.065 36.4672C289.651 39.5247 293.791 43.1772 297.371 46.235C297.919 46.9089 299.739 49.3212 299.464 52.5205C299.394 53.3272 299.255 54.7312 298.218 55.9382C296.507 57.9346 293.203 58.3967 290.833 57.1039C289.246 56.2377 288.515 54.8311 288.29 54.3797C287.937 53.6774 287.122 52.0971 287.7 50.3409C287.781 50.0963 288.554 47.8551 290.529 47.6346C292.129 47.457 293.913 48.6696 293.98 49.8356C294.003 50.2614 293.811 50.8223 293.388 51.0842C292.776 51.464 292.167 50.9063 291.525 51.2899C291.078 51.5554 290.84 52.1423 290.898 52.6375C290.999 53.5252 292.039 54.0327 292.674 54.1791C293.868 54.4584 294.994 53.7755 295.589 53.0648C296.343 52.1666 296.345 51.1123 296.347 50.5579C296.348 50.0444 296.269 48.4576 295.03 47.1909C294.244 46.3894 293.359 46.0994 292.911 45.96C290.203 45.1136 287.977 46.5764 287.392 45.6891C287.188 45.3783 287.238 44.8684 287.437 44.5708C287.753 44.098 288.344 44.2976 288.724 43.8172C289.062 43.3925 289.071 42.6341 288.753 42.3843C288.286 42.0173 287.2 42.8102 287.017 42.5612C286.895 42.3888 287.403 42.018 287.397 41.5183C287.39 40.9289 286.634 40.4442 286.018 40.1314C286.219 39.111 285.864 37.4876 286.065 36.4672Z" fill="#486B43" stroke="#486B43" stroke-width="0.384018" stroke-miterlimit="10"/>
<path d="M285.269 33.0984C288.251 29.9358 292.241 25.4016 295.221 22.2418C295.654 21.5638 297.068 19.1592 296.449 16.2082C296.293 15.4637 296.004 14.1695 294.906 13.1397C293.092 11.4364 289.97 11.2971 287.916 12.7104C286.542 13.6546 286.021 15.0339 285.865 15.4713C285.617 16.1591 285.043 17.6978 285.775 19.2837C285.877 19.5057 286.852 21.5233 288.711 21.5514C290.217 21.5753 291.735 20.2866 291.665 19.1967C291.637 18.7983 291.394 18.2932 290.974 18.0849C290.361 17.7855 289.862 18.3598 289.224 18.0585C288.779 17.8484 288.494 17.3257 288.487 16.8614C288.479 16.0248 289.386 15.4636 289.958 15.2672C291.035 14.9011 292.157 15.4383 292.792 16.0467C293.593 16.8151 293.714 17.7945 293.781 18.3139C293.841 18.79 293.946 20.2753 292.939 21.5627C292.318 22.3585 291.566 22.697 291.113 22.8947C289.189 23.7411 287.312 23.2762 286.581 23.0515C286.175 22.9406 285.747 23.1238 285.558 23.4782C285.336 23.8907 285.504 24.4093 285.789 24.5706C286.074 24.7319 286.306 24.4331 286.752 24.5183C287.326 24.6234 287.878 25.2591 287.769 25.646C287.614 26.2056 286.134 26.0476 286.027 26.5838C285.965 26.8984 286.446 27.0747 286.497 27.5212C286.557 28.0707 285.779 28.5215 285.239 28.8689C285.164 29.9067 285.241 32.2842 285.269 33.0984Z" fill="#486B43" stroke="#486B43" stroke-width="0.384018" stroke-miterlimit="10"/>
<path d="M274.292 23.1236C277.688 26.0193 281.599 30.2149 284.995 33.1106L285.056 28.8237C285.056 28.8237 283.756 28.1623 283.75 27.6055C283.745 27.1329 284.227 26.7793 284.11 26.6176C283.936 26.3764 282.905 27.1321 282.464 26.7833C282.162 26.5437 282.173 25.8288 282.493 25.4237C282.852 24.9711 283.413 25.1582 283.71 24.7105C283.898 24.4296 283.947 23.9443 283.752 23.6521C283.198 22.81 281.086 24.1954 278.521 23.393C278.098 23.2609 277.262 22.9855 276.516 22.2261C275.339 21.0278 275.265 19.5197 275.265 19.0361L275.265 19.035C275.265 18.5049 275.267 17.5085 275.981 16.6583C276.547 15.9839 277.612 15.3385 278.743 15.6009C279.343 15.7405 280.327 16.2227 280.424 17.0643C280.478 17.5298 280.253 18.0864 279.829 18.3375C279.22 18.6982 278.644 18.1665 278.065 18.5289C277.668 18.779 277.483 19.3098 277.505 19.7139C277.571 20.8202 279.259 21.9654 280.775 21.7989C282.651 21.59 283.382 19.4671 283.458 19.2335C284.003 17.5681 283.229 16.0734 282.896 15.4056C282.683 14.981 281.99 13.6464 280.487 12.8263C278.241 11.6025 275.112 12.0395 273.49 13.9297C272.508 15.0722 272.378 16.4053 272.312 17.1684C272.05 20.2015 273.773 22.4813 274.292 23.1236Z" fill="#486B43" stroke="#486B43" stroke-width="0.384018" stroke-miterlimit="10"/>
<ellipse cx="285.597" cy="34.7173" rx="2.49612" ry="2.30411" transform="rotate(43.0184 285.597 34.7173)" fill="#486B43"/>
</g>
<defs>
<clipPath id="clip0_34_2">
<rect width="47.1344" height="47" fill="white" transform="translate(32.0649 1.73999) rotate(43.0184)"/>
</clipPath>
<clipPath id="clip1_34_2">
<rect width="47.1344" height="47" fill="white" transform="translate(284.591 1.73999) rotate(43.0184)"/>
</clipPath>
</defs>
</svg>
