<svg width="67" height="67" viewBox="0 0 67 67" fill="none" xmlns="http://www.w3.org/2000/svg">
<g clip-path="url(#clip0_34_24)">
<path d="M34.7172 33.4637C38.1298 36.5273 42.2421 40.1807 45.6547 43.2443C46.3791 43.6838 48.9527 45.1136 52.0522 44.3869C52.8337 44.2023 54.1941 43.8645 55.2535 42.6785C57.0062 40.7214 57.0715 37.426 55.5278 35.2922C54.4949 33.8662 53.029 33.3545 52.5644 33.1994C51.836 32.9556 50.1941 32.3848 48.5405 33.2C48.3081 33.3141 46.2043 34.3922 46.2207 36.356C46.2349 37.945 47.6286 39.5134 48.7772 39.4139C49.197 39.3749 49.7229 39.104 49.9302 38.6567C50.2309 38.0024 49.6127 37.4885 49.9124 36.807C50.1188 36.3325 50.6675 36.0147 51.1562 36.0032C52.0383 35.9754 52.6551 36.9186 52.8741 37.5169C53.2852 38.6411 52.7507 39.8388 52.1223 40.5235C51.3316 41.3877 50.3017 41.5402 49.7558 41.6243C49.2557 41.6987 47.6877 41.848 46.3045 40.8199C45.4511 40.1865 45.0734 39.398 44.8506 38.9275C43.9089 36.9196 44.3508 34.9263 44.5712 34.1498C44.6757 33.7169 44.4728 33.2701 44.094 33.0795C43.6543 32.8583 43.1119 33.0455 42.9486 33.3501C42.7852 33.6546 43.1032 33.8935 43.0299 34.3661C42.9342 34.9753 42.2756 35.5741 41.8644 35.4688C41.2696 35.3182 41.4003 33.7541 40.8317 33.6542C40.4981 33.5951 40.323 34.1093 39.8551 34.1717C39.2791 34.2487 38.7153 33.5808 38.3345 33.0206C37.0192 33.2482 36.205 33.2764 34.7172 33.4637Z" fill="#486B43" stroke="#486B43" stroke-width="0.384018" stroke-miterlimit="10"/>
<path d="M34.7078 33.1924C37.6787 29.5357 40.9969 25.1578 43.9678 21.5012C44.6303 20.9375 46.9944 19.0625 50.202 19.2613C51.0107 19.3121 52.4191 19.4182 53.6494 20.4244C55.6849 22.0875 56.2255 25.3808 54.9907 27.7792C54.1633 29.3865 52.7714 30.1519 52.3285 30.3846C51.6321 30.7538 50.0748 31.6065 48.3039 31.0727C48.0568 30.9997 45.7985 30.2791 45.5291 28.3049C45.3137 26.7121 46.4817 24.8974 47.6468 24.8028C48.0722 24.769 48.6382 24.9505 48.9079 25.365C49.3038 25.9708 48.76 26.5874 49.1569 27.2203C49.433 27.6618 50.0248 27.8831 50.517 27.8172C51.4013 27.6969 51.8839 26.645 52.0167 26.0074C52.2659 24.806 51.5592 23.7001 50.83 23.1195C49.9134 22.385 48.86 22.4105 48.3034 22.4217C47.793 22.4339 46.2048 22.5486 44.9692 23.8222C44.1847 24.6291 43.9166 25.5187 43.7881 25.966C43.0049 28.6966 44.5206 30.883 43.6478 31.4919C43.3454 31.7035 42.8305 31.6642 42.5304 31.4735C42.05 31.1723 42.2357 30.5735 41.7476 30.2073C41.3124 29.88 40.5574 29.8898 40.3158 30.2106C39.9573 30.685 40.7822 31.7541 40.5333 31.942C40.3612 32.0703 39.9825 31.5698 39.4831 31.5871C38.8943 31.6102 38.429 32.3735 38.1273 33.0007C37.0098 32.9769 35.7933 33.1548 34.7078 33.1924Z" fill="#486B43" stroke="#486B43" stroke-width="0.384018" stroke-miterlimit="10"/>
<path d="M31.435 32.672C28.235 29.7285 24.3701 25.9523 21.1702 23.0087C20.4871 22.5839 18.0687 21.1955 15.1201 21.8506C14.3795 22.0138 13.088 22.3196 12.0671 23.4315C10.3832 25.2643 10.2817 28.3874 11.7177 30.4251C12.677 31.7889 14.0625 32.2904 14.5005 32.4436C15.1903 32.6835 16.7374 33.2439 18.3122 32.4918C18.5299 32.3864 20.5394 31.391 20.5467 29.5276C20.5512 28.0228 19.2466 26.52 18.1593 26.6013C17.7634 26.6318 17.2584 26.8821 17.0559 27.3049C16.7628 27.9225 17.3441 28.4148 17.0488 29.0569C16.8442 29.5042 16.3238 29.7983 15.8595 29.8059C15.026 29.8217 14.4519 28.9219 14.2518 28.3533C13.8749 27.2807 14.3957 26.1528 14.9979 25.5119C15.7567 24.7019 16.7342 24.5688 17.2541 24.4974C17.7307 24.4325 19.2137 24.3098 20.5124 25.3022C21.3137 25.9144 21.6617 26.6618 21.8673 27.1135C22.7356 29.028 22.2942 30.9119 22.0795 31.6419C21.9746 32.0517 22.1606 32.474 22.5178 32.6616C22.9328 32.8777 23.4477 32.706 23.607 32.4173C23.7662 32.1285 23.465 31.899 23.5421 31.4572C23.6407 30.8819 24.2719 30.3219 24.6572 30.4247C25.2173 30.5725 25.0764 32.0532 25.6165 32.1552C25.9328 32.2134 26.104 31.7288 26.5483 31.6755C27.0954 31.6089 27.623 32.2463 27.9745 32.7844C29.2632 32.7204 30.3491 32.6962 31.435 32.672Z" fill="#486B43" stroke="#486B43" stroke-width="0.384018" stroke-miterlimit="10"/>
<path d="M31.441 32.9435C28.5214 36.3219 25.0889 40.5781 22.172 43.9538C21.5277 44.4668 19.2344 46.1783 16.2029 45.8968C15.4395 45.8264 14.1084 45.6849 12.9695 44.6955C11.0896 43.0627 10.6728 39.9279 11.9133 37.6911C12.7438 36.1943 14.0826 35.5103 14.5081 35.2996C15.1775 34.9684 16.6789 34.2077 18.3402 34.7633C18.5713 34.8412 20.6923 35.5879 20.8869 37.4635C21.0448 38.9781 19.8837 40.6607 18.7815 40.7193C18.377 40.7399 17.8467 40.5491 17.6035 40.1509C17.2455 39.5685 17.7809 38.9962 17.4229 38.3866C17.1741 37.9612 16.6193 37.7353 16.1497 37.7833C15.3083 37.8734 14.8206 38.8556 14.6763 39.4535C14.4064 40.5815 15.0432 41.6516 15.7161 42.222C16.5634 42.9437 17.5573 42.9507 18.0868 42.9568C18.5702 42.9604 20.0797 42.8948 21.2863 41.7279C22.0519 40.989 22.3311 40.1516 22.4679 39.7302C23.2889 37.1691 21.9176 35.0509 22.7599 34.5018C23.0525 34.3106 23.5387 34.3603 23.8192 34.552C24.2629 34.8517 24.0696 35.4119 24.5245 35.7767C24.9249 36.0983 25.6446 36.1145 25.8824 35.8149C26.2364 35.3763 25.4856 34.3392 25.7293 34.1699C25.8945 34.0525 26.2413 34.5372 26.7138 34.5354C27.2731 34.5332 27.6127 33.6071 27.9119 33.0221C28.8136 33.0783 30.6264 32.9466 31.441 32.9435Z" fill="#486B43" stroke="#486B43" stroke-width="0.384018" stroke-miterlimit="10"/>
<path d="M33.2668 34.7366C30.1192 38.0761 26.1672 41.8047 23.0196 45.1442C22.5633 45.8583 21.0697 48.3933 21.7238 51.5143C21.8896 52.2992 22.195 53.6662 23.3521 54.7565C25.2674 56.5541 28.5601 56.701 30.7283 55.2104C32.18 54.2119 32.7274 52.7584 32.8936 52.2989C33.1538 51.5753 33.7632 49.9484 32.9908 48.277C32.8822 48.0444 31.8549 45.9145 29.8921 45.8846C28.3018 45.8608 26.6995 47.2177 26.7773 48.367C26.8055 48.7872 27.063 49.3217 27.5079 49.5372C28.152 49.8546 28.6825 49.2466 29.3565 49.5657C29.8259 49.7831 30.1277 50.3378 30.1311 50.8295C30.1398 51.7095 29.1796 52.3051 28.5781 52.5107C27.4421 52.8951 26.2569 52.3302 25.5879 51.6849C24.7421 50.8746 24.6139 49.8411 24.5461 49.2947C24.4852 48.7914 24.3713 47.2249 25.4355 45.8649C26.0912 45.0271 26.8856 44.6654 27.3621 44.4587C29.3934 43.5651 31.3748 44.0536 32.1438 44.2932C32.5745 44.4115 33.0242 44.2166 33.2259 43.8428C33.4581 43.4082 33.2816 42.86 32.9823 42.6911C32.6802 42.5195 32.4356 42.8323 31.9681 42.7479C31.3637 42.6357 30.7809 41.9657 30.8944 41.5569C31.056 40.9672 32.6187 41.1332 32.7322 40.5668C32.7995 40.2358 32.2876 40.047 32.2361 39.5787C32.1726 38.9995 32.8173 38.6294 33.3889 38.2645C33.4477 37.2164 33.4447 35.9531 33.2668 34.7366Z" fill="#486B43" stroke="#486B43" stroke-width="0.384018" stroke-miterlimit="10"/>
<path d="M33.5382 34.7272C37.1246 37.7848 41.264 41.4372 44.8449 44.495C45.3926 45.1689 47.2123 47.5812 46.9371 50.7805C46.8672 51.5872 46.7283 52.9913 45.6914 54.1982C43.9808 56.1946 40.6766 56.6567 38.3061 55.3639C36.7192 54.4977 35.9886 53.0911 35.7638 52.6397C35.4107 51.9374 34.5953 50.3571 35.173 48.6009C35.2542 48.3563 36.0271 46.1152 38.0029 45.8946C39.6025 45.717 41.3861 46.9296 41.4536 48.0956C41.4765 48.5214 41.284 49.0823 40.861 49.3442C40.2493 49.724 39.6404 49.1664 38.9988 49.5499C38.5515 49.8154 38.3137 50.4023 38.3716 50.8975C38.473 51.7852 39.5121 52.2927 40.1476 52.4392C41.3419 52.7184 42.4675 52.0356 43.0624 51.3248C43.8166 50.4266 43.8181 49.3723 43.8207 48.8179C43.822 48.3044 43.7426 46.7177 42.5033 45.4509C41.7175 44.6494 40.8326 44.3594 40.3849 44.22C37.6766 43.3736 35.4503 44.8364 34.8653 43.9491C34.6617 43.6383 34.7119 43.1284 34.9109 42.8308C35.226 42.358 35.8171 42.5577 36.1971 42.0772C36.5356 41.6525 36.5447 40.8941 36.2263 40.6443C35.7599 40.2773 34.6733 41.0703 34.4908 40.8212C34.368 40.6488 34.8769 40.278 34.8705 39.7783C34.8636 39.1889 34.1078 38.7042 33.4911 38.3914C33.6922 37.371 33.3371 35.7476 33.5382 34.7272Z" fill="#486B43" stroke="#486B43" stroke-width="0.384018" stroke-miterlimit="10"/>
<path d="M32.7424 31.3584C35.725 28.1958 39.7143 23.6616 42.6942 20.5018C43.1272 19.8239 44.5411 17.4193 43.9228 14.4682C43.7666 13.7237 43.4773 12.4295 42.3793 11.3997C40.5652 9.69641 37.4439 9.55716 35.3898 10.9704C34.015 11.9146 33.4949 13.2939 33.3389 13.7313C33.091 14.4191 32.5166 15.9578 33.248 17.5437C33.3508 17.7657 34.3253 19.7833 36.1848 19.8114C37.6908 19.8353 39.2085 18.5466 39.1382 17.4568C39.1109 17.0583 38.8679 16.5532 38.4477 16.3449C37.8341 16.0455 37.335 16.6198 36.697 16.3186C36.2523 16.1084 35.9679 15.5857 35.96 15.1214C35.9528 14.2848 36.8599 13.7236 37.4318 13.5272C38.5087 13.1612 39.6304 13.6984 40.2655 14.3067C41.0664 15.0751 41.1873 16.0545 41.2542 16.5739C41.3141 17.05 41.4198 18.5353 40.4129 19.8227C39.791 20.6185 39.0393 20.957 38.5869 21.1547C36.6627 22.0011 34.7854 21.5362 34.0549 21.3115C33.6489 21.2006 33.2205 21.3839 33.0317 21.7382C32.8096 22.1507 32.977 22.6693 33.2624 22.8306C33.5479 22.9919 33.7794 22.6932 34.2252 22.7783C34.7994 22.8834 35.3512 23.5191 35.2423 23.906C35.0878 24.4656 33.607 24.3076 33.5006 24.8438C33.4381 25.1585 33.9197 25.3347 33.9704 25.7813C34.0302 26.3308 33.2524 26.7815 32.7129 27.1289C32.6374 28.1668 32.7142 30.5442 32.7424 31.3584Z" fill="#486B43" stroke="#486B43" stroke-width="0.384018" stroke-miterlimit="10"/>
<path d="M21.7655 21.3836C25.1614 24.2793 29.0724 28.4749 32.4684 31.3706L32.5293 27.0838C32.5293 27.0838 31.2294 26.4223 31.2237 25.8655C31.2182 25.3929 31.7005 25.0393 31.5835 24.8776C31.4094 24.6364 30.3786 25.3921 29.9373 25.0433C29.6355 24.8037 29.6461 24.0888 29.9663 23.6837C30.3256 23.2312 30.8863 23.4182 31.1833 22.9705C31.3719 22.6896 31.4204 22.2043 31.2255 21.9121C30.672 21.07 28.5598 22.4554 25.9944 21.653C25.5714 21.5209 24.7359 21.2455 23.9896 20.4861C22.8124 19.2878 22.7385 17.7797 22.738 17.2961L22.738 17.295C22.7387 16.7649 22.74 15.7685 23.4546 14.9183C24.0208 14.2439 25.0853 13.5985 26.2165 13.861C26.8164 14.0005 27.8004 14.4827 27.8974 15.3243C27.9516 15.7898 27.7263 16.3464 27.303 16.5975C26.6932 16.9582 26.1178 16.4265 25.5381 16.7889C25.1419 17.039 24.9565 17.5698 24.9786 17.9739C25.044 19.0802 26.7329 20.2254 28.2487 20.0589C30.1244 19.85 30.8552 17.7271 30.9313 17.4935C31.4769 15.8281 30.7024 14.3334 30.3696 13.6656C30.1565 13.241 29.4637 11.9064 27.96 11.0863C25.7141 9.86255 22.5856 10.2996 20.9637 12.1897C19.9817 13.3322 19.8512 14.6654 19.7852 15.4284C19.5233 18.4615 21.246 20.7413 21.7655 21.3836Z" fill="#486B43" stroke="#486B43" stroke-width="0.384018" stroke-miterlimit="10"/>
<ellipse cx="33.0701" cy="32.9773" rx="2.49612" ry="2.30411" transform="rotate(43.0184 33.0701 32.9773)" fill="#486B43"/>
</g>
<defs>
<clipPath id="clip0_34_24">
<rect width="47.1344" height="47" fill="white" transform="translate(32.0649) rotate(43.0184)"/>
</clipPath>
</defs>
</svg>
