<svg width="1950" height="352" viewBox="0 0 1950 352" fill="none" xmlns="http://www.w3.org/2000/svg">
<path d="M202.682 9.61383L1741.27 9.61292L1918.4 179.055L1741.27 346.126L202.682 346.127L12.8173 176.686L202.682 9.61383Z" fill="#E4FFE4"/>
<path d="M776.087 211.905C776.087 215.238 776.557 217.587 777.496 218.955C778.436 220.236 780.316 221.304 783.136 222.159L785.443 222.8L784.418 226.517H755.835L754.425 222.543L757.245 221.903C760.236 220.963 762.201 219.852 763.141 218.57C764.081 217.203 764.551 214.725 764.551 211.136V158.585C764.551 154.996 764.038 152.518 763.013 151.151C762.073 149.698 760.15 148.588 757.245 147.819L754.425 147.178L755.835 143.204H781.342L782.88 144.999L781.342 147.178C779.376 149.656 778.009 152.347 777.24 155.253C776.471 158.072 776.087 161.789 776.087 166.404V211.905ZM828.125 223.569C825.134 226.645 821.417 228.183 816.974 228.183C813.47 228.183 810.48 227.243 808.002 225.363C805.609 223.483 803.43 220.621 801.465 216.776L790.955 195.627C789.844 193.235 788.306 191.355 786.34 189.987C784.461 188.535 782.111 187.339 779.291 186.399C779.035 186.228 778.906 185.8 778.906 185.117C778.906 183.237 779.675 182.297 781.214 182.297H783.905L802.875 158.201C804.327 156.235 805.054 154.142 805.054 151.92C805.054 149.955 804.498 148.289 803.387 146.921L802.106 144.999L804.285 143.204H824.151L825.561 147.178L822.742 147.819C821.033 148.246 819.452 148.929 817.999 149.869C816.632 150.809 815.222 152.219 813.769 154.099L790.186 184.092C793.945 184.69 797.064 186.014 799.542 188.065C802.02 190.03 804.242 192.935 806.207 196.781L817.23 218.314C817.828 219.51 818.469 220.407 819.153 221.005C819.922 221.518 820.819 221.774 821.844 221.774C823.382 221.774 824.878 221.219 826.33 220.108L828.125 223.569ZM862.63 258.944C858.358 258.944 854.684 258.133 851.607 256.509C848.617 254.971 846.352 252.92 844.814 250.357C843.362 247.793 842.635 245.102 842.635 242.282C842.635 238.351 843.96 235.019 846.609 232.285C849.258 229.55 852.889 228.183 857.503 228.183C858.187 228.183 858.7 228.268 859.041 228.439C859.383 228.696 859.554 228.995 859.554 229.337C859.554 229.678 858.999 230.405 857.888 231.515C856.863 232.712 855.923 234.122 855.068 235.745C854.299 237.369 853.915 239.419 853.915 241.897C853.915 244.974 854.812 247.537 856.606 249.588C858.486 251.724 860.964 252.792 864.04 252.792C868.825 252.792 872.371 250.784 874.679 246.768C876.986 242.837 878.139 237.54 878.139 230.875V213.699C876.259 217.117 873.525 219.809 869.936 221.774C866.433 223.74 862.502 224.722 858.144 224.722C852.676 224.722 848.403 223.056 845.327 219.724C842.336 216.306 840.841 211.563 840.841 205.496V179.862C840.841 178.836 840.67 178.11 840.328 177.683C839.986 177.256 839.388 177.042 838.534 177.042H833.279L832.382 174.222C834.347 172.171 836.739 170.505 839.559 169.223C842.464 167.942 845.113 167.301 847.506 167.301C848.617 167.301 849.514 167.643 850.198 168.326C850.967 168.924 851.351 169.736 851.351 170.762V202.805C851.351 207.419 852.291 210.922 854.171 213.315C856.051 215.707 858.742 216.904 862.246 216.904C867.458 216.904 871.517 214.981 874.422 211.136C877.327 207.291 878.78 201.865 878.78 194.858C878.78 188.449 878.524 183.707 878.011 180.631C877.498 177.555 876.217 174.735 874.166 172.171L872.884 170.377L874.166 168.711L888.393 167.301V229.08C888.393 238.565 886.086 245.914 881.472 251.126C876.857 256.338 870.577 258.944 862.63 258.944ZM905.027 224.594L906.566 222.543C908.531 220.065 909.855 217.416 910.539 214.597C911.308 211.777 911.692 207.974 911.692 203.189V192.166C911.692 187.381 911.308 183.579 910.539 180.759C909.77 177.854 908.445 175.205 906.566 172.812L905.027 170.505L906.566 168.839H963.859L965.397 170.505L963.859 172.812C961.979 175.205 960.655 177.854 959.885 180.759C959.116 183.579 958.732 187.381 958.732 192.166V211.905C958.732 215.323 959.202 217.716 960.142 219.083C961.082 220.45 962.962 221.475 965.781 222.159L968.217 222.8L966.807 226.517H939.506L938.096 222.543L940.788 221.903C943.778 220.963 945.744 219.852 946.684 218.57C947.709 217.203 948.222 214.725 948.222 211.136V184.092C948.222 180.503 947.709 178.153 946.684 177.042C945.744 175.846 943.778 175.248 940.788 175.248H929.509C926.518 175.248 924.552 175.846 923.613 177.042C922.673 178.153 922.203 180.503 922.203 184.092V211.136C922.203 214.725 922.673 217.203 923.613 218.57C924.552 219.852 926.518 220.963 929.509 221.903L932.328 222.543L930.79 226.517H906.566L905.027 224.594ZM979.503 222.928L981.938 222.159C984.587 221.39 986.339 220.407 987.193 219.211C988.133 217.929 988.603 215.665 988.603 212.418V182.938C988.603 179.691 988.133 177.427 987.193 176.145C986.339 174.863 984.587 173.838 981.938 173.069L979.503 172.3L980.785 168.839H1003.98L1005.39 170.377L1003.98 172.3C1002.19 174.778 1000.91 177.341 1000.14 179.99C999.455 182.553 999.113 186.014 999.113 190.372V206.65L1027.18 180.246C1026.76 177.939 1026.07 176.316 1025.13 175.376C1024.28 174.436 1022.91 173.667 1021.03 173.069L1018.72 172.3L1019.75 168.839H1043.2L1044.49 170.377L1043.2 172.3C1041.41 174.778 1040.13 177.341 1039.36 179.99C1038.68 182.553 1038.33 186.014 1038.33 190.372V213.187C1038.33 216.263 1038.76 218.356 1039.62 219.467C1040.47 220.578 1042.22 221.561 1044.87 222.415L1047.05 223.056L1046.02 226.517H1019.75L1018.72 222.928L1021.03 222.159C1023.77 221.39 1025.56 220.407 1026.41 219.211C1027.35 217.929 1027.82 215.665 1027.82 212.418V188.962L999.754 215.366C1000.1 217.758 1000.69 219.424 1001.55 220.364C1002.49 221.219 1003.9 221.903 1005.78 222.415L1008.09 223.056L1006.93 226.517H980.785L979.503 222.928ZM1069.77 224.722L1071.18 222.928C1072.97 220.621 1074.21 218.143 1074.89 215.494C1075.58 212.845 1075.92 209.342 1075.92 204.984V183.579C1075.92 180.332 1075.66 178.196 1075.15 177.17C1074.72 176.145 1073.74 175.632 1072.2 175.632H1071.05C1068.4 175.632 1066.35 175.888 1064.9 176.401C1063.53 176.914 1062.42 177.811 1061.56 179.093C1060.79 180.374 1060.07 182.383 1059.38 185.117L1058.62 187.424L1055.03 186.399V167.301L1056.82 165.763L1058.62 167.301C1059.64 168.07 1061.14 168.625 1063.1 168.967C1065.07 169.309 1067.67 169.48 1070.92 169.48H1091.56C1094.8 169.48 1097.37 169.309 1099.25 168.967C1101.13 168.625 1102.58 168.07 1103.6 167.301L1105.4 165.763L1107.32 167.301V186.399L1103.6 187.424L1103.09 185.117C1102.32 182.383 1101.51 180.374 1100.66 179.093C1099.89 177.811 1098.82 176.914 1097.45 176.401C1096.08 175.888 1094.12 175.632 1091.56 175.632H1090.02C1088.57 175.632 1087.58 176.145 1087.07 177.17C1086.64 178.196 1086.43 180.332 1086.43 183.579V212.418C1086.43 215.665 1086.86 217.929 1087.71 219.211C1088.57 220.407 1090.36 221.39 1093.09 222.159L1095.79 222.928L1094.38 226.517H1071.18L1069.77 224.722ZM1115.19 222.928L1117.62 222.159C1120.27 221.39 1122.02 220.364 1122.88 219.083C1123.82 217.801 1124.29 215.579 1124.29 212.418V182.938C1124.29 179.776 1123.82 177.555 1122.88 176.273C1121.94 174.906 1120.18 173.838 1117.62 173.069L1115.19 172.3L1116.47 168.839H1139.67L1141.08 170.377L1139.67 172.3C1137.87 174.692 1136.59 177.213 1135.82 179.862C1135.14 182.511 1134.8 186.014 1134.8 190.372V204.984C1134.8 209.683 1135.44 213.229 1136.72 215.622C1138.09 217.929 1139.67 219.382 1141.46 219.98C1143.34 220.578 1145.56 220.877 1148.13 220.877C1151.97 220.877 1155.05 219.809 1157.35 217.673C1159.75 215.451 1160.94 212.546 1160.94 208.957C1160.94 205.71 1159.62 203.018 1156.97 200.882C1154.32 198.66 1150.9 197.55 1146.72 197.55C1144.49 197.55 1142.7 197.763 1141.33 198.191C1140.05 198.532 1139.24 198.703 1138.9 198.703C1138.56 198.703 1138.26 198.49 1138 198.062C1137.74 197.55 1137.62 197.037 1137.62 196.524C1137.62 195.072 1138.73 194.004 1140.95 193.32C1143.17 192.636 1145.78 192.295 1148.77 192.295C1156.54 192.295 1162.52 193.918 1166.71 197.165C1170.98 200.412 1173.12 204.471 1173.12 209.342C1173.12 214.639 1170.94 218.826 1166.58 221.903C1162.31 224.979 1155.52 226.517 1146.2 226.517H1116.47L1115.19 222.928Z" fill="#486B43"/>
<path d="M1947.19 189.314C1905.66 229.852 1836.9 287.604 1795.41 328.107C1786.45 334.035 1754.61 353.431 1714.83 345.737C1704.79 343.794 1687.34 340.177 1673.18 325.685C1649.78 301.742 1646.96 259.998 1665.29 232.23C1677.55 213.646 1695.89 206.414 1701.72 204.239C1710.87 200.786 1731.34 192.796 1752.84 202.272C1755.85 203.604 1783.22 216.249 1784.17 241.128C1784.95 261.279 1768.12 281.844 1753.47 281.117C1748.12 280.83 1741.26 277.677 1738.34 272.095C1734.14 263.943 1741.69 257.151 1737.45 248.671C1734.5 242.761 1727.4 239.058 1721.17 239.044C1709.94 239.112 1702.68 251.362 1700.22 259.055C1695.64 273.538 1703.19 288.444 1711.55 296.824C1722.1 307.391 1735.28 308.816 1742.27 309.608C1748.68 310.317 1768.64 311.439 1785.61 297.71C1796.1 289.231 1800.41 279.103 1802.92 273.011C1813.69 247.092 1806.88 222.061 1803.65 212.329C1802.03 206.917 1804.36 201.148 1809.06 198.552C1814.53 195.498 1821.54 197.636 1823.79 201.424C1826.04 205.212 1822.1 208.369 1823.38 214.319C1824.97 221.983 1833.66 229.242 1838.82 227.709C1846.28 225.531 1843.71 205.744 1850.88 204.214C1855.08 203.316 1857.59 209.726 1863.6 210.318C1870.99 211.01 1888.9 195.846 1893.39 188.557C1908.31 188.697 1936.26 189.098 1947.19 189.314Z" fill="#486B43"/>
<path d="M1815.37 37.3063C1852.99 83.358 1909.57 143.263 1947.19 189.314L1919.35 188.873L1893.39 188.557C1893.39 188.557 1879.75 164.729 1872.32 164.485C1866.02 164.27 1861.16 170.579 1859.03 168.974C1855.87 166.585 1866.26 153.1 1861.74 147.123C1858.64 143.037 1849.09 142.962 1843.59 147.099C1837.44 151.742 1839.77 159.259 1833.71 163.074C1829.9 165.499 1823.41 165.997 1819.57 163.316C1808.5 155.698 1827.62 128.018 1817.69 93.6462C1816.05 87.979 1812.63 76.7808 1802.72 66.6234C1787.09 50.6013 1766.99 49.1628 1760.53 49.0111L1760.52 49.0108C1753.44 48.86 1740.15 48.5765 1728.59 57.826C1719.42 65.1557 1710.49 79.1222 1713.65 94.2505C1715.33 102.273 1721.47 115.508 1732.67 117.053C1738.86 117.914 1746.36 115.085 1749.83 109.529C1754.83 101.527 1747.91 93.7116 1752.92 86.1079C1756.38 80.9128 1763.52 78.6064 1768.9 79.0227C1783.64 80.2273 1798.42 103.041 1795.74 123.155C1792.39 148.045 1763.84 157.127 1760.7 158.069C1738.31 164.824 1718.6 154.07 1709.79 149.441C1704.19 146.479 1686.59 136.859 1676.1 116.607C1660.44 86.3599 1667.22 44.8721 1692.93 23.8659C1708.47 11.1457 1726.3 9.81221 1736.5 9.16475C1777.05 6.59652 1806.96 30.2021 1815.37 37.3063Z" fill="#486B43"/>
<path d="M7.50361 176.894C46.4255 219.941 111.45 281.864 150.338 324.872C158.916 331.347 189.481 352.688 229.669 347.488C239.808 346.173 257.453 343.651 272.481 330.069C297.335 307.631 302.749 266.143 286.176 237.287C275.107 217.976 257.244 209.614 251.569 207.082C242.648 203.065 222.714 193.815 200.663 201.933C197.576 203.075 169.471 213.991 166.981 238.762C164.947 258.825 180.464 280.399 195.125 280.586C200.488 280.633 207.523 277.913 210.787 272.524C215.491 264.649 208.375 257.4 213.132 249.2C216.449 243.486 223.766 240.233 229.988 240.607C241.19 241.374 247.667 254.052 249.644 261.884C253.316 276.625 244.852 291.031 235.99 298.874C224.798 308.764 211.556 309.364 204.531 309.72C198.093 310.028 178.099 309.904 162.02 295.145C152.078 286.029 148.405 275.652 146.274 269.415C137.139 242.876 145.495 218.317 149.332 208.805C151.278 203.505 149.313 197.602 144.788 194.718C139.521 191.33 132.392 193.027 129.909 196.668C127.426 200.308 131.159 203.704 129.514 209.563C127.454 217.113 118.32 223.817 113.268 221.965C105.956 219.326 109.754 199.738 102.701 197.765C98.5623 196.607 95.6563 202.848 89.6237 203.064C82.2036 203.294 65.275 187.044 61.2402 179.489C46.3483 178.7 18.4287 177.359 7.50361 176.894Z" fill="#486B43"/>
<path d="M148.535 33.3929C108.123 77.0119 47.9157 133.275 7.50361 176.894L35.3188 178.188L61.2402 179.489C61.2402 179.489 76.3392 156.557 83.7681 156.777C90.0736 156.955 94.5349 163.554 96.7531 162.085C100.062 159.898 90.528 145.792 95.413 140.108C98.7669 136.223 108.296 136.743 113.529 141.215C119.376 146.232 116.585 153.589 122.399 157.774C126.046 160.431 132.493 161.332 136.492 158.896C148.016 151.983 130.654 123.165 142.71 89.4788C144.695 83.9245 148.809 72.9613 159.331 63.4409C175.933 48.4238 196.086 48.2403 202.536 48.491L202.55 48.4915C209.62 48.7817 222.908 49.327 233.869 59.2786C242.565 67.1653 250.611 81.6612 246.513 96.5632C244.336 104.465 237.385 117.292 226.109 118.137C219.873 118.61 212.568 115.32 209.444 109.558C204.955 101.26 212.349 93.8908 207.822 85.9898C204.695 80.5895 197.714 77.8428 192.313 77.9229C177.524 78.2067 161.359 100.055 162.78 120.298C164.576 145.349 192.503 156.191 195.578 157.327C217.501 165.464 237.845 155.959 246.926 151.887C252.702 149.279 270.866 140.775 282.598 121.215C300.105 92.0021 295.928 50.1729 271.576 27.6059C256.857 13.9423 239.146 11.5007 229.004 10.219C188.69 5.12959 157.375 26.8267 148.535 33.3929Z" fill="#486B43"/>
</svg>
