<svg width="25" height="24" viewBox="0 0 25 24" fill="none" xmlns="http://www.w3.org/2000/svg">
<path d="M20.234 23H4.766C4.48238 23.0001 4.20199 22.9398 3.94345 22.8232C3.6849 22.7066 3.4541 22.5364 3.26638 22.3238C3.07865 22.1112 2.93829 21.8611 2.8546 21.5901C2.77092 21.3191 2.74583 21.0334 2.781 20.752L4.5 7H20.5L22.219 20.752C22.2542 21.0334 22.2291 21.3191 22.1454 21.5901C22.0617 21.8611 21.9214 22.1112 21.7336 22.3238C21.5459 22.5364 21.3151 22.7066 21.0566 22.8232C20.798 22.9398 20.5176 23.0001 20.234 23Z" stroke="#486B43" stroke-width="2" stroke-miterlimit="10" stroke-linecap="square"/>
<path d="M8.5 10V5C8.50343 3.94019 8.92596 2.92476 9.67536 2.17536C10.4248 1.42596 11.4402 1.00343 12.5 1C13.5598 1.00343 14.5752 1.42596 15.3246 2.17536C16.074 2.92476 16.4966 3.94019 16.5 5V10" stroke="#486B43" stroke-width="2" stroke-miterlimit="10" stroke-linecap="square"/>
</svg>
