<svg width="20" height="24" viewBox="0 0 20 24" fill="none" xmlns="http://www.w3.org/2000/svg">
<path fill-rule="evenodd" clip-rule="evenodd" d="M13.4476 16.2H6.55242C5.3981 16.2 4.29105 16.6586 3.47481 17.4748C2.65858 18.291 2.20002 19.3981 2.20002 20.5524C2.20002 21.1524 2.58642 21.552 3.02562 21.6252C4.68523 21.9 7.15242 22.2 10 22.2C12.8476 22.2 15.3148 21.9 16.9744 21.624C17.4136 21.552 17.8 21.1512 17.8 20.5524C17.8 19.3981 17.3415 18.291 16.5252 17.4748C15.709 16.6586 14.602 16.2 13.4476 16.2ZM6.55242 14.4C4.92071 14.4 3.35582 15.0482 2.20202 16.202C1.04822 17.3558 0.400024 18.9207 0.400024 20.5524C0.400024 21.954 1.34802 23.172 2.73162 23.4C4.46202 23.688 7.03003 24 10 24C12.97 24 15.538 23.688 17.2684 23.4C18.6508 23.172 19.6 21.954 19.6 20.5524C19.6 18.9207 18.9518 17.3558 17.798 16.202C16.6442 15.0482 15.0793 14.4 13.4476 14.4H6.55242ZM5.80002 6C5.80002 6.55155 5.90866 7.0977 6.11973 7.60727C6.3308 8.11684 6.64017 8.57984 7.03018 8.96985C7.42018 9.35985 7.88319 9.66922 8.39275 9.88029C8.90232 10.0914 9.44847 10.2 10 10.2C10.5516 10.2 11.0977 10.0914 11.6073 9.88029C12.1169 9.66922 12.5799 9.35985 12.9699 8.96985C13.3599 8.57984 13.6692 8.11684 13.8803 7.60727C14.0914 7.0977 14.2 6.55155 14.2 6C14.2 4.88609 13.7575 3.8178 12.9699 3.03015C12.1822 2.2425 11.1139 1.8 10 1.8C8.88612 1.8 7.81783 2.2425 7.03018 3.03015C6.24252 3.8178 5.80002 4.88609 5.80002 6ZM10 0C8.40873 0 6.8826 0.632141 5.75738 1.75736C4.63217 2.88258 4.00002 4.4087 4.00002 6C4.00002 7.5913 4.63217 9.11742 5.75738 10.2426C6.8826 11.3679 8.40873 12 10 12C11.5913 12 13.1174 11.3679 14.2427 10.2426C15.3679 9.11742 16 7.5913 16 6C16 4.4087 15.3679 2.88258 14.2427 1.75736C13.1174 0.632141 11.5913 0 10 0Z" fill="#486B43"/>
</svg>
