<svg width="39" height="43" viewBox="0 0 39 43" fill="none" xmlns="http://www.w3.org/2000/svg">
<path d="M18.9842 30.8809C22.6215 32.395 23.1391 34.6451 25.1078 36.8832C27.0765 39.1212 33.5146 40.8698 34.4984 31.7822C22.6628 35.3524 23.7441 22.9034 11.2939 21.1248C11.2939 21.1248 16.5939 16.9135 18.9842 21.1016C18.9842 21.1016 21.0533 11.7249 26.9318 13.5249C32.8104 15.325 32.1759 22.5871 29.5119 20.2292C26.8479 17.8713 25.4423 16.0464 23.1748 19.2695C20.9072 22.4925 25.6768 28.3511 29.5365 28.3395C32.9888 28.329 37.6081 24.5395 34.4941 16.8595C32.3371 11.5397 29.8511 7.50465 23.1391 7.52493C24.1406 5.9941 32.4855 6.68523 34.1899 8.85065C34.1978 6.26624 37.3648 0.907293 37.5366 0.990669C37.5366 30.7448 40.0968 37.8866 34.4728 41.5007C28.8489 45.1148 12.8008 33.7165 0.870789 42.5492C-0.363463 33.5727 12.2961 38.136 5.46163 31.7822C14.0836 31.7822 23.1391 42.5492 18.9842 30.8809Z" fill="#486B43"/>
</svg>
