<svg width="80" height="90" viewBox="0 0 80 90" fill="none" xmlns="http://www.w3.org/2000/svg">
<path d="M41.0736 25.477C33.3296 22.2533 32.2275 17.4626 28.0359 12.6976C23.8443 7.9326 10.1369 4.20968 8.04236 23.558C33.2416 15.9568 30.9394 42.4619 57.447 46.2488C57.447 46.2488 46.1629 55.215 41.0736 46.2983C41.0736 46.2983 36.6684 66.2622 24.1524 62.4297C11.6363 58.5972 12.9871 43.1355 18.6591 48.1557C24.3311 53.1759 27.3237 57.0612 32.1516 50.199C36.9794 43.3369 26.8245 30.8632 18.6067 30.8881C11.2565 30.9103 1.42143 38.9785 8.05157 55.3302C12.644 66.6564 17.9369 75.2475 32.2275 75.2043C30.0952 78.4636 12.328 76.9921 8.69918 72.3818C8.6823 77.8842 1.93945 89.294 1.57366 89.1165C1.57366 25.7669 -3.87713 10.5613 8.09678 2.86648C20.0707 -4.82833 54.2387 19.4398 79.639 0.634024C82.2668 19.746 55.3133 10.0302 69.8646 23.558C51.5075 23.558 32.2275 0.634022 41.0736 25.477Z" fill="#486B43"/>
</svg>
