<svg width="80" height="90" viewBox="0 0 80 90" fill="none" xmlns="http://www.w3.org/2000/svg">
<path d="M38.8053 25.4778C46.5495 22.254 47.6515 17.4632 51.8432 12.6981C56.0349 7.93307 69.7424 4.21008 71.837 23.5587C46.6374 15.9574 48.9397 42.463 22.4316 46.2499C22.4316 46.2499 33.7159 55.2162 38.8053 46.2994C38.8053 46.2994 43.2106 66.2636 55.7268 62.431C68.243 58.5984 66.8922 43.1365 61.2201 48.1568C55.5481 53.1771 52.5554 57.0624 47.7275 50.2001C42.8995 43.3379 53.0546 30.8641 61.2726 30.8889C68.6228 30.9111 78.4581 38.9794 71.8278 55.3314C67.2353 66.6578 61.9424 75.2491 47.6515 75.2059C49.7838 78.4652 67.5513 76.9937 71.1802 72.3832C71.1971 77.8858 77.94 89.2957 78.3058 89.1182C78.3058 25.7677 83.7567 10.5618 71.7826 2.86686C59.8085 -4.82807 25.64 19.4404 0.239273 0.634373C-2.38862 19.7467 24.5654 10.0307 10.0138 23.5587C28.3712 23.5587 47.6515 0.634371 38.8053 25.4778Z" fill="#486B43"/>
</svg>
