<svg width="38" height="42" viewBox="0 0 38 42" fill="none" xmlns="http://www.w3.org/2000/svg">
<path d="M19.1755 29.8813C15.5383 31.3954 15.0207 33.6455 13.052 35.8835C11.0833 38.1215 4.64533 39.8701 3.66155 30.7827C15.497 34.3527 14.4157 21.904 26.8656 20.1254C26.8656 20.1254 21.5658 15.9142 19.1755 20.1021C19.1755 20.1021 17.1064 10.7256 11.228 12.5256C5.34955 14.3257 5.98398 21.5876 8.64796 19.2297C11.3119 16.8719 12.7175 15.0471 14.985 18.2701C17.2525 21.493 12.483 27.3516 8.62334 27.3399C5.17117 27.3295 0.551879 23.5401 3.66588 15.8601C5.82284 10.5405 8.30875 6.50544 15.0207 6.52572C14.0192 4.99491 5.67443 5.68603 3.97004 7.85142C3.96212 5.26705 0.795182 -0.0918111 0.623378 -0.00843653C0.623378 29.7452 -1.93671 36.8869 3.68712 40.5009C9.31095 44.115 25.3588 32.7169 37.2886 41.5494C38.5229 32.573 25.8635 37.1363 32.6979 30.7826C24.076 30.7827 15.0207 41.5494 19.1755 29.8813Z" fill="#486B43"/>
</svg>
